<?xml version="1.0" encoding="UTF-8" standalone="no"?>
<!DOCTYPE svg PUBLIC "-//W3C//DTD SVG 1.1//EN"
 "http://www.w3.org/Graphics/SVG/1.1/DTD/svg11.dtd">
<!-- Generated by graphviz version 2.34.0 (20131231.1455)
 -->
<!-- Title: pic Pages: 1 -->
<svg width="336pt" height="236pt"
 viewBox="0.00 0.00 336.00 236.00" xmlns="http://www.w3.org/2000/svg" xmlns:xlink="http://www.w3.org/1999/xlink">
<g id="graph0" class="graph" transform="scale(1 1) rotate(0) translate(4 232)">
<title>pic</title>
<polygon fill="white" stroke="white" points="-4,4 -4,-232 332,-232 332,4 -4,4"/>
<g id="clust1" class="cluster"><title>cluster_0</title>
<polygon fill="none" stroke="black" points="8,-8 8,-220 112,-220 112,-8 8,-8"/>
</g>
<g id="clust2" class="cluster"><title>cluster_1</title>
<polygon fill="none" stroke="black" points="120,-8 120,-220 224,-220 224,-8 120,-8"/>
</g>
<g id="clust3" class="cluster"><title>cluster_2</title>
<polygon fill="none" stroke="black" points="232,-96 232,-220 320,-220 320,-96 232,-96"/>
</g>
<!-- a -->
<g id="node1" class="node"><title>a</title>
<polygon fill="none" stroke="black" points="87,-212 84,-216 63,-216 60,-212 33,-212 33,-176 87,-176 87,-212"/>
<text text-anchor="middle" x="60" y="-188.4" font-family="Times,serif" font-size="14.00">a</text>
</g>
<!-- a.bootstrap -->
<g id="node2" class="node"><title>a.bootstrap</title>
<polygon fill="none" stroke="black" points="95.2059,-140 92.2059,-144 71.2059,-144 68.2059,-140 24.7941,-140 24.7941,-104 95.2059,-104 95.2059,-140"/>
<text text-anchor="middle" x="60" y="-116.4" font-family="Times,serif" font-size="14.00">.bootstrap</text>
</g>
<!-- a&#45;&gt;a.bootstrap -->
<g id="edge1" class="edge"><title>a&#45;&gt;a.bootstrap</title>
<path fill="none" stroke="black" d="M60,-175.697C60,-167.983 60,-158.712 60,-150.112"/>
<polygon fill="black" stroke="black" points="63.5001,-150.104 60,-140.104 56.5001,-150.104 63.5001,-150.104"/>
</g>
<!-- a.repositories -->
<g id="node3" class="node"><title>a.repositories</title>
<polygon fill="#dddddd" stroke="none" points="25,-41 25,-62 95,-62 95,-41 25,-41"/>
<text text-anchor="start" x="27.3413" y="-45.9" font-family="Times,serif" font-size="14.00">repositories</text>
<text text-anchor="start" x="56.5" y="-25" font-family="Times,serif" font-size="14.00">b</text>
<polygon fill="none" stroke="black" points="24,-20.5 24,-63.5 96,-63.5 96,-20.5 24,-20.5"/>
</g>
<!-- a.bootstrap&#45;&gt;a.repositories -->
<g id="edge2" class="edge"><title>a.bootstrap&#45;&gt;a.repositories</title>
<path fill="none" stroke="black" d="M60,-103.689C60,-96.0762 60,-86.8464 60,-77.9066"/>
<polygon fill="black" stroke="black" points="63.5001,-77.6596 60,-67.6596 56.5001,-77.6596 63.5001,-77.6596"/>
</g>
<!-- b -->
<g id="node4" class="node"><title>b</title>
<polygon fill="none" stroke="black" points="199,-212 196,-216 175,-216 172,-212 145,-212 145,-176 199,-176 199,-212"/>
<text text-anchor="middle" x="172" y="-188.4" font-family="Times,serif" font-size="14.00">b</text>
</g>
<!-- b.bootstrap -->
<g id="node5" class="node"><title>b.bootstrap</title>
<polygon fill="none" stroke="black" points="207.206,-140 204.206,-144 183.206,-144 180.206,-140 136.794,-140 136.794,-104 207.206,-104 207.206,-140"/>
<text text-anchor="middle" x="172" y="-116.4" font-family="Times,serif" font-size="14.00">.bootstrap</text>
</g>
<!-- b&#45;&gt;b.bootstrap -->
<g id="edge3" class="edge"><title>b&#45;&gt;b.bootstrap</title>
<path fill="none" stroke="black" d="M172,-175.697C172,-167.983 172,-158.712 172,-150.112"/>
<polygon fill="black" stroke="black" points="175.5,-150.104 172,-140.104 168.5,-150.104 175.5,-150.104"/>
</g>
<!-- b.repositories -->
<g id="node6" class="node"><title>b.repositories</title>
<polygon fill="#dddddd" stroke="none" points="137,-41 137,-62 207,-62 207,-41 137,-41"/>
<text text-anchor="start" x="139.341" y="-45.9" font-family="Times,serif" font-size="14.00">repositories</text>
<text text-anchor="start" x="168.893" y="-25" font-family="Times,serif" font-size="14.00">c</text>
<polygon fill="none" stroke="black" points="136,-20.5 136,-63.5 208,-63.5 208,-20.5 136,-20.5"/>
</g>
<!-- b.bootstrap&#45;&gt;b.repositories -->
<g id="edge4" class="edge"><title>b.bootstrap&#45;&gt;b.repositories</title>
<path fill="none" stroke="black" d="M172,-103.689C172,-96.0762 172,-86.8464 172,-77.9066"/>
<polygon fill="black" stroke="black" points="175.5,-77.6596 172,-67.6596 168.5,-77.6596 175.5,-77.6596"/>
</g>
<!-- c -->
<g id="node7" class="node"><title>c</title>
<polygon fill="none" stroke="black" points="303,-212 300,-216 279,-216 276,-212 249,-212 249,-176 303,-176 303,-212"/>
<text text-anchor="middle" x="276" y="-188.4" font-family="Times,serif" font-size="14.00">c</text>
</g>
<!-- c.bootstrap -->
<g id="node8" class="node"><title>c.bootstrap</title>
<polygon fill="none" stroke="black" points="311.206,-140 308.206,-144 287.206,-144 284.206,-140 240.794,-140 240.794,-104 311.206,-104 311.206,-140"/>
<text text-anchor="middle" x="276" y="-116.4" font-family="Times,serif" font-size="14.00">.bootstrap</text>
</g>
<!-- c&#45;&gt;c.bootstrap -->
<g id="edge5" class="edge"><title>c&#45;&gt;c.bootstrap</title>
<path fill="none" stroke="black" d="M276,-175.697C276,-167.983 276,-158.712 276,-150.112"/>
<polygon fill="black" stroke="black" points="279.5,-150.104 276,-140.104 272.5,-150.104 279.5,-150.104"/>
</g>
</g>
</svg>
