<?xml version="1.0" encoding="UTF-8" standalone="no"?>
<!DOCTYPE svg PUBLIC "-//W3C//DTD SVG 1.1//EN"
 "http://www.w3.org/Graphics/SVG/1.1/DTD/svg11.dtd">
<!-- Generated by graphviz version 2.34.0 (20131231.1455)
 -->
<!-- Title: pic Pages: 1 -->
<svg width="408pt" height="308pt"
 viewBox="0.00 0.00 408.00 308.00" xmlns="http://www.w3.org/2000/svg" xmlns:xlink="http://www.w3.org/1999/xlink">
<g id="graph0" class="graph" transform="scale(1 1) rotate(0) translate(4 304)">
<title>pic</title>
<polygon fill="white" stroke="white" points="-4,4 -4,-304 404,-304 404,4 -4,4"/>
<g id="clust1" class="cluster"><title>cluster_0</title>
<polygon fill="none" stroke="black" points="8,-80 8,-292 112,-292 112,-80 8,-80"/>
</g>
<g id="clust2" class="cluster"><title>cluster_1</title>
<polygon fill="none" stroke="black" points="120,-8 120,-292 296,-292 296,-8 120,-8"/>
</g>
<g id="clust3" class="cluster"><title>cluster_2</title>
<polygon fill="none" stroke="black" points="304,-168 304,-292 392,-292 392,-168 304,-168"/>
</g>
<!-- a -->
<g id="node1" class="node"><title>a</title>
<polygon fill="none" stroke="black" points="87,-284 84,-288 63,-288 60,-284 33,-284 33,-248 87,-248 87,-284"/>
<text text-anchor="middle" x="60" y="-260.4" font-family="Times,serif" font-size="14.00">a</text>
</g>
<!-- a.bootstrap -->
<g id="node2" class="node"><title>a.bootstrap</title>
<polygon fill="none" stroke="black" points="95.2059,-212 92.2059,-216 71.2059,-216 68.2059,-212 24.7941,-212 24.7941,-176 95.2059,-176 95.2059,-212"/>
<text text-anchor="middle" x="60" y="-188.4" font-family="Times,serif" font-size="14.00">.bootstrap</text>
</g>
<!-- a&#45;&gt;a.bootstrap -->
<g id="edge1" class="edge"><title>a&#45;&gt;a.bootstrap</title>
<path fill="none" stroke="black" d="M60,-247.697C60,-239.983 60,-230.712 60,-222.112"/>
<polygon fill="black" stroke="black" points="63.5001,-222.104 60,-212.104 56.5001,-222.104 63.5001,-222.104"/>
</g>
<!-- a.repositories -->
<g id="node3" class="node"><title>a.repositories</title>
<polygon fill="#dddddd" stroke="none" points="25,-113 25,-134 95,-134 95,-113 25,-113"/>
<text text-anchor="start" x="27.3413" y="-117.9" font-family="Times,serif" font-size="14.00">repositories</text>
<text text-anchor="start" x="56.5" y="-97" font-family="Times,serif" font-size="14.00">b</text>
<polygon fill="none" stroke="black" points="24,-92.5 24,-135.5 96,-135.5 96,-92.5 24,-92.5"/>
</g>
<!-- a.bootstrap&#45;&gt;a.repositories -->
<g id="edge2" class="edge"><title>a.bootstrap&#45;&gt;a.repositories</title>
<path fill="none" stroke="black" d="M60,-175.689C60,-168.076 60,-158.846 60,-149.907"/>
<polygon fill="black" stroke="black" points="63.5001,-149.66 60,-139.66 56.5001,-149.66 63.5001,-149.66"/>
</g>
<!-- b -->
<g id="node4" class="node"><title>b</title>
<polygon fill="none" stroke="black" points="239,-284 236,-288 215,-288 212,-284 185,-284 185,-248 239,-248 239,-284"/>
<text text-anchor="middle" x="212" y="-260.4" font-family="Times,serif" font-size="14.00">b</text>
</g>
<!-- b.bootstrap -->
<g id="node5" class="node"><title>b.bootstrap</title>
<polygon fill="none" stroke="black" points="247.206,-212 244.206,-216 223.206,-216 220.206,-212 176.794,-212 176.794,-176 247.206,-176 247.206,-212"/>
<text text-anchor="middle" x="212" y="-188.4" font-family="Times,serif" font-size="14.00">.bootstrap</text>
</g>
<!-- b&#45;&gt;b.bootstrap -->
<g id="edge3" class="edge"><title>b&#45;&gt;b.bootstrap</title>
<path fill="none" stroke="black" d="M212,-247.697C212,-239.983 212,-230.712 212,-222.112"/>
<polygon fill="black" stroke="black" points="215.5,-222.104 212,-212.104 208.5,-222.104 215.5,-222.104"/>
</g>
<!-- b.repositories -->
<g id="node6" class="node"><title>b.repositories</title>
<polygon fill="#dddddd" stroke="none" points="137,-113 137,-134 207,-134 207,-113 137,-113"/>
<text text-anchor="start" x="139.341" y="-117.9" font-family="Times,serif" font-size="14.00">repositories</text>
<text text-anchor="start" x="168.893" y="-97" font-family="Times,serif" font-size="14.00">c</text>
<polygon fill="none" stroke="black" points="136,-92.5 136,-135.5 208,-135.5 208,-92.5 136,-92.5"/>
</g>
<!-- b.bootstrap&#45;&gt;b.repositories -->
<g id="edge4" class="edge"><title>b.bootstrap&#45;&gt;b.repositories</title>
<path fill="none" stroke="black" d="M203.123,-175.689C199.049,-167.745 194.072,-158.041 189.304,-148.742"/>
<polygon fill="black" stroke="black" points="192.324,-146.961 184.646,-139.66 186.095,-150.155 192.324,-146.961"/>
</g>
<!-- b.c -->
<g id="node7" class="node"><title>b.c</title>
<polygon fill="none" stroke="black" points="288,-132 285,-136 264,-136 261,-132 234,-132 234,-96 288,-96 288,-132"/>
<text text-anchor="middle" x="261" y="-108.4" font-family="Times,serif" font-size="14.00">c</text>
</g>
<!-- b.bootstrap&#45;&gt;b.c -->
<g id="edge5" class="edge"><title>b.bootstrap&#45;&gt;b.c</title>
<path fill="none" stroke="black" d="M222.875,-175.689C229.282,-165.49 237.512,-152.389 244.685,-140.971"/>
<polygon fill="black" stroke="black" points="247.8,-142.592 250.156,-132.262 241.872,-138.868 247.8,-142.592"/>
</g>
<!-- b.build_preferences -->
<g id="node8" class="node"><title>b.build_preferences</title>
<polygon fill="none" stroke="black" points="282.213,-52 171.787,-52 171.787,-16 288.213,-16 288.213,-46 282.213,-52"/>
<polyline fill="none" stroke="black" points="282.213,-52 282.213,-46 "/>
<polyline fill="none" stroke="black" points="288.213,-46 282.213,-46 "/>
<text text-anchor="middle" x="230" y="-28.4" font-family="Times,serif" font-size="14.00">build_preferences</text>
</g>
<!-- b.c&#45;&gt;b.build_preferences -->
<g id="edge6" class="edge"><title>b.c&#45;&gt;b.build_preferences</title>
<path fill="none" stroke="black" d="M254.12,-95.6893C250.147,-85.6919 245.065,-72.9064 240.592,-61.651"/>
<polygon fill="black" stroke="black" points="243.807,-60.2626 236.861,-52.2623 237.302,-62.848 243.807,-60.2626"/>
</g>
<!-- c -->
<g id="node9" class="node"><title>c</title>
<polygon fill="none" stroke="black" points="375,-284 372,-288 351,-288 348,-284 321,-284 321,-248 375,-248 375,-284"/>
<text text-anchor="middle" x="348" y="-260.4" font-family="Times,serif" font-size="14.00">c</text>
</g>
<!-- c.bootstrap -->
<g id="node10" class="node"><title>c.bootstrap</title>
<polygon fill="none" stroke="black" points="383.206,-212 380.206,-216 359.206,-216 356.206,-212 312.794,-212 312.794,-176 383.206,-176 383.206,-212"/>
<text text-anchor="middle" x="348" y="-188.4" font-family="Times,serif" font-size="14.00">.bootstrap</text>
</g>
<!-- c&#45;&gt;c.bootstrap -->
<g id="edge7" class="edge"><title>c&#45;&gt;c.bootstrap</title>
<path fill="none" stroke="black" d="M348,-247.697C348,-239.983 348,-230.712 348,-222.112"/>
<polygon fill="black" stroke="black" points="351.5,-222.104 348,-212.104 344.5,-222.104 351.5,-222.104"/>
</g>
</g>
</svg>
