<?xml version="1.0" encoding="UTF-8" standalone="no"?>
<!DOCTYPE svg PUBLIC "-//W3C//DTD SVG 1.1//EN"
 "http://www.w3.org/Graphics/SVG/1.1/DTD/svg11.dtd">
<!-- Generated by graphviz version 2.34.0 (20131231.1455)
 -->
<!-- Title: pic Pages: 1 -->
<svg width="524pt" height="308pt"
 viewBox="0.00 0.00 524.00 308.00" xmlns="http://www.w3.org/2000/svg" xmlns:xlink="http://www.w3.org/1999/xlink">
<g id="graph0" class="graph" transform="scale(1 1) rotate(0) translate(4 304)">
<title>pic</title>
<polygon fill="white" stroke="white" points="-4,4 -4,-304 520,-304 520,4 -4,4"/>
<g id="clust1" class="cluster"><title>cluster_0</title>
<polygon fill="none" stroke="black" points="8,-8 8,-292 184,-292 184,-8 8,-8"/>
</g>
<g id="clust2" class="cluster"><title>cluster_1</title>
<polygon fill="none" stroke="black" points="192,-8 192,-292 368,-292 368,-8 192,-8"/>
</g>
<g id="clust3" class="cluster"><title>cluster_2</title>
<polygon fill="none" stroke="black" points="376,-8 376,-292 508,-292 508,-8 376,-8"/>
</g>
<!-- a -->
<g id="node1" class="node"><title>a</title>
<polygon fill="none" stroke="black" points="127,-284 124,-288 103,-288 100,-284 73,-284 73,-248 127,-248 127,-284"/>
<text text-anchor="middle" x="100" y="-260.4" font-family="Times,serif" font-size="14.00">a</text>
</g>
<!-- a.bootstrap -->
<g id="node2" class="node"><title>a.bootstrap</title>
<polygon fill="none" stroke="black" points="135.206,-212 132.206,-216 111.206,-216 108.206,-212 64.7941,-212 64.7941,-176 135.206,-176 135.206,-212"/>
<text text-anchor="middle" x="100" y="-188.4" font-family="Times,serif" font-size="14.00">.bootstrap</text>
</g>
<!-- a&#45;&gt;a.bootstrap -->
<g id="edge1" class="edge"><title>a&#45;&gt;a.bootstrap</title>
<path fill="none" stroke="black" d="M100,-247.697C100,-239.983 100,-230.712 100,-222.112"/>
<polygon fill="black" stroke="black" points="103.5,-222.104 100,-212.104 96.5001,-222.104 103.5,-222.104"/>
</g>
<!-- a.repositories -->
<g id="node3" class="node"><title>a.repositories</title>
<polygon fill="#dddddd" stroke="none" points="25,-113 25,-134 95,-134 95,-113 25,-113"/>
<text text-anchor="start" x="27.3413" y="-117.9" font-family="Times,serif" font-size="14.00">repositories</text>
<text text-anchor="start" x="56.5" y="-97" font-family="Times,serif" font-size="14.00">b</text>
<polygon fill="none" stroke="black" points="24,-92.5 24,-135.5 96,-135.5 96,-92.5 24,-92.5"/>
</g>
<!-- a.bootstrap&#45;&gt;a.repositories -->
<g id="edge2" class="edge"><title>a.bootstrap&#45;&gt;a.repositories</title>
<path fill="none" stroke="black" d="M91.1227,-175.689C87.0488,-167.745 82.0722,-158.041 77.3038,-148.742"/>
<polygon fill="black" stroke="black" points="80.3235,-146.961 72.646,-139.66 74.0948,-150.155 80.3235,-146.961"/>
</g>
<!-- a.b -->
<g id="node4" class="node"><title>a.b</title>
<polygon fill="none" stroke="black" points="176,-132 173,-136 152,-136 149,-132 122,-132 122,-96 176,-96 176,-132"/>
<text text-anchor="middle" x="149" y="-108.4" font-family="Times,serif" font-size="14.00">b.info</text>
</g>
<!-- a.bootstrap&#45;&gt;a.b -->
<g id="edge3" class="edge"><title>a.bootstrap&#45;&gt;a.b</title>
<path fill="none" stroke="black" d="M110.875,-175.689C117.282,-165.49 125.512,-152.389 132.685,-140.971"/>
<polygon fill="black" stroke="black" points="135.8,-142.592 138.156,-132.262 129.872,-138.868 135.8,-142.592"/>
</g>
<!-- a.build_preferences -->
<g id="node5" class="node"><title>a.build_preferences</title>
<polygon fill="none" stroke="black" points="170.213,-52 59.7874,-52 59.7874,-16 176.213,-16 176.213,-46 170.213,-52"/>
<polyline fill="none" stroke="black" points="170.213,-52 170.213,-46 "/>
<polyline fill="none" stroke="black" points="176.213,-46 170.213,-46 "/>
<text text-anchor="middle" x="118" y="-28.4" font-family="Times,serif" font-size="14.00">build_preferences</text>
</g>
<!-- a.b&#45;&gt;a.build_preferences -->
<g id="edge4" class="edge"><title>a.b&#45;&gt;a.build_preferences</title>
<path fill="none" stroke="black" d="M142.12,-95.6893C138.147,-85.6919 133.065,-72.9064 128.592,-61.651"/>
<polygon fill="black" stroke="black" points="131.807,-60.2626 124.861,-52.2623 125.302,-62.848 131.807,-60.2626"/>
</g>
<!-- b -->
<g id="node6" class="node"><title>b</title>
<polygon fill="none" stroke="black" points="311,-284 308,-288 287,-288 284,-284 257,-284 257,-248 311,-248 311,-284"/>
<text text-anchor="middle" x="284" y="-260.4" font-family="Times,serif" font-size="14.00">b</text>
</g>
<!-- b.bootstrap -->
<g id="node7" class="node"><title>b.bootstrap</title>
<polygon fill="none" stroke="black" points="319.206,-212 316.206,-216 295.206,-216 292.206,-212 248.794,-212 248.794,-176 319.206,-176 319.206,-212"/>
<text text-anchor="middle" x="284" y="-188.4" font-family="Times,serif" font-size="14.00">.bootstrap</text>
</g>
<!-- b&#45;&gt;b.bootstrap -->
<g id="edge5" class="edge"><title>b&#45;&gt;b.bootstrap</title>
<path fill="none" stroke="black" d="M284,-247.697C284,-239.983 284,-230.712 284,-222.112"/>
<polygon fill="black" stroke="black" points="287.5,-222.104 284,-212.104 280.5,-222.104 287.5,-222.104"/>
</g>
<!-- b.repositories -->
<g id="node8" class="node"><title>b.repositories</title>
<polygon fill="#dddddd" stroke="none" points="209,-113 209,-134 279,-134 279,-113 209,-113"/>
<text text-anchor="start" x="211.341" y="-117.9" font-family="Times,serif" font-size="14.00">repositories</text>
<text text-anchor="start" x="240.893" y="-97" font-family="Times,serif" font-size="14.00">c</text>
<polygon fill="none" stroke="black" points="208,-92.5 208,-135.5 280,-135.5 280,-92.5 208,-92.5"/>
</g>
<!-- b.bootstrap&#45;&gt;b.repositories -->
<g id="edge6" class="edge"><title>b.bootstrap&#45;&gt;b.repositories</title>
<path fill="none" stroke="black" d="M275.123,-175.689C271.049,-167.745 266.072,-158.041 261.304,-148.742"/>
<polygon fill="black" stroke="black" points="264.324,-146.961 256.646,-139.66 258.095,-150.155 264.324,-146.961"/>
</g>
<!-- b.c -->
<g id="node9" class="node"><title>b.c</title>
<polygon fill="none" stroke="black" points="360,-132 357,-136 336,-136 333,-132 306,-132 306,-96 360,-96 360,-132"/>
<text text-anchor="middle" x="333" y="-108.4" font-family="Times,serif" font-size="14.00">c.info</text>
</g>
<!-- b.bootstrap&#45;&gt;b.c -->
<g id="edge7" class="edge"><title>b.bootstrap&#45;&gt;b.c</title>
<path fill="none" stroke="black" d="M294.875,-175.689C301.282,-165.49 309.512,-152.389 316.685,-140.971"/>
<polygon fill="black" stroke="black" points="319.8,-142.592 322.156,-132.262 313.872,-138.868 319.8,-142.592"/>
</g>
<!-- b.build_preferences -->
<g id="node10" class="node"><title>b.build_preferences</title>
<polygon fill="none" stroke="black" points="354.213,-52 243.787,-52 243.787,-16 360.213,-16 360.213,-46 354.213,-52"/>
<polyline fill="none" stroke="black" points="354.213,-52 354.213,-46 "/>
<polyline fill="none" stroke="black" points="360.213,-46 354.213,-46 "/>
<text text-anchor="middle" x="302" y="-28.4" font-family="Times,serif" font-size="14.00">build_preferences</text>
</g>
<!-- b.c&#45;&gt;b.build_preferences -->
<g id="edge8" class="edge"><title>b.c&#45;&gt;b.build_preferences</title>
<path fill="none" stroke="black" d="M326.12,-95.6893C322.147,-85.6919 317.065,-72.9064 312.592,-61.651"/>
<polygon fill="black" stroke="black" points="315.807,-60.2626 308.861,-52.2623 309.302,-62.848 315.807,-60.2626"/>
</g>
<!-- c -->
<g id="node11" class="node"><title>c</title>
<polygon fill="none" stroke="black" points="469,-284 466,-288 445,-288 442,-284 415,-284 415,-248 469,-248 469,-284"/>
<text text-anchor="middle" x="442" y="-260.4" font-family="Times,serif" font-size="14.00">c</text>
</g>
<!-- c.bootstrap -->
<g id="node12" class="node"><title>c.bootstrap</title>
<polygon fill="none" stroke="black" points="477.206,-212 474.206,-216 453.206,-216 450.206,-212 406.794,-212 406.794,-176 477.206,-176 477.206,-212"/>
<text text-anchor="middle" x="442" y="-188.4" font-family="Times,serif" font-size="14.00">.bootstrap</text>
</g>
<!-- c&#45;&gt;c.bootstrap -->
<g id="edge9" class="edge"><title>c&#45;&gt;c.bootstrap</title>
<path fill="none" stroke="black" d="M442,-247.697C442,-239.983 442,-230.712 442,-222.112"/>
<polygon fill="black" stroke="black" points="445.5,-222.104 442,-212.104 438.5,-222.104 445.5,-222.104"/>
</g>
<!-- c.c -->
<g id="node13" class="node"><title>c.c</title>
<polygon fill="none" stroke="black" points="469,-132 466,-136 445,-136 442,-132 415,-132 415,-96 469,-96 469,-132"/>
<text text-anchor="middle" x="442" y="-108.4" font-family="Times,serif" font-size="14.00">c.info</text>
</g>
<!-- c.bootstrap&#45;&gt;c.c -->
<g id="edge10" class="edge"><title>c.bootstrap&#45;&gt;c.c</title>
<path fill="none" stroke="black" d="M442,-175.689C442,-165.894 442,-153.422 442,-142.335"/>
<polygon fill="black" stroke="black" points="445.5,-142.262 442,-132.262 438.5,-142.262 445.5,-142.262"/>
</g>
<!-- c.build_preferences -->
<g id="node14" class="node"><title>c.build_preferences</title>
<polygon fill="none" stroke="black" points="494.213,-52 383.787,-52 383.787,-16 500.213,-16 500.213,-46 494.213,-52"/>
<polyline fill="none" stroke="black" points="494.213,-52 494.213,-46 "/>
<polyline fill="none" stroke="black" points="500.213,-46 494.213,-46 "/>
<text text-anchor="middle" x="442" y="-28.4" font-family="Times,serif" font-size="14.00">build_preferences</text>
</g>
<!-- c.c&#45;&gt;c.build_preferences -->
<g id="edge11" class="edge"><title>c.c&#45;&gt;c.build_preferences</title>
<path fill="none" stroke="black" d="M442,-95.6893C442,-85.8938 442,-73.4218 442,-62.335"/>
<polygon fill="black" stroke="black" points="445.5,-62.2623 442,-52.2623 438.5,-62.2624 445.5,-62.2623"/>
</g>
</g>
</svg>
