<?xml version="1.0" encoding="UTF-8" standalone="no"?>
<!DOCTYPE svg PUBLIC "-//W3C//DTD SVG 1.1//EN"
 "http://www.w3.org/Graphics/SVG/1.1/DTD/svg11.dtd">
<!-- Generated by graphviz version 2.34.0 (20131231.1455)
 -->
<!-- Title: config Pages: 1 -->
<svg width="140pt" height="290pt"
 viewBox="0.00 0.00 140.00 290.00" xmlns="http://www.w3.org/2000/svg" xmlns:xlink="http://www.w3.org/1999/xlink">
<g id="graph0" class="graph" transform="scale(1 1) rotate(0) translate(4 286)">
<title>config</title>
<polygon fill="white" stroke="white" points="-4,4 -4,-286 136,-286 136,4 -4,4"/>
<g id="clust1" class="cluster"><title>cluster_1</title>
<polygon fill="none" stroke="red" points="8,-8 8,-218 124,-218 124,-8 8,-8"/>
</g>
<!-- project -->
<g id="node1" class="node"><title>project</title>
<polygon fill="none" stroke="red" stroke-width="2" points="93.1525,-282 90.1525,-286 69.1525,-286 66.1525,-282 38.8475,-282 38.8475,-246 93.1525,-246 93.1525,-282"/>
<text text-anchor="middle" x="66" y="-258.4" font-family="Times,serif" font-size="14.00">project</text>
</g>
<!-- .bootstrap.auto -->
<g id="node2" class="node"><title>.bootstrap.auto</title>
<polygon fill="none" stroke="black" points="115.405,-210 112.405,-214 91.4049,-214 88.4049,-210 16.5951,-210 16.5951,-174 115.405,-174 115.405,-210"/>
<text text-anchor="middle" x="66" y="-186.4" font-family="Times,serif" font-size="14.00">.bootstrap.auto</text>
</g>
<!-- project&#45;&gt;.bootstrap.auto -->
<g id="edge1" class="edge"><title>project&#45;&gt;.bootstrap.auto</title>
<path fill="none" stroke="black" d="M66,-245.697C66,-237.983 66,-228.712 66,-220.112"/>
<polygon fill="black" stroke="black" points="69.5005,-228 66,-218 62.5005,-228 69.5005,-228"/>
</g>
<!-- Noobie.build -->
<g id="node3" class="node"><title>Noobie.build</title>
<polygon fill="none" stroke="black" points="110.619,-138 107.619,-142 86.6192,-142 83.6192,-138 21.3808,-138 21.3808,-102 110.619,-102 110.619,-138"/>
<text text-anchor="middle" x="66" y="-114.4" font-family="Times,serif" font-size="14.00">Noobie.build</text>
</g>
<!-- .bootstrap.auto&#45;&gt;Noobie.build -->
<g id="edge2" class="edge"><title>.bootstrap.auto&#45;&gt;Noobie.build</title>
<path fill="none" stroke="black" d="M66,-173.697C66,-165.983 66,-156.712 66,-148.112"/>
<polygon fill="black" stroke="black" points="69.5001,-148.104 66,-138.104 62.5001,-148.104 69.5001,-148.104"/>
</g>
<!-- Foo -->
<g id="node4" class="node"><title>Foo</title>
<polygon fill="none" stroke="black" points="87,-65.5 39,-65.5 39,-16.5 93,-16.5 93,-59.5 87,-65.5"/>
<polyline fill="none" stroke="black" points="87,-65.5 87,-59.5 "/>
<polyline fill="none" stroke="black" points="93,-59.5 87,-59.5 "/>
<text text-anchor="start" x="55.6069" y="-44.9" font-family="Times,serif" font-size="14.00">Foo</text>
<polygon fill="#dddddd" stroke="none" points="50,-20 50,-40 83,-40 83,-20 50,-20"/>
<text text-anchor="start" x="52.5" y="-24" font-family="Times,serif" font-size="14.00">1848</text>
</g>
<!-- Noobie.build&#45;&gt;Foo -->
<g id="edge3" class="edge"><title>Noobie.build&#45;&gt;Foo</title>
<path fill="none" stroke="black" d="M66,-101.911C66,-94.2684 66,-84.9749 66,-76.0106"/>
<polygon fill="black" stroke="black" points="69.5001,-75.7571 66,-65.7571 62.5001,-75.7571 69.5001,-75.7571"/>
</g>
</g>
</svg>
