<?xml version="1.0" encoding="UTF-8" standalone="no"?>
<!DOCTYPE svg PUBLIC "-//W3C//DTD SVG 1.1//EN"
 "http://www.w3.org/Graphics/SVG/1.1/DTD/svg11.dtd">
<!-- Generated by graphviz version 2.34.0 (20131231.1455)
 -->
<!-- Title: config Pages: 1 -->
<svg width="552pt" height="322pt"
 viewBox="0.00 0.00 552.00 322.00" xmlns="http://www.w3.org/2000/svg" xmlns:xlink="http://www.w3.org/1999/xlink">
<g id="graph0" class="graph" transform="scale(1 1) rotate(0) translate(4 318)">
<title>config</title>
<polygon fill="white" stroke="white" points="-4,4 -4,-318 548,-318 548,4 -4,4"/>
<g id="clust5" class="cluster"><title>cluster_2</title>
<polygon fill="none" stroke="blue" points="412,-94 412,-240 536,-240 536,-94 412,-94"/>
</g>
<g id="clust3" class="cluster"><title>cluster_0</title>
<polygon fill="none" stroke="black" points="8,-180 8,-248 278,-248 278,-180 8,-180"/>
</g>
<g id="clust4" class="cluster"><title>cluster_1</title>
<polygon fill="none" stroke="red" points="286,-8 286,-240 404,-240 404,-8 286,-8"/>
</g>
<!-- environment -->
<g id="node1" class="node"><title>environment</title>
<polygon fill="none" stroke="black" stroke-width="3" points="99.6206,-277 99.6206,-313 186.379,-313 186.379,-277 99.6206,-277"/>
<text text-anchor="middle" x="143" y="-289.4" font-family="Times,serif" font-size="14.00">environment</text>
</g>
<!-- project -->
<g id="node2" class="node"><title>project</title>
<polygon fill="none" stroke="red" stroke-width="2" points="372.153,-313 369.153,-317 348.153,-317 345.153,-313 317.847,-313 317.847,-277 372.153,-277 372.153,-313"/>
<text text-anchor="middle" x="345" y="-289.4" font-family="Times,serif" font-size="14.00">project</text>
</g>
<!-- environment&#45;&gt;project -->
<g id="edge1" class="edge"><title>environment&#45;&gt;project</title>
<path fill="none" stroke="black" stroke-width="3" d="M186.398,-295C226.844,-295 267.29,-295 307.736,-295"/>
<polygon fill="black" stroke="black" points="307.74,-298.5 317.74,-295 307.74,-291.5 307.74,-298.5"/>
</g>
<!-- environ -->
<g id="node4" class="node"><title>environ</title>
<text text-anchor="start" x="133.393" y="-217.9" font-family="Times,serif" font-size="14.00">env</text>
<polygon fill="#dddddd" stroke="none" points="26,-193 26,-213 261,-213 261,-193 26,-193"/>
<text text-anchor="start" x="28.335" y="-197" font-family="Times,serif" font-size="14.00">MULLE_BOOTSTRAP_TWEAK=1848</text>
<polygon fill="none" stroke="black" points="24.5,-192.5 24.5,-235.5 261.5,-235.5 261.5,-192.5 24.5,-192.5"/>
</g>
<!-- environment&#45;&gt;environ -->
<g id="edge3" class="edge"><title>environment&#45;&gt;environ</title>
<path fill="none" stroke="black" d="M143,-276.858C143,-268.945 143,-259.247 143,-249.897"/>
<polygon fill="black" stroke="black" points="146.501,-258 143,-248 139.501,-258 146.501,-258"/>
</g>
<!-- home -->
<g id="node3" class="node"><title>home</title>
<polygon fill="none" stroke="blue" stroke-width="2" points="512.248,-313 509.248,-317 488.248,-317 485.248,-313 435.752,-313 435.752,-277 512.248,-277 512.248,-313"/>
<text text-anchor="middle" x="474" y="-289.4" font-family="Times,serif" font-size="14.00">${HOME}</text>
</g>
<!-- project&#45;&gt;home -->
<g id="edge2" class="edge"><title>project&#45;&gt;home</title>
<path fill="none" stroke="black" stroke-width="3" d="M372.211,-295C389.827,-295 407.443,-295 425.059,-295"/>
<polygon fill="black" stroke="black" points="425.432,-298.5 435.431,-295 425.431,-291.5 425.432,-298.5"/>
</g>
<!-- .bootstrap.local -->
<g id="node5" class="node"><title>.bootstrap.local</title>
<polygon fill="none" stroke="black" points="396.233,-232 393.233,-236 372.233,-236 369.233,-232 293.767,-232 293.767,-196 396.233,-196 396.233,-232"/>
<text text-anchor="middle" x="345" y="-208.4" font-family="Times,serif" font-size="14.00">.bootstrap.local</text>
</g>
<!-- project&#45;&gt;.bootstrap.local -->
<g id="edge4" class="edge"><title>project&#45;&gt;.bootstrap.local</title>
<path fill="none" stroke="black" d="M345,-276.858C345,-266.713 345,-253.634 345,-242.117"/>
<polygon fill="black" stroke="black" points="348.5,-250 345,-240 341.5,-250 348.5,-250"/>
</g>
<!-- .mulle&#45;bootstrap -->
<g id="node8" class="node"><title>.mulle&#45;bootstrap</title>
<polygon fill="none" stroke="black" points="528.111,-232 525.111,-236 504.111,-236 501.111,-232 419.889,-232 419.889,-196 528.111,-196 528.111,-232"/>
<text text-anchor="middle" x="474" y="-208.4" font-family="Times,serif" font-size="14.00">.mulle&#45;bootstrap</text>
</g>
<!-- home&#45;&gt;.mulle&#45;bootstrap -->
<g id="edge7" class="edge"><title>home&#45;&gt;.mulle&#45;bootstrap</title>
<path fill="none" stroke="black" d="M474,-276.858C474,-266.713 474,-253.634 474,-242.117"/>
<polygon fill="black" stroke="black" points="477.5,-250 474,-240 470.5,-250 477.5,-250"/>
</g>
<!-- config -->
<g id="node6" class="node"><title>config</title>
<polygon fill="none" stroke="black" points="372,-145 369,-149 348,-149 345,-145 318,-145 318,-109 372,-109 372,-145"/>
<text text-anchor="middle" x="345" y="-121.4" font-family="Times,serif" font-size="14.00">config</text>
</g>
<!-- .bootstrap.local&#45;&gt;config -->
<g id="edge5" class="edge"><title>.bootstrap.local&#45;&gt;config</title>
<path fill="none" stroke="black" d="M345,-195.799C345,-184.163 345,-168.548 345,-155.237"/>
<polygon fill="black" stroke="black" points="348.5,-155.175 345,-145.175 341.5,-155.175 348.5,-155.175"/>
</g>
<!-- 1.tweak -->
<g id="node7" class="node"><title>1.tweak</title>
<polygon fill="none" stroke="black" points="366,-65.5 318,-65.5 318,-16.5 372,-16.5 372,-59.5 366,-65.5"/>
<polyline fill="none" stroke="black" points="366,-65.5 366,-59.5 "/>
<polyline fill="none" stroke="black" points="372,-59.5 366,-59.5 "/>
<text text-anchor="start" x="328.286" y="-44.9" font-family="Times,serif" font-size="14.00">tweak</text>
<polygon fill="#dddddd" stroke="none" points="326,-20 326,-40 364,-40 364,-20 326,-20"/>
<text text-anchor="start" x="331" y="-24" font-family="Times,serif" font-size="14.00">1849</text>
</g>
<!-- config&#45;&gt;1.tweak -->
<g id="edge6" class="edge"><title>config&#45;&gt;1.tweak</title>
<path fill="none" stroke="black" d="M345,-108.595C345,-99.1028 345,-87.0225 345,-75.764"/>
<polygon fill="black" stroke="black" points="348.5,-75.7534 345,-65.7535 341.5,-75.7535 348.5,-75.7534"/>
</g>
<!-- 2.tweak -->
<g id="node9" class="node"><title>2.tweak</title>
<polygon fill="none" stroke="black" points="495,-151.5 447,-151.5 447,-102.5 501,-102.5 501,-145.5 495,-151.5"/>
<polyline fill="none" stroke="black" points="495,-151.5 495,-145.5 "/>
<polyline fill="none" stroke="black" points="501,-145.5 495,-145.5 "/>
<text text-anchor="start" x="457.286" y="-130.9" font-family="Times,serif" font-size="14.00">tweak</text>
<polygon fill="#dddddd" stroke="none" points="455,-106 455,-126 493,-126 493,-106 455,-106"/>
<text text-anchor="start" x="460" y="-110" font-family="Times,serif" font-size="14.00">1850</text>
</g>
<!-- .mulle&#45;bootstrap&#45;&gt;2.tweak -->
<g id="edge8" class="edge"><title>.mulle&#45;bootstrap&#45;&gt;2.tweak</title>
<path fill="none" stroke="black" d="M474,-195.799C474,-186.068 474,-173.555 474,-161.934"/>
<polygon fill="black" stroke="black" points="477.5,-161.617 474,-151.617 470.5,-161.617 477.5,-161.617"/>
</g>
</g>
</svg>
