<?xml version="1.0" encoding="UTF-8" standalone="no"?>
<!DOCTYPE svg PUBLIC "-//W3C//DTD SVG 1.1//EN"
 "http://www.w3.org/Graphics/SVG/1.1/DTD/svg11.dtd">
<!-- Generated by graphviz version 2.34.0 (20131231.1455)
 -->
<!-- Title: config Pages: 1 -->
<svg width="140pt" height="218pt"
 viewBox="0.00 0.00 140.00 218.00" xmlns="http://www.w3.org/2000/svg" xmlns:xlink="http://www.w3.org/1999/xlink">
<g id="graph0" class="graph" transform="scale(1 1) rotate(0) translate(4 214)">
<title>config</title>
<polygon fill="white" stroke="white" points="-4,4 -4,-214 136,-214 136,4 -4,4"/>
<g id="clust2" class="cluster"><title>cluster_1</title>
<polygon fill="none" stroke="red" points="8,-8 8,-146 124,-146 124,-8 8,-8"/>
</g>
<!-- project -->
<g id="node1" class="node"><title>project</title>
<polygon fill="none" stroke="red" stroke-width="2" points="93.1525,-210 90.1525,-214 69.1525,-214 66.1525,-210 38.8475,-210 38.8475,-174 93.1525,-174 93.1525,-210"/>
<text text-anchor="middle" x="66" y="-186.4" font-family="Times,serif" font-size="14.00">project</text>
</g>
<!-- .bootstrap.auto -->
<g id="node2" class="node"><title>.bootstrap.auto</title>
<polygon fill="none" stroke="black" points="115.405,-138 112.405,-142 91.4049,-142 88.4049,-138 16.5951,-138 16.5951,-102 115.405,-102 115.405,-138"/>
<text text-anchor="middle" x="66" y="-114.4" font-family="Times,serif" font-size="14.00">.bootstrap.auto</text>
</g>
<!-- project&#45;&gt;.bootstrap.auto -->
<g id="edge1" class="edge"><title>project&#45;&gt;.bootstrap.auto</title>
<path fill="none" stroke="black" d="M66,-173.697C66,-165.983 66,-156.712 66,-148.112"/>
<polygon fill="black" stroke="black" points="69.5005,-156 66,-146 62.5005,-156 69.5005,-156"/>
</g>
<!-- Foo -->
<g id="node3" class="node"><title>Foo</title>
<polygon fill="none" stroke="black" points="87,-65.5 39,-65.5 39,-16.5 93,-16.5 93,-59.5 87,-65.5"/>
<polyline fill="none" stroke="black" points="87,-65.5 87,-59.5 "/>
<polyline fill="none" stroke="black" points="93,-59.5 87,-59.5 "/>
<text text-anchor="start" x="55.6069" y="-44.9" font-family="Times,serif" font-size="14.00">Foo</text>
<polygon fill="#dddddd" stroke="none" points="50,-20 50,-40 83,-40 83,-20 50,-20"/>
<text text-anchor="start" x="52.5" y="-24" font-family="Times,serif" font-size="14.00">1848</text>
</g>
<!-- .bootstrap.auto&#45;&gt;Foo -->
<g id="edge2" class="edge"><title>.bootstrap.auto&#45;&gt;Foo</title>
<path fill="none" stroke="black" d="M66,-101.911C66,-94.2684 66,-84.9749 66,-76.0106"/>
<polygon fill="black" stroke="black" points="69.5001,-75.7571 66,-65.7571 62.5001,-75.7571 69.5001,-75.7571"/>
</g>
</g>
</svg>
