<?xml version="1.0" encoding="UTF-8" standalone="no"?>
<!DOCTYPE svg PUBLIC "-//W3C//DTD SVG 1.1//EN"
 "http://www.w3.org/Graphics/SVG/1.1/DTD/svg11.dtd">
<!-- Generated by graphviz version 2.34.0 (20131231.1455)
 -->
<!-- Title: inherit Pages: 1 -->
<svg width="318pt" height="226pt"
 viewBox="0.00 0.00 318.00 226.00" xmlns="http://www.w3.org/2000/svg" xmlns:xlink="http://www.w3.org/1999/xlink">
<g id="graph0" class="graph" transform="scale(1 1) rotate(0) translate(4 222)">
<title>inherit</title>
<polygon fill="white" stroke="white" points="-4,4 -4,-222 314,-222 314,4 -4,4"/>
<g id="clust1" class="cluster"><title>cluster_0</title>
<polygon fill="none" stroke="red" points="8,-8 8,-152 150,-152 150,-8 8,-8"/>
</g>
<g id="clust2" class="cluster"><title>cluster_1</title>
<polygon fill="none" stroke="blue" points="158,-8 158,-152 302,-152 302,-8 158,-8"/>
</g>
<!-- Before -->
<g id="node1" class="node"><title>Before</title>
<polygon fill="none" stroke="red" points="87.9551,-181 87.9551,-217 142.045,-217 142.045,-181 87.9551,-181"/>
<text text-anchor="middle" x="115" y="-193.4" font-family="Times,serif" font-size="14.00">Before</text>
</g>
<!-- dst -->
<g id="node3" class="node"><title>dst</title>
<polygon fill="none" stroke="black" points="142,-144 139,-148 118,-148 115,-144 88,-144 88,-108 142,-108 142,-144"/>
<text text-anchor="middle" x="115" y="-120.4" font-family="Times,serif" font-size="14.00">dst</text>
</g>
<!-- Before&#45;&gt;dst -->
<g id="edge1" class="edge"><title>Before&#45;&gt;dst</title>
<path fill="none" stroke="black" d="M115,-180.813C115,-172.789 115,-163.047 115,-154.069"/>
<polygon fill="black" stroke="black" points="118.5,-162 115,-152 111.5,-162 118.5,-162"/>
</g>
<!-- After -->
<g id="node2" class="node"><title>After</title>
<polygon fill="none" stroke="blue" points="239,-181 239,-217 293,-217 293,-181 239,-181"/>
<text text-anchor="middle" x="265.769" y="-193.4" font-family="Times,serif" font-size="14.00">After</text>
</g>
<!-- result:dst -->
<g id="node4" class="node"><title>result:dst</title>
<polygon fill="none" stroke="black" points="293,-144 290,-148 269,-148 266,-144 239,-144 239,-108 293,-108 293,-144"/>
<text text-anchor="middle" x="266" y="-120.4" font-family="Times,serif" font-size="14.00">dst</text>
</g>
<!-- After&#45;&gt;result:dst -->
<g id="edge2" class="edge"><title>After&#45;&gt;result:dst</title>
<path fill="none" stroke="black" d="M266,-180.813C266,-172.789 266,-163.047 266,-154.069"/>
<polygon fill="black" stroke="black" points="269.5,-162 266,-152 262.5,-162 269.5,-162"/>
</g>
<!-- result:dst/foo -->
<g id="node7" class="node"><title>result:dst/foo</title>
<polygon fill="#dddddd" stroke="none" points="250,-43 250,-64 283,-64 283,-43 250,-43"/>
<text text-anchor="start" x="257.169" y="-47.9" font-family="Times,serif" font-size="14.00">foo</text>
<text text-anchor="start" x="252.5" y="-27" font-family="Times,serif" font-size="14.00">1848</text>
<polygon fill="none" stroke="black" stroke-width="3" points="248,-22 248,-66 284,-66 284,-22 248,-22"/>
</g>
<!-- result:dst&#45;&gt;result:dst/foo -->
<g id="edge4" class="edge"><title>result:dst&#45;&gt;result:dst/foo</title>
<path fill="none" stroke="black" d="M266,-107.641C266,-100.11 266,-90.9832 266,-82.0529"/>
<polygon fill="black" stroke="black" points="269.5,-81.7674 266,-71.7675 262.5,-81.7675 269.5,-81.7674"/>
</g>
<!-- src -->
<g id="node5" class="node"><title>src</title>
<polygon fill="none" stroke="black" points="70,-144 67,-148 46,-148 43,-144 16,-144 16,-108 70,-108 70,-144"/>
<text text-anchor="middle" x="43" y="-120.4" font-family="Times,serif" font-size="14.00">src</text>
</g>
<!-- foo -->
<g id="node6" class="node"><title>foo</title>
<polygon fill="#dddddd" stroke="none" points="28,-43 28,-64 61,-64 61,-43 28,-43"/>
<text text-anchor="start" x="35.1689" y="-47.9" font-family="Times,serif" font-size="14.00">foo</text>
<text text-anchor="start" x="30.5" y="-27" font-family="Times,serif" font-size="14.00">1848</text>
<polygon fill="none" stroke="black" stroke-width="3" points="26,-22 26,-66 62,-66 62,-22 26,-22"/>
</g>
<!-- src&#45;&gt;foo -->
<g id="edge3" class="edge"><title>src&#45;&gt;foo</title>
<path fill="none" stroke="black" d="M43.217,-107.641C43.3111,-100.11 43.4252,-90.9832 43.5368,-82.0529"/>
<polygon fill="black" stroke="black" points="47.04,-81.8105 43.6654,-71.7675 40.0406,-81.7229 47.04,-81.8105"/>
</g>
<!-- result:src -->
<g id="node8" class="node"><title>result:src</title>
<polygon fill="none" stroke="black" points="220,-144 217,-148 196,-148 193,-144 166,-144 166,-108 220,-108 220,-144"/>
<text text-anchor="middle" x="193" y="-120.4" font-family="Times,serif" font-size="14.00">src</text>
</g>
<!-- result:src/foo -->
<g id="node9" class="node"><title>result:src/foo</title>
<polygon fill="#dddddd" stroke="none" points="177,-43 177,-64 210,-64 210,-43 177,-43"/>
<text text-anchor="start" x="184.169" y="-47.9" font-family="Times,serif" font-size="14.00">foo</text>
<text text-anchor="start" x="179.5" y="-27" font-family="Times,serif" font-size="14.00">1848</text>
<polygon fill="none" stroke="black" points="175.5,-22.5 175.5,-65.5 210.5,-65.5 210.5,-22.5 175.5,-22.5"/>
</g>
<!-- result:src&#45;&gt;result:src/foo -->
<g id="edge5" class="edge"><title>result:src&#45;&gt;result:src/foo</title>
<path fill="none" stroke="black" d="M193,-107.641C193,-99.4742 193,-89.4297 193,-79.795"/>
<polygon fill="black" stroke="black" points="196.5,-79.6093 193,-69.6094 189.5,-79.6094 196.5,-79.6093"/>
</g>
</g>
</svg>
