<?xml version="1.0" encoding="UTF-8" standalone="no"?>
<!DOCTYPE svg PUBLIC "-//W3C//DTD SVG 1.1//EN"
 "http://www.w3.org/Graphics/SVG/1.1/DTD/svg11.dtd">
<!-- Generated by graphviz version 2.34.0 (20131231.1455)
 -->
<!-- Title: inherit Pages: 1 -->
<svg width="348pt" height="226pt"
 viewBox="0.00 0.00 348.00 226.00" xmlns="http://www.w3.org/2000/svg" xmlns:xlink="http://www.w3.org/1999/xlink">
<g id="graph0" class="graph" transform="scale(1 1) rotate(0) translate(4 222)">
<title>inherit</title>
<polygon fill="white" stroke="white" points="-4,4 -4,-222 344,-222 344,4 -4,4"/>
<g id="clust1" class="cluster"><title>cluster_0</title>
<polygon fill="none" stroke="red" points="8,-8 8,-152 150,-152 150,-8 8,-8"/>
</g>
<g id="clust2" class="cluster"><title>cluster_1</title>
<polygon fill="none" stroke="blue" points="158,-8 158,-152 332,-152 332,-8 158,-8"/>
</g>
<!-- Before -->
<g id="node1" class="node"><title>Before</title>
<polygon fill="none" stroke="red" points="87.9551,-181 87.9551,-217 142.045,-217 142.045,-181 87.9551,-181"/>
<text text-anchor="middle" x="115" y="-193.4" font-family="Times,serif" font-size="14.00">Before</text>
</g>
<!-- dst -->
<g id="node3" class="node"><title>dst</title>
<polygon fill="none" stroke="black" points="142,-144 139,-148 118,-148 115,-144 88,-144 88,-108 142,-108 142,-144"/>
<text text-anchor="middle" x="115" y="-120.4" font-family="Times,serif" font-size="14.00">dst</text>
</g>
<!-- Before&#45;&gt;dst -->
<g id="edge1" class="edge"><title>Before&#45;&gt;dst</title>
<path fill="none" stroke="black" d="M115,-180.813C115,-172.789 115,-163.047 115,-154.069"/>
<polygon fill="black" stroke="black" points="118.5,-162 115,-152 111.5,-162 118.5,-162"/>
</g>
<!-- After -->
<g id="node2" class="node"><title>After</title>
<polygon fill="none" stroke="blue" points="269,-181 269,-217 323,-217 323,-181 269,-181"/>
<text text-anchor="middle" x="295.769" y="-193.4" font-family="Times,serif" font-size="14.00">After</text>
</g>
<!-- result:dst -->
<g id="node4" class="node"><title>result:dst</title>
<polygon fill="none" stroke="black" points="323,-144 320,-148 299,-148 296,-144 269,-144 269,-108 323,-108 323,-144"/>
<text text-anchor="middle" x="296" y="-120.4" font-family="Times,serif" font-size="14.00">dst</text>
</g>
<!-- After&#45;&gt;result:dst -->
<g id="edge2" class="edge"><title>After&#45;&gt;result:dst</title>
<path fill="none" stroke="black" d="M296,-180.813C296,-172.789 296,-163.047 296,-154.069"/>
<polygon fill="black" stroke="black" points="299.5,-162 296,-152 292.5,-162 299.5,-162"/>
</g>
<!-- result:dst/foo -->
<g id="node7" class="node"><title>result:dst/foo</title>
<polygon fill="#dddddd" stroke="none" points="280,-43 280,-64 313,-64 313,-43 280,-43"/>
<text text-anchor="start" x="287.169" y="-47.9" font-family="Times,serif" font-size="14.00">foo</text>
<text text-anchor="start" x="282.5" y="-27" font-family="Times,serif" font-size="14.00">1849</text>
<polygon fill="none" stroke="black" stroke-width="3" points="278,-22 278,-66 314,-66 314,-22 278,-22"/>
</g>
<!-- result:dst&#45;&gt;result:dst/foo -->
<g id="edge4" class="edge"><title>result:dst&#45;&gt;result:dst/foo</title>
<path fill="none" stroke="black" d="M296,-107.641C296,-100.11 296,-90.9832 296,-82.0529"/>
<polygon fill="black" stroke="black" points="299.5,-81.7674 296,-71.7675 292.5,-81.7675 299.5,-81.7674"/>
</g>
<!-- src -->
<g id="node5" class="node"><title>src</title>
<polygon fill="none" stroke="black" points="70,-144 67,-148 46,-148 43,-144 16,-144 16,-108 70,-108 70,-144"/>
<text text-anchor="middle" x="43" y="-120.4" font-family="Times,serif" font-size="14.00">src</text>
</g>
<!-- foo.darwin -->
<g id="node6" class="node"><title>foo.darwin</title>
<polygon fill="#dddddd" stroke="none" points="27,-43 27,-64 93,-64 93,-43 27,-43"/>
<text text-anchor="start" x="29.481" y="-47.9" font-family="Times,serif" font-size="14.00">foo.darwin</text>
<text text-anchor="start" x="46" y="-27" font-family="Times,serif" font-size="14.00">1849</text>
<polygon fill="none" stroke="black" stroke-width="3" points="25.5,-22 25.5,-66 94.5,-66 94.5,-22 25.5,-22"/>
</g>
<!-- src&#45;&gt;foo.darwin -->
<g id="edge3" class="edge"><title>src&#45;&gt;foo.darwin</title>
<path fill="none" stroke="black" d="M46.6887,-107.641C48.3064,-100.029 50.2708,-90.7846 52.1881,-81.7618"/>
<polygon fill="black" stroke="black" points="55.6568,-82.2766 54.3119,-71.7675 48.8097,-80.8215 55.6568,-82.2766"/>
</g>
<!-- result:src -->
<g id="node8" class="node"><title>result:src</title>
<polygon fill="none" stroke="black" points="235,-144 232,-148 211,-148 208,-144 181,-144 181,-108 235,-108 235,-144"/>
<text text-anchor="middle" x="208" y="-120.4" font-family="Times,serif" font-size="14.00">src</text>
</g>
<!-- result:src/foo.darwin -->
<g id="node9" class="node"><title>result:src/foo.darwin</title>
<polygon fill="#dddddd" stroke="none" points="175,-43 175,-64 241,-64 241,-43 175,-43"/>
<text text-anchor="start" x="177.481" y="-47.9" font-family="Times,serif" font-size="14.00">foo.darwin</text>
<text text-anchor="start" x="194" y="-27" font-family="Times,serif" font-size="14.00">1849</text>
<polygon fill="none" stroke="black" points="174,-22.5 174,-65.5 242,-65.5 242,-22.5 174,-22.5"/>
</g>
<!-- result:src&#45;&gt;result:src/foo.darwin -->
<g id="edge5" class="edge"><title>result:src&#45;&gt;result:src/foo.darwin</title>
<path fill="none" stroke="black" d="M208,-107.641C208,-99.4742 208,-89.4297 208,-79.795"/>
<polygon fill="black" stroke="black" points="211.5,-79.6093 208,-69.6094 204.5,-79.6094 211.5,-79.6093"/>
</g>
</g>
</svg>
