<?xml version="1.0" encoding="UTF-8" standalone="no"?>
<!DOCTYPE svg PUBLIC "-//W3C//DTD SVG 1.1//EN"
 "http://www.w3.org/Graphics/SVG/1.1/DTD/svg11.dtd">
<!-- Generated by graphviz version 2.34.0 (20131231.1455)
 -->
<!-- Title: inherit Pages: 1 -->
<svg width="316pt" height="222pt"
 viewBox="0.00 0.00 316.00 222.00" xmlns="http://www.w3.org/2000/svg" xmlns:xlink="http://www.w3.org/1999/xlink">
<g id="graph0" class="graph" transform="scale(1 1) rotate(0) translate(4 218)">
<title>inherit</title>
<polygon fill="white" stroke="white" points="-4,4 -4,-218 312,-218 312,4 -4,4"/>
<g id="clust1" class="cluster"><title>cluster_0</title>
<polygon fill="none" stroke="red" points="8,-8 8,-148 150,-148 150,-8 8,-8"/>
</g>
<g id="clust2" class="cluster"><title>cluster_1</title>
<polygon fill="none" stroke="blue" points="158,-8 158,-148 300,-148 300,-8 158,-8"/>
</g>
<!-- Before -->
<g id="node1" class="node"><title>Before</title>
<polygon fill="none" stroke="red" points="87.9551,-177 87.9551,-213 142.045,-213 142.045,-177 87.9551,-177"/>
<text text-anchor="middle" x="115" y="-189.4" font-family="Times,serif" font-size="14.00">Before</text>
</g>
<!-- dst -->
<g id="node3" class="node"><title>dst</title>
<polygon fill="none" stroke="black" points="142,-140 139,-144 118,-144 115,-140 88,-140 88,-104 142,-104 142,-140"/>
<text text-anchor="middle" x="115" y="-116.4" font-family="Times,serif" font-size="14.00">dst</text>
</g>
<!-- Before&#45;&gt;dst -->
<g id="edge1" class="edge"><title>Before&#45;&gt;dst</title>
<path fill="none" stroke="black" d="M115,-176.813C115,-168.789 115,-159.047 115,-150.069"/>
<polygon fill="black" stroke="black" points="118.5,-158 115,-148 111.5,-158 118.5,-158"/>
</g>
<!-- After -->
<g id="node2" class="node"><title>After</title>
<polygon fill="none" stroke="blue" points="238,-177 238,-213 292,-213 292,-177 238,-177"/>
<text text-anchor="middle" x="264.769" y="-189.4" font-family="Times,serif" font-size="14.00">After</text>
</g>
<!-- result:dst -->
<g id="node4" class="node"><title>result:dst</title>
<polygon fill="none" stroke="black" points="292,-140 289,-144 268,-144 265,-140 238,-140 238,-104 292,-104 292,-140"/>
<text text-anchor="middle" x="265" y="-116.4" font-family="Times,serif" font-size="14.00">dst</text>
</g>
<!-- After&#45;&gt;result:dst -->
<g id="edge2" class="edge"><title>After&#45;&gt;result:dst</title>
<path fill="none" stroke="black" d="M265,-176.813C265,-168.789 265,-159.047 265,-150.069"/>
<polygon fill="black" stroke="black" points="268.5,-158 265,-148 261.5,-158 268.5,-158"/>
</g>
<!-- src -->
<g id="node5" class="node"><title>src</title>
<polygon fill="none" stroke="black" points="70,-140 67,-144 46,-144 43,-140 16,-140 16,-104 70,-104 70,-140"/>
<text text-anchor="middle" x="43" y="-116.4" font-family="Times,serif" font-size="14.00">src</text>
</g>
<!-- foo.linux -->
<g id="node6" class="node"><title>foo.linux</title>
<polygon fill="#dddddd" stroke="none" points="26,-41 26,-62 81,-62 81,-41 26,-41"/>
<text text-anchor="start" x="28.0293" y="-45.9" font-family="Times,serif" font-size="14.00">foo.linux</text>
<text text-anchor="start" x="39.5" y="-25" font-family="Times,serif" font-size="14.00">1850</text>
<polygon fill="none" stroke="black" points="24.5,-20.5 24.5,-63.5 81.5,-63.5 81.5,-20.5 24.5,-20.5"/>
</g>
<!-- src&#45;&gt;foo.linux -->
<g id="edge3" class="edge"><title>src&#45;&gt;foo.linux</title>
<path fill="none" stroke="black" d="M45.2193,-103.689C46.206,-95.9935 47.4044,-86.6455 48.5622,-77.6152"/>
<polygon fill="black" stroke="black" points="52.0384,-78.0235 49.8385,-67.6596 45.0952,-77.1333 52.0384,-78.0235"/>
</g>
<!-- result:src -->
<g id="node7" class="node"><title>result:src</title>
<polygon fill="none" stroke="black" points="220,-140 217,-144 196,-144 193,-140 166,-140 166,-104 220,-104 220,-140"/>
<text text-anchor="middle" x="193" y="-116.4" font-family="Times,serif" font-size="14.00">src</text>
</g>
<!-- result:src/foo.linux -->
<g id="node8" class="node"><title>result:src/foo.linux</title>
<polygon fill="#dddddd" stroke="none" points="176,-41 176,-62 231,-62 231,-41 176,-41"/>
<text text-anchor="start" x="178.029" y="-45.9" font-family="Times,serif" font-size="14.00">foo.linux</text>
<text text-anchor="start" x="189.5" y="-25" font-family="Times,serif" font-size="14.00">1850</text>
<polygon fill="none" stroke="black" points="174.5,-20.5 174.5,-63.5 231.5,-63.5 231.5,-20.5 174.5,-20.5"/>
</g>
<!-- result:src&#45;&gt;result:src/foo.linux -->
<g id="edge4" class="edge"><title>result:src&#45;&gt;result:src/foo.linux</title>
<path fill="none" stroke="black" d="M195.219,-103.689C196.206,-95.9935 197.404,-86.6455 198.562,-77.6152"/>
<polygon fill="black" stroke="black" points="202.038,-78.0235 199.839,-67.6596 195.095,-77.1333 202.038,-78.0235"/>
</g>
</g>
</svg>
