<?xml version="1.0" encoding="UTF-8" standalone="no"?>
<!DOCTYPE svg PUBLIC "-//W3C//DTD SVG 1.1//EN"
 "http://www.w3.org/Graphics/SVG/1.1/DTD/svg11.dtd">
<!-- Generated by graphviz version 2.34.0 (20131231.1455)
 -->
<!-- Title: inherit Pages: 1 -->
<svg width="637pt" height="226pt"
 viewBox="0.00 0.00 637.00 226.00" xmlns="http://www.w3.org/2000/svg" xmlns:xlink="http://www.w3.org/1999/xlink">
<g id="graph0" class="graph" transform="scale(1 1) rotate(0) translate(4 222)">
<title>inherit</title>
<polygon fill="white" stroke="white" points="-4,4 -4,-222 633,-222 633,4 -4,4"/>
<g id="clust1" class="cluster"><title>cluster_0</title>
<polygon fill="none" stroke="red" points="8,-8 8,-152 276,-152 276,-8 8,-8"/>
</g>
<g id="clust2" class="cluster"><title>cluster_1</title>
<polygon fill="none" stroke="blue" points="284,-8 284,-152 621,-152 621,-8 284,-8"/>
</g>
<!-- Before -->
<g id="node1" class="node"><title>Before</title>
<polygon fill="none" stroke="red" points="195.955,-181 195.955,-217 250.045,-217 250.045,-181 195.955,-181"/>
<text text-anchor="middle" x="223" y="-193.4" font-family="Times,serif" font-size="14.00">Before</text>
</g>
<!-- dst -->
<g id="node3" class="node"><title>dst</title>
<polygon fill="none" stroke="black" points="250,-144 247,-148 226,-148 223,-144 196,-144 196,-108 250,-108 250,-144"/>
<text text-anchor="middle" x="223" y="-120.4" font-family="Times,serif" font-size="14.00">dst</text>
</g>
<!-- Before&#45;&gt;dst -->
<g id="edge1" class="edge"><title>Before&#45;&gt;dst</title>
<path fill="none" stroke="black" d="M223,-180.813C223,-172.789 223,-163.047 223,-154.069"/>
<polygon fill="black" stroke="black" points="226.5,-162 223,-152 219.5,-162 226.5,-162"/>
</g>
<!-- After -->
<g id="node2" class="node"><title>After</title>
<polygon fill="none" stroke="blue" points="558,-181 558,-217 612,-217 612,-181 558,-181"/>
<text text-anchor="middle" x="584.769" y="-193.4" font-family="Times,serif" font-size="14.00">After</text>
</g>
<!-- result:dst -->
<g id="node4" class="node"><title>result:dst</title>
<polygon fill="none" stroke="black" points="612,-144 609,-148 588,-148 585,-144 558,-144 558,-108 612,-108 612,-144"/>
<text text-anchor="middle" x="585" y="-120.4" font-family="Times,serif" font-size="14.00">dst</text>
</g>
<!-- After&#45;&gt;result:dst -->
<g id="edge2" class="edge"><title>After&#45;&gt;result:dst</title>
<path fill="none" stroke="black" d="M585,-180.813C585,-172.789 585,-163.047 585,-154.069"/>
<polygon fill="black" stroke="black" points="588.5,-162 585,-152 581.5,-162 588.5,-162"/>
</g>
<!-- result:dst/foo -->
<g id="node9" class="node"><title>result:dst/foo</title>
<polygon fill="#dddddd" stroke="none" points="569,-43 569,-64 602,-64 602,-43 569,-43"/>
<text text-anchor="start" x="576.169" y="-47.9" font-family="Times,serif" font-size="14.00">foo</text>
<text text-anchor="start" x="571.5" y="-27" font-family="Times,serif" font-size="14.00">1849</text>
<polygon fill="none" stroke="black" stroke-width="3" points="567,-22 567,-66 603,-66 603,-22 567,-22"/>
</g>
<!-- result:dst&#45;&gt;result:dst/foo -->
<g id="edge6" class="edge"><title>result:dst&#45;&gt;result:dst/foo</title>
<path fill="none" stroke="black" d="M585,-107.641C585,-100.11 585,-90.9832 585,-82.0529"/>
<polygon fill="black" stroke="black" points="588.5,-81.7674 585,-71.7675 581.5,-81.7675 588.5,-81.7674"/>
</g>
<!-- src -->
<g id="node5" class="node"><title>src</title>
<polygon fill="none" stroke="black" points="159,-144 156,-148 135,-148 132,-144 105,-144 105,-108 159,-108 159,-144"/>
<text text-anchor="middle" x="132" y="-120.4" font-family="Times,serif" font-size="14.00">src</text>
</g>
<!-- foo -->
<g id="node6" class="node"><title>foo</title>
<polygon fill="#dddddd" stroke="none" points="27,-43 27,-64 60,-64 60,-43 27,-43"/>
<text text-anchor="start" x="34.1689" y="-47.9" font-family="Times,serif" font-size="14.00">foo</text>
<text text-anchor="start" x="29.5" y="-27" font-family="Times,serif" font-size="14.00">1848</text>
<polygon fill="none" stroke="black" points="25.5,-22.5 25.5,-65.5 60.5,-65.5 60.5,-22.5 25.5,-22.5"/>
</g>
<!-- src&#45;&gt;foo -->
<g id="edge3" class="edge"><title>src&#45;&gt;foo</title>
<path fill="none" stroke="black" d="M112.688,-107.641C102.455,-98.4431 89.5731,-86.8634 77.6766,-76.1699"/>
<polygon fill="black" stroke="black" points="79.8158,-73.3867 70.039,-69.3047 75.1363,-78.5927 79.8158,-73.3867"/>
</g>
<!-- foo.darwin -->
<g id="node7" class="node"><title>foo.darwin</title>
<polygon fill="#dddddd" stroke="none" points="99,-43 99,-64 165,-64 165,-43 99,-43"/>
<text text-anchor="start" x="101.481" y="-47.9" font-family="Times,serif" font-size="14.00">foo.darwin</text>
<text text-anchor="start" x="118" y="-27" font-family="Times,serif" font-size="14.00">1849</text>
<polygon fill="none" stroke="black" stroke-width="3" points="97.5,-22 97.5,-66 166.5,-66 166.5,-22 97.5,-22"/>
</g>
<!-- src&#45;&gt;foo.darwin -->
<g id="edge4" class="edge"><title>src&#45;&gt;foo.darwin</title>
<path fill="none" stroke="black" d="M132,-107.641C132,-100.11 132,-90.9832 132,-82.0529"/>
<polygon fill="black" stroke="black" points="135.5,-81.7674 132,-71.7675 128.5,-81.7675 135.5,-81.7674"/>
</g>
<!-- foo.linux -->
<g id="node8" class="node"><title>foo.linux</title>
<polygon fill="#dddddd" stroke="none" points="204,-43 204,-64 259,-64 259,-43 204,-43"/>
<text text-anchor="start" x="206.029" y="-47.9" font-family="Times,serif" font-size="14.00">foo.linux</text>
<text text-anchor="start" x="217.5" y="-27" font-family="Times,serif" font-size="14.00">1850</text>
<polygon fill="none" stroke="black" points="202.5,-22.5 202.5,-65.5 259.5,-65.5 259.5,-22.5 202.5,-22.5"/>
</g>
<!-- src&#45;&gt;foo.linux -->
<g id="edge5" class="edge"><title>src&#45;&gt;foo.linux</title>
<path fill="none" stroke="black" d="M153.482,-107.641C164.878,-98.4316 179.23,-86.8345 192.477,-76.1299"/>
<polygon fill="black" stroke="black" points="194.968,-78.6169 200.546,-69.6094 190.568,-73.1723 194.968,-78.6169"/>
</g>
<!-- result:src -->
<g id="node10" class="node"><title>result:src</title>
<polygon fill="none" stroke="black" points="433,-144 430,-148 409,-148 406,-144 379,-144 379,-108 433,-108 433,-144"/>
<text text-anchor="middle" x="406" y="-120.4" font-family="Times,serif" font-size="14.00">src</text>
</g>
<!-- result:src/foo -->
<g id="node11" class="node"><title>result:src/foo</title>
<polygon fill="#dddddd" stroke="none" points="303,-43 303,-64 336,-64 336,-43 303,-43"/>
<text text-anchor="start" x="310.169" y="-47.9" font-family="Times,serif" font-size="14.00">foo</text>
<text text-anchor="start" x="305.5" y="-27" font-family="Times,serif" font-size="14.00">1848</text>
<polygon fill="none" stroke="black" points="301.5,-22.5 301.5,-65.5 336.5,-65.5 336.5,-22.5 301.5,-22.5"/>
</g>
<!-- result:src&#45;&gt;result:src/foo -->
<g id="edge7" class="edge"><title>result:src&#45;&gt;result:src/foo</title>
<path fill="none" stroke="black" d="M387.122,-107.641C377.201,-98.5185 364.733,-87.0531 353.183,-76.4331"/>
<polygon fill="black" stroke="black" points="355.493,-73.8018 345.763,-69.6094 350.755,-78.9545 355.493,-73.8018"/>
</g>
<!-- result:src/foo.darwin -->
<g id="node12" class="node"><title>result:src/foo.darwin</title>
<polygon fill="#dddddd" stroke="none" points="373,-43 373,-64 439,-64 439,-43 373,-43"/>
<text text-anchor="start" x="375.481" y="-47.9" font-family="Times,serif" font-size="14.00">foo.darwin</text>
<text text-anchor="start" x="392" y="-27" font-family="Times,serif" font-size="14.00">1849</text>
<polygon fill="none" stroke="black" points="372,-22.5 372,-65.5 440,-65.5 440,-22.5 372,-22.5"/>
</g>
<!-- result:src&#45;&gt;result:src/foo.darwin -->
<g id="edge8" class="edge"><title>result:src&#45;&gt;result:src/foo.darwin</title>
<path fill="none" stroke="black" d="M406,-107.641C406,-99.4742 406,-89.4297 406,-79.795"/>
<polygon fill="black" stroke="black" points="409.5,-79.6093 406,-69.6094 402.5,-79.6094 409.5,-79.6093"/>
</g>
<!-- result:src/foo.linux -->
<g id="node13" class="node"><title>result:src/foo.linux</title>
<polygon fill="#dddddd" stroke="none" points="476,-43 476,-64 531,-64 531,-43 476,-43"/>
<text text-anchor="start" x="478.029" y="-47.9" font-family="Times,serif" font-size="14.00">foo.linux</text>
<text text-anchor="start" x="489.5" y="-27" font-family="Times,serif" font-size="14.00">1850</text>
<polygon fill="none" stroke="black" points="474.5,-22.5 474.5,-65.5 531.5,-65.5 531.5,-22.5 474.5,-22.5"/>
</g>
<!-- result:src&#45;&gt;result:src/foo.linux -->
<g id="edge9" class="edge"><title>result:src&#45;&gt;result:src/foo.linux</title>
<path fill="none" stroke="black" d="M427.048,-107.641C438.214,-98.4316 452.276,-86.8345 465.255,-76.1299"/>
<polygon fill="black" stroke="black" points="467.673,-78.6722 473.161,-69.6094 463.219,-73.2719 467.673,-78.6722"/>
</g>
</g>
</svg>
