<?xml version="1.0" encoding="UTF-8" standalone="no"?>
<!DOCTYPE svg PUBLIC "-//W3C//DTD SVG 1.1//EN"
 "http://www.w3.org/Graphics/SVG/1.1/DTD/svg11.dtd">
<!-- Generated by graphviz version 2.34.0 (20131231.1455)
 -->
<!-- Title: inherit Pages: 1 -->
<svg width="600pt" height="352pt"
 viewBox="0.00 0.00 600.00 352.00" xmlns="http://www.w3.org/2000/svg" xmlns:xlink="http://www.w3.org/1999/xlink">
<g id="graph0" class="graph" transform="scale(1 1) rotate(0) translate(4 348)">
<title>inherit</title>
<polygon fill="white" stroke="white" points="-4,4 -4,-348 596,-348 596,4 -4,4"/>
<g id="clust3" class="cluster"><title>cluster_0</title>
<polygon fill="none" stroke="gray" points="243,-8 243,-336 584,-336 584,-8 243,-8"/>
</g>
<!-- settings -->
<g id="node1" class="node"><title>settings</title>
<polygon fill="none" stroke="red" points="87.6104,-200 87.6104,-236 146.39,-236 146.39,-200 87.6104,-200"/>
<text text-anchor="middle" x="117" y="-212.4" font-family="Times,serif" font-size="14.00">settings</text>
</g>
<!-- stashes.Noobie.build -->
<g id="node2" class="node"><title>stashes.Noobie.build</title>
<polygon fill="none" stroke="blue" points="-0.658691,-108 -0.658691,-144 234.659,-144 234.659,-108 -0.658691,-108"/>
<text text-anchor="middle" x="117" y="-120.4" font-family="Times,serif" font-size="14.00">stashes/Foobie/.bootstrap/Noobie.build</text>
</g>
<!-- settings&#45;&gt;stashes.Noobie.build -->
<g id="edge2" class="edge"><title>settings&#45;&gt;stashes.Noobie.build</title>
<path fill="none" stroke="black" d="M117,-189.557C117,-174.823 117,-157.11 117,-144.3"/>
<polygon fill="black" stroke="black" points="113.5,-189.647 117,-199.647 120.5,-189.647 113.5,-189.647"/>
<text text-anchor="middle" x="144.022" y="-166.4" font-family="Times,serif" font-size="14.00"> 2. inherit</text>
</g>
<!-- overrides -->
<g id="node4" class="node"><title>overrides</title>
<polygon fill="none" stroke="goldenrod" points="82.9551,-16 82.9551,-52 151.045,-52 151.045,-16 82.9551,-16"/>
<text text-anchor="middle" x="117" y="-28.4" font-family="Times,serif" font-size="14.00">overrides</text>
</g>
<!-- stashes.Noobie.build&#45;&gt;overrides -->
<g id="edge3" class="edge"><title>stashes.Noobie.build&#45;&gt;overrides</title>
<path fill="none" stroke="black" d="M117,-97.5573C117,-82.823 117,-65.1103 117,-52.2996"/>
<polygon fill="black" stroke="black" points="113.5,-97.6471 117,-107.647 120.5,-97.6471 113.5,-97.6471"/>
<text text-anchor="middle" x="149.071" y="-74.4" font-family="Times,serif" font-size="14.00"> 3. override</text>
</g>
<!-- Noobie.build -->
<g id="node3" class="node"><title>Noobie.build</title>
<polygon fill="none" stroke="green" points="72.2534,-292 72.2534,-328 161.747,-328 161.747,-292 72.2534,-292"/>
<text text-anchor="middle" x="117" y="-304.4" font-family="Times,serif" font-size="14.00">Noobie.build</text>
</g>
<!-- Noobie.build&#45;&gt;settings -->
<g id="edge1" class="edge"><title>Noobie.build&#45;&gt;settings</title>
<path fill="none" stroke="black" d="M117,-281.557C117,-266.823 117,-249.11 117,-236.3"/>
<polygon fill="black" stroke="black" points="113.5,-281.647 117,-291.647 120.5,-281.647 113.5,-281.647"/>
<text text-anchor="middle" x="144.022" y="-258.4" font-family="Times,serif" font-size="14.00"> 1. inherit</text>
</g>
<!-- FS:.bootstrap.auto -->
<g id="node5" class="node"><title>FS:.bootstrap.auto</title>
<polygon fill="none" stroke="black" points="483.405,-328 480.405,-332 459.405,-332 456.405,-328 384.595,-328 384.595,-292 483.405,-292 483.405,-328"/>
<text text-anchor="middle" x="434" y="-304.4" font-family="Times,serif" font-size="14.00" fill="gray">.bootstrap.auto</text>
</g>
<!-- FS:.bootstrap.auto/settings -->
<g id="node6" class="node"><title>FS:.bootstrap.auto/settings</title>
<polygon fill="none" stroke="black" points="382.086,-236 379.086,-240 358.086,-240 355.086,-236 323.914,-236 323.914,-200 382.086,-200 382.086,-236"/>
<text text-anchor="middle" x="353" y="-212.4" font-family="Times,serif" font-size="14.00" fill="red">settings</text>
</g>
<!-- FS:.bootstrap.auto&#45;&gt;FS:.bootstrap.auto/settings -->
<g id="edge4" class="edge"><title>FS:.bootstrap.auto&#45;&gt;FS:.bootstrap.auto/settings</title>
<path fill="none" stroke="gray" d="M418.382,-291.647C406.168,-278.076 389.024,-259.027 375.356,-243.84"/>
<polygon fill="gray" stroke="gray" points="377.861,-241.391 368.57,-236.3 372.658,-246.074 377.861,-241.391"/>
</g>
<!-- FS:.bootstrap.auto/overrides -->
<g id="node7" class="node"><title>FS:.bootstrap.auto/overrides</title>
<polygon fill="none" stroke="black" points="468.067,-236 465.067,-240 444.067,-240 441.067,-236 399.933,-236 399.933,-200 468.067,-200 468.067,-236"/>
<text text-anchor="middle" x="434" y="-212.4" font-family="Times,serif" font-size="14.00" fill="goldenrod">overrides</text>
</g>
<!-- FS:.bootstrap.auto&#45;&gt;FS:.bootstrap.auto/overrides -->
<g id="edge5" class="edge"><title>FS:.bootstrap.auto&#45;&gt;FS:.bootstrap.auto/overrides</title>
<path fill="none" stroke="gray" d="M434,-291.647C434,-278.823 434,-261.108 434,-246.381"/>
<polygon fill="gray" stroke="gray" points="437.5,-246.3 434,-236.3 430.5,-246.3 437.5,-246.3"/>
</g>
<!-- FS:.bootstrap.auto/Noobie.build -->
<g id="node8" class="node"><title>FS:.bootstrap.auto/Noobie.build</title>
<polygon fill="none" stroke="black" points="575.619,-236 572.619,-240 551.619,-240 548.619,-236 486.381,-236 486.381,-200 575.619,-200 575.619,-236"/>
<text text-anchor="middle" x="531" y="-212.4" font-family="Times,serif" font-size="14.00" fill="green">Noobie.build</text>
</g>
<!-- FS:.bootstrap.auto&#45;&gt;FS:.bootstrap.auto/Noobie.build -->
<g id="edge6" class="edge"><title>FS:.bootstrap.auto&#45;&gt;FS:.bootstrap.auto/Noobie.build</title>
<path fill="none" stroke="gray" d="M452.703,-291.647C467.464,-277.951 488.237,-258.677 504.677,-243.423"/>
<polygon fill="gray" stroke="gray" points="507.405,-245.667 512.355,-236.3 502.644,-240.536 507.405,-245.667"/>
</g>
<!-- FS:stashes -->
<g id="node9" class="node"><title>FS:stashes</title>
<polygon fill="none" stroke="black" points="306.25,-328 303.25,-332 282.25,-332 279.25,-328 251.75,-328 251.75,-292 306.25,-292 306.25,-328"/>
<text text-anchor="middle" x="279" y="-304.4" font-family="Times,serif" font-size="14.00" fill="gray">stashes</text>
</g>
<!-- FS:stashes/Foobie -->
<g id="node10" class="node"><title>FS:stashes/Foobie</title>
<polygon fill="none" stroke="black" points="305.168,-236 302.168,-240 281.168,-240 278.168,-236 250.832,-236 250.832,-200 305.168,-200 305.168,-236"/>
<text text-anchor="middle" x="278" y="-212.4" font-family="Times,serif" font-size="14.00" fill="gray">Foobie</text>
</g>
<!-- FS:stashes&#45;&gt;FS:stashes/Foobie -->
<g id="edge7" class="edge"><title>FS:stashes&#45;&gt;FS:stashes/Foobie</title>
<path fill="none" stroke="gray" d="M278.807,-291.647C278.665,-278.823 278.468,-261.108 278.304,-246.381"/>
<polygon fill="gray" stroke="gray" points="281.803,-246.26 278.192,-236.3 274.804,-246.338 281.803,-246.26"/>
</g>
<!-- FS:stashes/Foobie/.bootstrap -->
<g id="node11" class="node"><title>FS:stashes/Foobie/.bootstrap</title>
<polygon fill="none" stroke="black" points="325.206,-144 322.206,-148 301.206,-148 298.206,-144 254.794,-144 254.794,-108 325.206,-108 325.206,-144"/>
<text text-anchor="middle" x="290" y="-120.4" font-family="Times,serif" font-size="14.00" fill="gray">.bootstrap</text>
</g>
<!-- FS:stashes/Foobie&#45;&gt;FS:stashes/Foobie/.bootstrap -->
<g id="edge8" class="edge"><title>FS:stashes/Foobie&#45;&gt;FS:stashes/Foobie/.bootstrap</title>
<path fill="none" stroke="gray" d="M280.314,-199.647C282.024,-186.823 284.386,-169.108 286.349,-154.381"/>
<polygon fill="gray" stroke="gray" points="289.841,-154.675 287.693,-144.3 282.902,-153.749 289.841,-154.675"/>
</g>
<!-- FS:stashes/Foobie/.bootstrap/Noobie.build -->
<g id="node12" class="node"><title>FS:stashes/Foobie/.bootstrap/Noobie.build</title>
<polygon fill="none" stroke="black" points="340.619,-52 337.619,-56 316.619,-56 313.619,-52 251.381,-52 251.381,-16 340.619,-16 340.619,-52"/>
<text text-anchor="middle" x="296" y="-28.4" font-family="Times,serif" font-size="14.00" fill="blue">Noobie.build</text>
</g>
<!-- FS:stashes/Foobie/.bootstrap&#45;&gt;FS:stashes/Foobie/.bootstrap/Noobie.build -->
<g id="edge9" class="edge"><title>FS:stashes/Foobie/.bootstrap&#45;&gt;FS:stashes/Foobie/.bootstrap/Noobie.build</title>
<path fill="none" stroke="gray" d="M291.157,-107.647C292.012,-94.8228 293.193,-77.1075 294.175,-62.3815"/>
<polygon fill="gray" stroke="gray" points="297.674,-62.5103 294.847,-52.2996 290.689,-62.0446 297.674,-62.5103"/>
</g>
</g>
</svg>
