<?xml version="1.0" encoding="UTF-8" standalone="no"?>
<!DOCTYPE svg PUBLIC "-//W3C//DTD SVG 1.1//EN"
 "http://www.w3.org/Graphics/SVG/1.1/DTD/svg11.dtd">
<!-- Generated by graphviz version 2.34.0 (20131231.1455)
 -->
<!-- Title: inherit Pages: 1 -->
<svg width="752pt" height="521pt"
 viewBox="0.00 0.00 752.00 521.00" xmlns="http://www.w3.org/2000/svg" xmlns:xlink="http://www.w3.org/1999/xlink">
<g id="graph0" class="graph" transform="scale(1 1) rotate(0) translate(4 517)">
<title>inherit</title>
<polygon fill="white" stroke="white" points="-4,4 -4,-517 748,-517 748,4 -4,4"/>
<g id="clust3" class="cluster"><title>cluster_0</title>
<polygon fill="none" stroke="gray" points="247,-177 247,-505 736,-505 736,-177 247,-177"/>
</g>
<!-- settings -->
<g id="node1" class="node"><title>settings</title>
<polygon fill="none" stroke="red" points="88.6104,-369 88.6104,-405 147.39,-405 147.39,-369 88.6104,-369"/>
<text text-anchor="middle" x="118" y="-381.4" font-family="Times,serif" font-size="14.00">settings</text>
</g>
<!-- stashes.Foobie/Noobie.build -->
<g id="node3" class="node"><title>stashes.Foobie/Noobie.build</title>
<polygon fill="none" stroke="blue" points="0.341309,-277 0.341309,-313 235.659,-313 235.659,-277 0.341309,-277"/>
<text text-anchor="middle" x="118" y="-289.4" font-family="Times,serif" font-size="14.00">stashes/Foobie/.bootstrap/Noobie.build</text>
</g>
<!-- settings&#45;&gt;stashes.Foobie/Noobie.build -->
<g id="edge2" class="edge"><title>settings&#45;&gt;stashes.Foobie/Noobie.build</title>
<path fill="none" stroke="black" d="M118,-358.557C118,-343.823 118,-326.11 118,-313.3"/>
<polygon fill="black" stroke="black" points="114.5,-358.647 118,-368.647 121.5,-358.647 114.5,-358.647"/>
<text text-anchor="middle" x="145.022" y="-335.4" font-family="Times,serif" font-size="14.00"> 2. inherit</text>
</g>
<!-- Noobie.build -->
<g id="node2" class="node"><title>Noobie.build</title>
<polygon fill="none" stroke="green" points="73.2534,-461 73.2534,-497 162.747,-497 162.747,-461 73.2534,-461"/>
<text text-anchor="middle" x="118" y="-473.4" font-family="Times,serif" font-size="14.00">Noobie.build</text>
</g>
<!-- Noobie.build&#45;&gt;settings -->
<g id="edge1" class="edge"><title>Noobie.build&#45;&gt;settings</title>
<path fill="none" stroke="black" d="M118,-450.557C118,-435.823 118,-418.11 118,-405.3"/>
<polygon fill="black" stroke="black" points="114.5,-450.647 118,-460.647 121.5,-450.647 114.5,-450.647"/>
<text text-anchor="middle" x="145.022" y="-427.4" font-family="Times,serif" font-size="14.00"> 1. inherit</text>
</g>
<!-- stashes.Noobie/Noobie.build -->
<g id="node4" class="node"><title>stashes.Noobie/Noobie.build</title>
<polygon fill="none" stroke="purple" points="-0.820801,-185 -0.820801,-221 236.821,-221 236.821,-185 -0.820801,-185"/>
<text text-anchor="middle" x="118" y="-197.4" font-family="Times,serif" font-size="14.00">stashes/Noobie/.bootstrap/Noobie.build</text>
</g>
<!-- stashes.Foobie/Noobie.build&#45;&gt;stashes.Noobie/Noobie.build -->
<g id="edge3" class="edge"><title>stashes.Foobie/Noobie.build&#45;&gt;stashes.Noobie/Noobie.build</title>
<path fill="none" stroke="black" d="M118,-266.557C118,-251.823 118,-234.11 118,-221.3"/>
<polygon fill="black" stroke="black" points="114.5,-266.647 118,-276.647 121.5,-266.647 114.5,-266.647"/>
<text text-anchor="middle" x="145.022" y="-243.4" font-family="Times,serif" font-size="14.00"> 3. inherit</text>
</g>
<!-- stashes.Toobie/Noobie.build -->
<g id="node5" class="node"><title>stashes.Toobie/Noobie.build</title>
<polygon fill="none" stroke="gray" points="0.447266,-93 0.447266,-129 235.553,-129 235.553,-93 0.447266,-93"/>
<text text-anchor="middle" x="118" y="-105.4" font-family="Times,serif" font-size="14.00" fill="gray">stashes/Toobie/.bootstrap/Noobie.build</text>
</g>
<!-- stashes.Noobie/Noobie.build&#45;&gt;stashes.Toobie/Noobie.build -->
<g id="edge4" class="edge"><title>stashes.Noobie/Noobie.build&#45;&gt;stashes.Toobie/Noobie.build</title>
<path fill="none" stroke="gray" d="M118,-174.557C118,-159.823 118,-142.11 118,-129.3"/>
<polygon fill="gray" stroke="gray" points="114.5,-174.647 118,-184.647 121.5,-174.647 114.5,-174.647"/>
<text text-anchor="middle" x="148.133" y="-151.4" font-family="Times,serif" font-size="14.00" fill="gray"> 4. ignored</text>
</g>
<!-- overrides -->
<g id="node6" class="node"><title>overrides</title>
<polygon fill="none" stroke="goldenrod" points="83.9551,-1 83.9551,-37 152.045,-37 152.045,-1 83.9551,-1"/>
<text text-anchor="middle" x="118" y="-13.4" font-family="Times,serif" font-size="14.00">overrides</text>
</g>
<!-- stashes.Toobie/Noobie.build&#45;&gt;overrides -->
<g id="edge5" class="edge"><title>stashes.Toobie/Noobie.build&#45;&gt;overrides</title>
<path fill="none" stroke="black" d="M118,-82.5573C118,-67.823 118,-50.1103 118,-37.2996"/>
<polygon fill="black" stroke="black" points="114.5,-82.6471 118,-92.6471 121.5,-82.6471 114.5,-82.6471"/>
<text text-anchor="middle" x="150.071" y="-59.4" font-family="Times,serif" font-size="14.00"> 5. override</text>
</g>
<!-- FS:.bootstrap.auto -->
<g id="node7" class="node"><title>FS:.bootstrap.auto</title>
<polygon fill="none" stroke="black" points="635.405,-497 632.405,-501 611.405,-501 608.405,-497 536.595,-497 536.595,-461 635.405,-461 635.405,-497"/>
<text text-anchor="middle" x="586" y="-473.4" font-family="Times,serif" font-size="14.00" fill="gray">.bootstrap.auto</text>
</g>
<!-- FS:.bootstrap.auto/settings -->
<g id="node8" class="node"><title>FS:.bootstrap.auto/settings</title>
<polygon fill="none" stroke="black" points="534.086,-405 531.086,-409 510.086,-409 507.086,-405 475.914,-405 475.914,-369 534.086,-369 534.086,-405"/>
<text text-anchor="middle" x="505" y="-381.4" font-family="Times,serif" font-size="14.00" fill="red">settings</text>
</g>
<!-- FS:.bootstrap.auto&#45;&gt;FS:.bootstrap.auto/settings -->
<g id="edge6" class="edge"><title>FS:.bootstrap.auto&#45;&gt;FS:.bootstrap.auto/settings</title>
<path fill="none" stroke="gray" d="M570.382,-460.647C558.168,-447.076 541.024,-428.027 527.356,-412.84"/>
<polygon fill="gray" stroke="gray" points="529.861,-410.391 520.57,-405.3 524.658,-415.074 529.861,-410.391"/>
</g>
<!-- FS:.bootstrap.auto/overrides -->
<g id="node9" class="node"><title>FS:.bootstrap.auto/overrides</title>
<polygon fill="none" stroke="black" points="620.067,-405 617.067,-409 596.067,-409 593.067,-405 551.933,-405 551.933,-369 620.067,-369 620.067,-405"/>
<text text-anchor="middle" x="586" y="-381.4" font-family="Times,serif" font-size="14.00" fill="goldenrod">overrides</text>
</g>
<!-- FS:.bootstrap.auto&#45;&gt;FS:.bootstrap.auto/overrides -->
<g id="edge7" class="edge"><title>FS:.bootstrap.auto&#45;&gt;FS:.bootstrap.auto/overrides</title>
<path fill="none" stroke="gray" d="M586,-460.647C586,-447.823 586,-430.108 586,-415.381"/>
<polygon fill="gray" stroke="gray" points="589.5,-415.3 586,-405.3 582.5,-415.3 589.5,-415.3"/>
</g>
<!-- FS:.bootstrap.auto/Noobie.build -->
<g id="node10" class="node"><title>FS:.bootstrap.auto/Noobie.build</title>
<polygon fill="none" stroke="black" points="727.619,-405 724.619,-409 703.619,-409 700.619,-405 638.381,-405 638.381,-369 727.619,-369 727.619,-405"/>
<text text-anchor="middle" x="683" y="-381.4" font-family="Times,serif" font-size="14.00" fill="green">Noobie.build</text>
</g>
<!-- FS:.bootstrap.auto&#45;&gt;FS:.bootstrap.auto/Noobie.build -->
<g id="edge8" class="edge"><title>FS:.bootstrap.auto&#45;&gt;FS:.bootstrap.auto/Noobie.build</title>
<path fill="none" stroke="gray" d="M604.703,-460.647C619.464,-446.951 640.237,-427.677 656.677,-412.423"/>
<polygon fill="gray" stroke="gray" points="659.405,-414.667 664.355,-405.3 654.644,-409.536 659.405,-414.667"/>
</g>
<!-- FS:stashes -->
<g id="node11" class="node"><title>FS:stashes</title>
<polygon fill="none" stroke="black" points="383.25,-497 380.25,-501 359.25,-501 356.25,-497 328.75,-497 328.75,-461 383.25,-461 383.25,-497"/>
<text text-anchor="middle" x="356" y="-473.4" font-family="Times,serif" font-size="14.00" fill="gray">stashes</text>
</g>
<!-- FS:stashes/Foobie -->
<g id="node12" class="node"><title>FS:stashes/Foobie</title>
<polygon fill="none" stroke="black" points="309.168,-405 306.168,-409 285.168,-409 282.168,-405 254.832,-405 254.832,-369 309.168,-369 309.168,-405"/>
<text text-anchor="middle" x="282" y="-381.4" font-family="Times,serif" font-size="14.00" fill="gray">Foobie</text>
</g>
<!-- FS:stashes&#45;&gt;FS:stashes/Foobie -->
<g id="edge9" class="edge"><title>FS:stashes&#45;&gt;FS:stashes/Foobie</title>
<path fill="none" stroke="gray" d="M341.732,-460.647C330.676,-447.2 315.198,-428.376 302.768,-413.259"/>
<polygon fill="gray" stroke="gray" points="305.279,-410.801 296.224,-405.3 299.872,-415.247 305.279,-410.801"/>
</g>
<!-- FS:stashes/Noobie -->
<g id="node15" class="node"><title>FS:stashes/Noobie</title>
<polygon fill="none" stroke="black" points="384.41,-405 381.41,-409 360.41,-409 357.41,-405 327.59,-405 327.59,-369 384.41,-369 384.41,-405"/>
<text text-anchor="middle" x="356" y="-381.4" font-family="Times,serif" font-size="14.00" fill="gray">Noobie</text>
</g>
<!-- FS:stashes&#45;&gt;FS:stashes/Noobie -->
<g id="edge12" class="edge"><title>FS:stashes&#45;&gt;FS:stashes/Noobie</title>
<path fill="none" stroke="gray" d="M356,-460.647C356,-447.823 356,-430.108 356,-415.381"/>
<polygon fill="gray" stroke="gray" points="359.5,-415.3 356,-405.3 352.5,-415.3 359.5,-415.3"/>
</g>
<!-- FS:stashes/Toobie -->
<g id="node18" class="node"><title>FS:stashes/Toobie</title>
<polygon fill="none" stroke="black" points="457.01,-405 454.01,-409 433.01,-409 430.01,-405 402.99,-405 402.99,-369 457.01,-369 457.01,-405"/>
<text text-anchor="middle" x="430" y="-381.4" font-family="Times,serif" font-size="14.00" fill="gray">Toobie</text>
</g>
<!-- FS:stashes&#45;&gt;FS:stashes/Toobie -->
<g id="edge15" class="edge"><title>FS:stashes&#45;&gt;FS:stashes/Toobie</title>
<path fill="none" stroke="gray" d="M370.268,-460.647C381.324,-447.2 396.802,-428.376 409.232,-413.259"/>
<polygon fill="gray" stroke="gray" points="412.128,-415.247 415.776,-405.3 406.721,-410.801 412.128,-415.247"/>
</g>
<!-- FS:stashes/Foobie/.bootstrap -->
<g id="node13" class="node"><title>FS:stashes/Foobie/.bootstrap</title>
<polygon fill="none" stroke="black" points="330.206,-313 327.206,-317 306.206,-317 303.206,-313 259.794,-313 259.794,-277 330.206,-277 330.206,-313"/>
<text text-anchor="middle" x="295" y="-289.4" font-family="Times,serif" font-size="14.00" fill="gray">.bootstrap</text>
</g>
<!-- FS:stashes/Foobie&#45;&gt;FS:stashes/Foobie/.bootstrap -->
<g id="edge10" class="edge"><title>FS:stashes/Foobie&#45;&gt;FS:stashes/Foobie/.bootstrap</title>
<path fill="none" stroke="gray" d="M284.507,-368.647C286.359,-355.823 288.918,-338.108 291.045,-323.381"/>
<polygon fill="gray" stroke="gray" points="294.536,-323.697 292.501,-313.3 287.607,-322.697 294.536,-323.697"/>
</g>
<!-- FS:stashes/Foobie/.bootstrap/Noobie.build -->
<g id="node14" class="node"><title>FS:stashes/Foobie/.bootstrap/Noobie.build</title>
<polygon fill="none" stroke="black" points="344.619,-221 341.619,-225 320.619,-225 317.619,-221 255.381,-221 255.381,-185 344.619,-185 344.619,-221"/>
<text text-anchor="middle" x="300" y="-197.4" font-family="Times,serif" font-size="14.00" fill="blue">Noobie.build</text>
</g>
<!-- FS:stashes/Foobie/.bootstrap&#45;&gt;FS:stashes/Foobie/.bootstrap/Noobie.build -->
<g id="edge11" class="edge"><title>FS:stashes/Foobie/.bootstrap&#45;&gt;FS:stashes/Foobie/.bootstrap/Noobie.build</title>
<path fill="none" stroke="gray" d="M295.964,-276.647C296.677,-263.823 297.661,-246.108 298.479,-231.381"/>
<polygon fill="gray" stroke="gray" points="301.979,-231.478 299.039,-221.3 294.99,-231.09 301.979,-231.478"/>
</g>
<!-- FS:stashes/Noobie/.bootstrap -->
<g id="node16" class="node"><title>FS:stashes/Noobie/.bootstrap</title>
<polygon fill="none" stroke="black" points="431.206,-313 428.206,-317 407.206,-317 404.206,-313 360.794,-313 360.794,-277 431.206,-277 431.206,-313"/>
<text text-anchor="middle" x="396" y="-289.4" font-family="Times,serif" font-size="14.00" fill="gray">.bootstrap</text>
</g>
<!-- FS:stashes/Noobie&#45;&gt;FS:stashes/Noobie/.bootstrap -->
<g id="edge13" class="edge"><title>FS:stashes/Noobie&#45;&gt;FS:stashes/Noobie/.bootstrap</title>
<path fill="none" stroke="gray" d="M363.712,-368.647C369.523,-355.574 377.592,-337.418 384.21,-322.527"/>
<polygon fill="gray" stroke="gray" points="387.448,-323.859 388.311,-313.3 381.051,-321.016 387.448,-323.859"/>
</g>
<!-- FS:stashes/Noobie/.bootstrap/Noobie.build -->
<g id="node17" class="node"><title>FS:stashes/Noobie/.bootstrap/Noobie.build</title>
<polygon fill="none" stroke="black" points="451.619,-221 448.619,-225 427.619,-225 424.619,-221 362.381,-221 362.381,-185 451.619,-185 451.619,-221"/>
<text text-anchor="middle" x="407" y="-197.4" font-family="Times,serif" font-size="14.00" fill="purple">Noobie.build</text>
</g>
<!-- FS:stashes/Noobie/.bootstrap&#45;&gt;FS:stashes/Noobie/.bootstrap/Noobie.build -->
<g id="edge14" class="edge"><title>FS:stashes/Noobie/.bootstrap&#45;&gt;FS:stashes/Noobie/.bootstrap/Noobie.build</title>
<path fill="none" stroke="gray" d="M398.121,-276.647C399.688,-263.823 401.854,-246.108 403.653,-231.381"/>
<polygon fill="gray" stroke="gray" points="407.146,-231.65 404.886,-221.3 400.198,-230.801 407.146,-231.65"/>
</g>
<!-- FS:stashes/Toobie/.bootstrap -->
<g id="node19" class="node"><title>FS:stashes/Toobie/.bootstrap</title>
<polygon fill="none" stroke="black" points="534.206,-313 531.206,-317 510.206,-317 507.206,-313 463.794,-313 463.794,-277 534.206,-277 534.206,-313"/>
<text text-anchor="middle" x="499" y="-289.4" font-family="Times,serif" font-size="14.00" fill="gray">.bootstrap</text>
</g>
<!-- FS:stashes/Toobie&#45;&gt;FS:stashes/Toobie/.bootstrap -->
<g id="edge16" class="edge"><title>FS:stashes/Toobie&#45;&gt;FS:stashes/Toobie/.bootstrap</title>
<path fill="none" stroke="gray" d="M443.304,-368.647C453.613,-355.2 468.045,-336.376 479.635,-321.259"/>
<polygon fill="gray" stroke="gray" points="482.43,-323.365 485.737,-313.3 476.875,-319.106 482.43,-323.365"/>
</g>
<!-- FS:stashes/Toobie/.bootstrap/Noobie.build -->
<g id="node20" class="node"><title>FS:stashes/Toobie/.bootstrap/Noobie.build</title>
<polygon fill="none" stroke="black" points="556.218,-221 553.218,-225 532.218,-225 529.218,-221 469.782,-221 469.782,-185 556.218,-185 556.218,-221"/>
<text text-anchor="middle" x="513" y="-197.4" font-family="Times,serif" font-size="14.00" fill="gray">Toobie.build</text>
</g>
<!-- FS:stashes/Toobie/.bootstrap&#45;&gt;FS:stashes/Toobie/.bootstrap/Noobie.build -->
<g id="edge17" class="edge"><title>FS:stashes/Toobie/.bootstrap&#45;&gt;FS:stashes/Toobie/.bootstrap/Noobie.build</title>
<path fill="none" stroke="gray" d="M501.699,-276.647C503.694,-263.823 506.45,-246.108 508.741,-231.381"/>
<polygon fill="gray" stroke="gray" points="512.23,-231.719 510.309,-221.3 505.313,-230.643 512.23,-231.719"/>
</g>
</g>
</svg>
