<?xml version="1.0" encoding="UTF-8" standalone="no"?>
<!DOCTYPE svg PUBLIC "-//W3C//DTD SVG 1.1//EN"
 "http://www.w3.org/Graphics/SVG/1.1/DTD/svg11.dtd">
<!-- Generated by graphviz version 2.34.0 (20131231.1455)
 -->
<!-- Title: inherit Pages: 1 -->
<svg width="241pt" height="116pt"
 viewBox="0.00 0.00 241.00 116.00" xmlns="http://www.w3.org/2000/svg" xmlns:xlink="http://www.w3.org/1999/xlink">
<g id="graph0" class="graph" transform="scale(1 1) rotate(0) translate(4 112)">
<title>inherit</title>
<polygon fill="white" stroke="white" points="-4,4 -4,-112 237,-112 237,4 -4,4"/>
<!-- dependencies -->
<g id="node1" class="node"><title>dependencies</title>
<polygon fill="none" stroke="black" points="146.555,-108 143.555,-112 122.555,-112 119.555,-108 55.4452,-108 55.4452,-72 146.555,-72 146.555,-108"/>
<text text-anchor="middle" x="101" y="-84.4" font-family="Times,serif" font-size="14.00">dependencies</text>
</g>
<!-- lib -->
<g id="node2" class="node"><title>lib</title>
<polygon fill="none" stroke="black" points="54,-36 51,-40 30,-40 27,-36 0,-36 0,-0 54,-0 54,-36"/>
<text text-anchor="middle" x="27" y="-12.4" font-family="Times,serif" font-size="14.00">lib</text>
</g>
<!-- dependencies&#45;&gt;lib -->
<g id="edge1" class="edge"><title>dependencies&#45;&gt;lib</title>
<path fill="none" stroke="black" d="M82.7079,-71.6966C73.5674,-63.0503 62.3599,-52.4486 52.4,-43.027"/>
<polygon fill="black" stroke="black" points="54.7516,-40.4337 45.0817,-36.1043 49.9412,-45.519 54.7516,-40.4337"/>
</g>
<!-- include -->
<g id="node3" class="node"><title>include</title>
<polygon fill="none" stroke="black" points="129.405,-36 126.405,-40 105.405,-40 102.405,-36 72.5954,-36 72.5954,-0 129.405,-0 129.405,-36"/>
<text text-anchor="middle" x="101" y="-12.4" font-family="Times,serif" font-size="14.00">include</text>
</g>
<!-- dependencies&#45;&gt;include -->
<g id="edge2" class="edge"><title>dependencies&#45;&gt;include</title>
<path fill="none" stroke="black" d="M101,-71.6966C101,-63.9827 101,-54.7125 101,-46.1124"/>
<polygon fill="black" stroke="black" points="104.5,-46.1043 101,-36.1043 97.5001,-46.1044 104.5,-46.1043"/>
</g>
<!-- Frameworks -->
<g id="node4" class="node"><title>Frameworks</title>
<polygon fill="none" stroke="black" points="233.49,-36 230.49,-40 209.49,-40 206.49,-36 148.51,-36 148.51,-0 233.49,-0 233.49,-36"/>
<text text-anchor="middle" x="191" y="-12.4" font-family="Times,serif" font-size="14.00">Frameworks</text>
</g>
<!-- dependencies&#45;&gt;Frameworks -->
<g id="edge3" class="edge"><title>dependencies&#45;&gt;Frameworks</title>
<path fill="none" stroke="black" d="M123.247,-71.6966C134.582,-62.8807 148.53,-52.0321 160.819,-42.4742"/>
<polygon fill="black" stroke="black" points="163.264,-45.0065 169.009,-36.1043 158.966,-39.481 163.264,-45.0065"/>
</g>
</g>
</svg>
