<?xml version="1.0" encoding="UTF-8" standalone="no"?>
<!DOCTYPE svg PUBLIC "-//W3C//DTD SVG 1.1//EN"
 "http://www.w3.org/Graphics/SVG/1.1/DTD/svg11.dtd">
<!-- Generated by graphviz version 2.34.0 (20131231.1455)
 -->
<!-- Title: inherit Pages: 1 -->
<svg width="419pt" height="188pt"
 viewBox="0.00 0.00 419.00 188.00" xmlns="http://www.w3.org/2000/svg" xmlns:xlink="http://www.w3.org/1999/xlink">
<g id="graph0" class="graph" transform="scale(1 1) rotate(0) translate(4 184)">
<title>inherit</title>
<polygon fill="white" stroke="white" points="-4,4 -4,-184 415,-184 415,4 -4,4"/>
<!-- dependencies -->
<g id="node1" class="node"><title>dependencies</title>
<polygon fill="none" stroke="black" points="191.555,-180 188.555,-184 167.555,-184 164.555,-180 100.445,-180 100.445,-144 191.555,-144 191.555,-180"/>
<text text-anchor="middle" x="146" y="-156.4" font-family="Times,serif" font-size="14.00">dependencies</text>
</g>
<!-- lib -->
<g id="node2" class="node"><title>lib</title>
<polygon fill="none" stroke="black" points="54,-108 51,-112 30,-112 27,-108 0,-108 0,-72 54,-72 54,-108"/>
<text text-anchor="middle" x="27" y="-84.4" font-family="Times,serif" font-size="14.00">lib</text>
</g>
<!-- dependencies&#45;&gt;lib -->
<g id="edge1" class="edge"><title>dependencies&#45;&gt;lib</title>
<path fill="none" stroke="black" d="M116.889,-143.876C100.6,-134.294 80.157,-122.269 62.8837,-112.108"/>
<polygon fill="black" stroke="black" points="64.5726,-109.041 54.1786,-106.987 61.0234,-115.074 64.5726,-109.041"/>
</g>
<!-- include -->
<g id="node3" class="node"><title>include</title>
<polygon fill="none" stroke="black" points="129.405,-108 126.405,-112 105.405,-112 102.405,-108 72.5954,-108 72.5954,-72 129.405,-72 129.405,-108"/>
<text text-anchor="middle" x="101" y="-84.4" font-family="Times,serif" font-size="14.00">include</text>
</g>
<!-- dependencies&#45;&gt;include -->
<g id="edge2" class="edge"><title>dependencies&#45;&gt;include</title>
<path fill="none" stroke="black" d="M134.876,-143.697C129.645,-135.559 123.3,-125.689 117.522,-116.701"/>
<polygon fill="black" stroke="black" points="120.347,-114.623 111.996,-108.104 114.459,-118.409 120.347,-114.623"/>
</g>
<!-- Frameworks -->
<g id="node4" class="node"><title>Frameworks</title>
<polygon fill="none" stroke="black" points="233.49,-108 230.49,-112 209.49,-112 206.49,-108 148.51,-108 148.51,-72 233.49,-72 233.49,-108"/>
<text text-anchor="middle" x="191" y="-84.4" font-family="Times,serif" font-size="14.00">Frameworks</text>
</g>
<!-- dependencies&#45;&gt;Frameworks -->
<g id="edge3" class="edge"><title>dependencies&#45;&gt;Frameworks</title>
<path fill="none" stroke="black" d="M157.124,-143.697C162.355,-135.559 168.7,-125.689 174.478,-116.701"/>
<polygon fill="black" stroke="black" points="177.541,-118.409 180.004,-108.104 171.653,-114.623 177.541,-118.409"/>
</g>
<!-- Debug -->
<g id="node5" class="node"><title>Debug</title>
<polygon fill="none" stroke="black" points="306,-108 303,-112 282,-112 279,-108 252,-108 252,-72 306,-72 306,-108"/>
<text text-anchor="middle" x="279" y="-84.4" font-family="Times,serif" font-size="14.00">Debug</text>
</g>
<!-- dependencies&#45;&gt;Debug -->
<g id="edge4" class="edge"><title>dependencies&#45;&gt;Debug</title>
<path fill="none" stroke="black" d="M178.535,-143.876C198.009,-133.627 222.794,-120.582 242.873,-110.014"/>
<polygon fill="black" stroke="black" points="244.513,-113.106 251.732,-105.352 241.253,-106.912 244.513,-113.106"/>
</g>
<!-- lib2 -->
<g id="node6" class="node"><title>lib2</title>
<polygon fill="none" stroke="black" points="232,-36 229,-40 208,-40 205,-36 178,-36 178,-0 232,-0 232,-36"/>
<text text-anchor="middle" x="205" y="-12.4" font-family="Times,serif" font-size="14.00">lib</text>
</g>
<!-- Debug&#45;&gt;lib2 -->
<g id="edge5" class="edge"><title>Debug&#45;&gt;lib2</title>
<path fill="none" stroke="black" d="M260.708,-71.6966C251.567,-63.0503 240.36,-52.4486 230.4,-43.027"/>
<polygon fill="black" stroke="black" points="232.752,-40.4337 223.082,-36.1043 227.941,-45.519 232.752,-40.4337"/>
</g>
<!-- include2 -->
<g id="node7" class="node"><title>include2</title>
<polygon fill="none" stroke="black" points="307.405,-36 304.405,-40 283.405,-40 280.405,-36 250.595,-36 250.595,-0 307.405,-0 307.405,-36"/>
<text text-anchor="middle" x="279" y="-12.4" font-family="Times,serif" font-size="14.00">include</text>
</g>
<!-- Debug&#45;&gt;include2 -->
<g id="edge6" class="edge"><title>Debug&#45;&gt;include2</title>
<path fill="none" stroke="black" d="M279,-71.6966C279,-63.9827 279,-54.7125 279,-46.1124"/>
<polygon fill="black" stroke="black" points="282.5,-46.1043 279,-36.1043 275.5,-46.1044 282.5,-46.1043"/>
</g>
<!-- Frameworks2 -->
<g id="node8" class="node"><title>Frameworks2</title>
<polygon fill="none" stroke="black" points="411.49,-36 408.49,-40 387.49,-40 384.49,-36 326.51,-36 326.51,-0 411.49,-0 411.49,-36"/>
<text text-anchor="middle" x="369" y="-12.4" font-family="Times,serif" font-size="14.00">Frameworks</text>
</g>
<!-- Debug&#45;&gt;Frameworks2 -->
<g id="edge7" class="edge"><title>Debug&#45;&gt;Frameworks2</title>
<path fill="none" stroke="black" d="M301.247,-71.6966C312.582,-62.8807 326.53,-52.0321 338.819,-42.4742"/>
<polygon fill="black" stroke="black" points="341.264,-45.0065 347.009,-36.1043 336.966,-39.481 341.264,-45.0065"/>
</g>
</g>
</svg>
