<?xml version="1.0" encoding="UTF-8" standalone="no"?>
<!DOCTYPE svg PUBLIC "-//W3C//DTD SVG 1.1//EN"
 "http://www.w3.org/Graphics/SVG/1.1/DTD/svg11.dtd">
<!-- Generated by graphviz version 2.34.0 (20131231.1455)
 -->
<!-- Title: inherit Pages: 1 -->
<svg width="833pt" height="188pt"
 viewBox="0.00 0.00 833.00 188.00" xmlns="http://www.w3.org/2000/svg" xmlns:xlink="http://www.w3.org/1999/xlink">
<g id="graph0" class="graph" transform="scale(1 1) rotate(0) translate(4 184)">
<title>inherit</title>
<polygon fill="white" stroke="white" points="-4,4 -4,-184 829,-184 829,4 -4,4"/>
<!-- dependencies -->
<g id="node1" class="node"><title>dependencies</title>
<polygon fill="none" stroke="black" points="280.555,-180 277.555,-184 256.555,-184 253.555,-180 189.445,-180 189.445,-144 280.555,-144 280.555,-180"/>
<text text-anchor="middle" x="235" y="-156.4" font-family="Times,serif" font-size="14.00">dependencies</text>
</g>
<!-- lib -->
<g id="node2" class="node"><title>lib</title>
<polygon fill="none" stroke="black" points="54,-108 51,-112 30,-112 27,-108 0,-108 0,-72 54,-72 54,-108"/>
<text text-anchor="middle" x="27" y="-84.4" font-family="Times,serif" font-size="14.00">lib</text>
</g>
<!-- dependencies&#45;&gt;lib -->
<g id="edge1" class="edge"><title>dependencies&#45;&gt;lib</title>
<path fill="none" stroke="black" d="M189.493,-148.889C156.658,-139.722 111.211,-126.157 63.8387,-108.079"/>
<polygon fill="black" stroke="black" points="64.931,-104.749 54.3418,-104.403 62.4042,-111.277 64.931,-104.749"/>
</g>
<!-- include -->
<g id="node3" class="node"><title>include</title>
<polygon fill="none" stroke="black" points="129.405,-108 126.405,-112 105.405,-112 102.405,-108 72.5954,-108 72.5954,-72 129.405,-72 129.405,-108"/>
<text text-anchor="middle" x="101" y="-84.4" font-family="Times,serif" font-size="14.00">include</text>
</g>
<!-- dependencies&#45;&gt;include -->
<g id="edge2" class="edge"><title>dependencies&#45;&gt;include</title>
<path fill="none" stroke="black" d="M202.22,-143.876C182.869,-133.767 158.312,-120.939 138.232,-110.45"/>
<polygon fill="black" stroke="black" points="139.841,-107.341 129.357,-105.813 136.599,-113.546 139.841,-107.341"/>
</g>
<!-- Frameworks -->
<g id="node4" class="node"><title>Frameworks</title>
<polygon fill="none" stroke="black" points="233.49,-108 230.49,-112 209.49,-112 206.49,-108 148.51,-108 148.51,-72 233.49,-72 233.49,-108"/>
<text text-anchor="middle" x="191" y="-84.4" font-family="Times,serif" font-size="14.00">Frameworks</text>
</g>
<!-- dependencies&#45;&gt;Frameworks -->
<g id="edge3" class="edge"><title>dependencies&#45;&gt;Frameworks</title>
<path fill="none" stroke="black" d="M224.124,-143.697C219.008,-135.559 212.805,-125.689 207.155,-116.701"/>
<polygon fill="black" stroke="black" points="210.036,-114.708 201.751,-108.104 204.11,-118.433 210.036,-114.708"/>
</g>
<!-- Debug -->
<g id="node5" class="node"><title>Debug</title>
<polygon fill="none" stroke="black" points="306,-108 303,-112 282,-112 279,-108 252,-108 252,-72 306,-72 306,-108"/>
<text text-anchor="middle" x="279" y="-84.4" font-family="Times,serif" font-size="14.00">Debug</text>
</g>
<!-- dependencies&#45;&gt;Debug -->
<g id="edge4" class="edge"><title>dependencies&#45;&gt;Debug</title>
<path fill="none" stroke="black" d="M245.876,-143.697C250.992,-135.559 257.195,-125.689 262.845,-116.701"/>
<polygon fill="black" stroke="black" points="265.89,-118.433 268.249,-108.104 259.964,-114.708 265.89,-118.433"/>
</g>
<!-- Release&#45;iphonesimulator -->
<g id="node9" class="node"><title>Release&#45;iphonesimulator</title>
<polygon fill="none" stroke="black" points="499.385,-108 496.385,-112 475.385,-112 472.385,-108 344.615,-108 344.615,-72 499.385,-72 499.385,-108"/>
<text text-anchor="middle" x="422" y="-84.4" font-family="Times,serif" font-size="14.00">Release&#45;iphonesimulator</text>
</g>
<!-- dependencies&#45;&gt;Release&#45;iphonesimulator -->
<g id="edge8" class="edge"><title>dependencies&#45;&gt;Release&#45;iphonesimulator</title>
<path fill="none" stroke="black" d="M280.745,-143.876C306.764,-134.137 339.526,-121.872 366.947,-111.608"/>
<polygon fill="black" stroke="black" points="368.265,-114.852 376.403,-108.068 365.811,-108.296 368.265,-114.852"/>
</g>
<!-- Debug&#45;iphonesimulator -->
<g id="node13" class="node"><title>Debug&#45;iphonesimulator</title>
<polygon fill="none" stroke="black" points="730.23,-108 727.23,-112 706.23,-112 703.23,-108 581.77,-108 581.77,-72 730.23,-72 730.23,-108"/>
<text text-anchor="middle" x="656" y="-84.4" font-family="Times,serif" font-size="14.00">Debug&#45;iphonesimulator</text>
</g>
<!-- dependencies&#45;&gt;Debug&#45;iphonesimulator -->
<g id="edge12" class="edge"><title>dependencies&#45;&gt;Debug&#45;iphonesimulator</title>
<path fill="none" stroke="black" d="M280.454,-153.442C349.96,-141.885 483.803,-119.631 571.493,-105.051"/>
<polygon fill="black" stroke="black" points="572.129,-108.493 581.42,-103.401 570.981,-101.588 572.129,-108.493"/>
</g>
<!-- lib2 -->
<g id="node6" class="node"><title>lib2</title>
<polygon fill="none" stroke="black" points="142,-36 139,-40 118,-40 115,-36 88,-36 88,-0 142,-0 142,-36"/>
<text text-anchor="middle" x="115" y="-12.4" font-family="Times,serif" font-size="14.00">lib</text>
</g>
<!-- Debug&#45;&gt;lib2 -->
<g id="edge5" class="edge"><title>Debug&#45;&gt;lib2</title>
<path fill="none" stroke="black" d="M251.997,-76.3894C248.643,-74.8831 245.25,-73.3885 242,-72 204.658,-56.0489 192.509,-53.5784 151.296,-35.991"/>
<polygon fill="black" stroke="black" points="152.61,-32.7459 142.041,-31.9983 149.837,-39.1733 152.61,-32.7459"/>
</g>
<!-- include2 -->
<g id="node7" class="node"><title>include2</title>
<polygon fill="none" stroke="black" points="217.405,-36 214.405,-40 193.405,-40 190.405,-36 160.595,-36 160.595,-0 217.405,-0 217.405,-36"/>
<text text-anchor="middle" x="189" y="-12.4" font-family="Times,serif" font-size="14.00">include</text>
</g>
<!-- Debug&#45;&gt;include2 -->
<g id="edge6" class="edge"><title>Debug&#45;&gt;include2</title>
<path fill="none" stroke="black" d="M256.753,-71.6966C245.418,-62.8807 231.47,-52.0321 219.181,-42.4742"/>
<polygon fill="black" stroke="black" points="221.034,-39.481 210.991,-36.1043 216.736,-45.0065 221.034,-39.481"/>
</g>
<!-- Frameworks2 -->
<g id="node8" class="node"><title>Frameworks2</title>
<polygon fill="none" stroke="black" points="321.49,-36 318.49,-40 297.49,-40 294.49,-36 236.51,-36 236.51,-0 321.49,-0 321.49,-36"/>
<text text-anchor="middle" x="279" y="-12.4" font-family="Times,serif" font-size="14.00">Frameworks</text>
</g>
<!-- Debug&#45;&gt;Frameworks2 -->
<g id="edge7" class="edge"><title>Debug&#45;&gt;Frameworks2</title>
<path fill="none" stroke="black" d="M279,-71.6966C279,-63.9827 279,-54.7125 279,-46.1124"/>
<polygon fill="black" stroke="black" points="282.5,-46.1043 279,-36.1043 275.5,-46.1044 282.5,-46.1043"/>
</g>
<!-- lib3 -->
<g id="node10" class="node"><title>lib3</title>
<polygon fill="none" stroke="black" points="394,-36 391,-40 370,-40 367,-36 340,-36 340,-0 394,-0 394,-36"/>
<text text-anchor="middle" x="367" y="-12.4" font-family="Times,serif" font-size="14.00">lib</text>
</g>
<!-- Release&#45;iphonesimulator&#45;&gt;lib3 -->
<g id="edge9" class="edge"><title>Release&#45;iphonesimulator&#45;&gt;lib3</title>
<path fill="none" stroke="black" d="M408.404,-71.6966C401.877,-63.3893 393.932,-53.2771 386.753,-44.1407"/>
<polygon fill="black" stroke="black" points="389.369,-41.8051 380.439,-36.1043 383.865,-46.1299 389.369,-41.8051"/>
</g>
<!-- include3 -->
<g id="node11" class="node"><title>include3</title>
<polygon fill="none" stroke="black" points="469.405,-36 466.405,-40 445.405,-40 442.405,-36 412.595,-36 412.595,-0 469.405,-0 469.405,-36"/>
<text text-anchor="middle" x="441" y="-12.4" font-family="Times,serif" font-size="14.00">include</text>
</g>
<!-- Release&#45;iphonesimulator&#45;&gt;include3 -->
<g id="edge10" class="edge"><title>Release&#45;iphonesimulator&#45;&gt;include3</title>
<path fill="none" stroke="black" d="M426.697,-71.6966C428.813,-63.8979 431.362,-54.5085 433.718,-45.8292"/>
<polygon fill="black" stroke="black" points="437.116,-46.672 436.357,-36.1043 430.36,-44.8383 437.116,-46.672"/>
</g>
<!-- Frameworks3 -->
<g id="node12" class="node"><title>Frameworks3</title>
<polygon fill="none" stroke="black" points="573.49,-36 570.49,-40 549.49,-40 546.49,-36 488.51,-36 488.51,-0 573.49,-0 573.49,-36"/>
<text text-anchor="middle" x="531" y="-12.4" font-family="Times,serif" font-size="14.00">Frameworks</text>
</g>
<!-- Release&#45;iphonesimulator&#45;&gt;Frameworks3 -->
<g id="edge11" class="edge"><title>Release&#45;iphonesimulator&#45;&gt;Frameworks3</title>
<path fill="none" stroke="black" d="M448.664,-71.8761C462.784,-62.8083 480.311,-51.5523 495.561,-41.7592"/>
<polygon fill="black" stroke="black" points="497.71,-44.5385 504.233,-36.1898 493.927,-38.6485 497.71,-44.5385"/>
</g>
<!-- lib4 -->
<g id="node14" class="node"><title>lib4</title>
<polygon fill="none" stroke="black" points="646,-36 643,-40 622,-40 619,-36 592,-36 592,-0 646,-0 646,-36"/>
<text text-anchor="middle" x="619" y="-12.4" font-family="Times,serif" font-size="14.00">lib</text>
</g>
<!-- Debug&#45;iphonesimulator&#45;&gt;lib4 -->
<g id="edge13" class="edge"><title>Debug&#45;iphonesimulator&#45;&gt;lib4</title>
<path fill="none" stroke="black" d="M646.854,-71.6966C642.597,-63.6436 637.444,-53.8945 632.734,-44.9824"/>
<polygon fill="black" stroke="black" points="635.808,-43.3097 628.041,-36.1043 629.62,-46.5809 635.808,-43.3097"/>
</g>
<!-- include4 -->
<g id="node15" class="node"><title>include4</title>
<polygon fill="none" stroke="black" points="721.405,-36 718.405,-40 697.405,-40 694.405,-36 664.595,-36 664.595,-0 721.405,-0 721.405,-36"/>
<text text-anchor="middle" x="693" y="-12.4" font-family="Times,serif" font-size="14.00">include</text>
</g>
<!-- Debug&#45;iphonesimulator&#45;&gt;include4 -->
<g id="edge14" class="edge"><title>Debug&#45;iphonesimulator&#45;&gt;include4</title>
<path fill="none" stroke="black" d="M665.146,-71.6966C669.403,-63.6436 674.556,-53.8945 679.266,-44.9824"/>
<polygon fill="black" stroke="black" points="682.38,-46.5809 683.959,-36.1043 676.192,-43.3097 682.38,-46.5809"/>
</g>
<!-- Frameworks4 -->
<g id="node16" class="node"><title>Frameworks4</title>
<polygon fill="none" stroke="black" points="825.49,-36 822.49,-40 801.49,-40 798.49,-36 740.51,-36 740.51,-0 825.49,-0 825.49,-36"/>
<text text-anchor="middle" x="783" y="-12.4" font-family="Times,serif" font-size="14.00">Frameworks</text>
</g>
<!-- Debug&#45;iphonesimulator&#45;&gt;Frameworks4 -->
<g id="edge15" class="edge"><title>Debug&#45;iphonesimulator&#45;&gt;Frameworks4</title>
<path fill="none" stroke="black" d="M687.068,-71.8761C703.827,-62.6388 724.706,-51.1308 742.702,-41.2116"/>
<polygon fill="black" stroke="black" points="744.745,-44.0822 751.813,-36.1898 741.366,-37.9517 744.745,-44.0822"/>
</g>
</g>
</svg>
