<?xml version="1.0" encoding="UTF-8" standalone="no"?>
<!DOCTYPE svg PUBLIC "-//W3C//DTD SVG 1.1//EN"
 "http://www.w3.org/Graphics/SVG/1.1/DTD/svg11.dtd">
<!-- Generated by graphviz version 2.34.0 (20131231.1455)
 -->
<!-- Title: pic Pages: 1 -->
<svg width="546pt" height="242pt"
 viewBox="0.00 0.00 546.00 242.00" xmlns="http://www.w3.org/2000/svg" xmlns:xlink="http://www.w3.org/1999/xlink">
<g id="graph0" class="graph" transform="scale(1 1) rotate(0) translate(4 238)">
<title>pic</title>
<polygon fill="white" stroke="white" points="-4,4 -4,-238 542,-238 542,4 -4,4"/>
<g id="clust1" class="cluster"><title>cluster_0</title>
<polygon fill="none" stroke="red" points="8,-8 8,-168 530,-168 530,-8 8,-8"/>
</g>
<!-- 1_Project -->
<g id="node1" class="node"><title>1_Project</title>
<polygon fill="none" stroke="red" points="431.172,-197 431.172,-233 486.828,-233 486.828,-197 431.172,-197"/>
<text text-anchor="middle" x="459" y="-209.4" font-family="Times,serif" font-size="14.00">Project</text>
</g>
<!-- stashes -->
<g id="node2" class="node"><title>stashes</title>
<polygon fill="none" stroke="black" points="486.25,-160 483.25,-164 462.25,-164 459.25,-160 431.75,-160 431.75,-124 486.25,-124 486.25,-160"/>
<text text-anchor="middle" x="459" y="-136.4" font-family="Times,serif" font-size="14.00">stashes</text>
</g>
<!-- 1_Project&#45;&gt;stashes -->
<g id="edge1" class="edge"><title>1_Project&#45;&gt;stashes</title>
<path fill="none" stroke="black" d="M459,-196.813C459,-188.789 459,-179.047 459,-170.069"/>
<polygon fill="black" stroke="black" points="462.5,-178 459,-168 455.5,-178 462.5,-178"/>
</g>
<!-- stashes#Foo -->
<g id="node3" class="node"><title>stashes#Foo</title>
<polygon fill="none" stroke="black" points="446.168,-70 443.168,-74 422.168,-74 419.168,-70 391.832,-70 391.832,-34 446.168,-34 446.168,-70"/>
<text text-anchor="middle" x="419" y="-46.4" font-family="Times,serif" font-size="14.00">Foobie</text>
</g>
<!-- stashes&#45;&gt;stashes#Foo -->
<g id="edge2" class="edge"><title>stashes&#45;&gt;stashes#Foo</title>
<path fill="none" stroke="black" d="M451.097,-123.614C445.363,-110.998 437.502,-93.7052 430.996,-79.3907"/>
<polygon fill="black" stroke="black" points="434.075,-77.7058 426.75,-70.0504 427.702,-80.6024 434.075,-77.7058"/>
</g>
<!-- stashes#Bar -->
<g id="node4" class="node"><title>stashes#Bar</title>
<polygon fill="none" stroke="black" points="521.41,-70 518.41,-74 497.41,-74 494.41,-70 464.59,-70 464.59,-34 521.41,-34 521.41,-70"/>
<text text-anchor="middle" x="493" y="-46.4" font-family="Times,serif" font-size="14.00">Noobie</text>
</g>
<!-- stashes&#45;&gt;stashes#Bar -->
<g id="edge3" class="edge"><title>stashes&#45;&gt;stashes#Bar</title>
<path fill="none" stroke="black" d="M465.717,-123.614C470.592,-110.998 477.273,-93.7052 482.804,-79.3907"/>
<polygon fill="black" stroke="black" points="486.073,-80.6398 486.412,-70.0504 479.543,-78.117 486.073,-80.6398"/>
</g>
<!-- .bootstrap.auto -->
<g id="node5" class="node"><title>.bootstrap.auto</title>
<polygon fill="none" stroke="black" points="379.405,-160 376.405,-164 355.405,-164 352.405,-160 280.595,-160 280.595,-124 379.405,-124 379.405,-160"/>
<text text-anchor="middle" x="330" y="-136.4" font-family="Times,serif" font-size="14.00">.bootstrap.auto</text>
</g>
<!-- build_order -->
<g id="node6" class="node"><title>build_order</title>
<polygon fill="#dddddd" stroke="none" points="295,-61 295,-82 365,-82 365,-61 295,-61"/>
<text text-anchor="start" x="297.341" y="-65.9" font-family="Times,serif" font-size="14.00">build_order</text>
<text text-anchor="start" x="309.393" y="-45" font-family="Times,serif" font-size="14.00">Noobie</text>
<text text-anchor="start" x="310.555" y="-25" font-family="Times,serif" font-size="14.00">Foobie</text>
<polygon fill="none" stroke="black" points="294,-20.5 294,-83.5 366,-83.5 366,-20.5 294,-20.5"/>
</g>
<!-- .bootstrap.auto&#45;&gt;build_order -->
<g id="edge4" class="edge"><title>.bootstrap.auto&#45;&gt;build_order</title>
<path fill="none" stroke="black" d="M330,-123.614C330,-116.19 330,-107.146 330,-98.0432"/>
<polygon fill="black" stroke="black" points="333.5,-97.8233 330,-87.8234 326.5,-97.8234 333.5,-97.8233"/>
</g>
<!-- .bootstrap.repos -->
<g id="node7" class="node"><title>.bootstrap.repos</title>
<polygon fill="none" stroke="black" points="193.57,-160 190.57,-164 169.57,-164 166.57,-160 88.4298,-160 88.4298,-124 193.57,-124 193.57,-160"/>
<text text-anchor="middle" x="141" y="-136.4" font-family="Times,serif" font-size="14.00">.bootstrap.repos</text>
</g>
<!-- symlink.Foo -->
<g id="node8" class="node"><title>symlink.Foo</title>
<polygon fill="#dddddd" stroke="none" points="25,-51 25,-72 123,-72 123,-51 25,-51"/>
<text text-anchor="start" x="54.5552" y="-55.9" font-family="Times,serif" font-size="14.00">Foobie</text>
<text text-anchor="start" x="27.3345" y="-35" font-family="Times,serif" font-size="14.00">../stashes/Foobie</text>
<polygon fill="none" stroke="black" points="24,-30.5 24,-73.5 124,-73.5 124,-30.5 24,-30.5"/>
</g>
<!-- .bootstrap.repos&#45;&gt;symlink.Foo -->
<g id="edge5" class="edge"><title>.bootstrap.repos&#45;&gt;symlink.Foo</title>
<path fill="none" stroke="black" d="M127.763,-123.614C119.567,-112.849 108.778,-98.6786 99.0178,-85.8592"/>
<polygon fill="black" stroke="black" points="101.632,-83.5155 92.7899,-77.6793 96.0629,-87.756 101.632,-83.5155"/>
</g>
<!-- symlink.Bar -->
<g id="node9" class="node"><title>symlink.Bar</title>
<polygon fill="#dddddd" stroke="none" points="159,-51 159,-72 259,-72 259,-51 159,-51"/>
<text text-anchor="start" x="188.393" y="-55.9" font-family="Times,serif" font-size="14.00">Noobie</text>
<text text-anchor="start" x="161.172" y="-35" font-family="Times,serif" font-size="14.00">../stashes/Noobie</text>
<polygon fill="none" stroke="black" points="158,-30.5 158,-73.5 260,-73.5 260,-30.5 158,-30.5"/>
</g>
<!-- .bootstrap.repos&#45;&gt;symlink.Bar -->
<g id="edge6" class="edge"><title>.bootstrap.repos&#45;&gt;symlink.Bar</title>
<path fill="none" stroke="black" d="M154.435,-123.614C162.753,-112.849 173.703,-98.6786 183.609,-85.8592"/>
<polygon fill="black" stroke="black" points="186.585,-87.7323 189.93,-77.6793 181.046,-83.4521 186.585,-87.7323"/>
</g>
</g>
</svg>
