<?xml version="1.0" encoding="UTF-8" standalone="no"?>
<!DOCTYPE svg PUBLIC "-//W3C//DTD SVG 1.1//EN"
 "http://www.w3.org/Graphics/SVG/1.1/DTD/svg11.dtd">
<!-- Generated by graphviz version 2.34.0 (20131231.1455)
 -->
<!-- Title: pic Pages: 1 -->
<svg width="870pt" height="294pt"
 viewBox="0.00 0.00 870.00 294.00" xmlns="http://www.w3.org/2000/svg" xmlns:xlink="http://www.w3.org/1999/xlink">
<g id="graph0" class="graph" transform="scale(1 1) rotate(0) translate(4 290)">
<title>pic</title>
<polygon fill="white" stroke="white" points="-4,4 -4,-290 866,-290 866,4 -4,4"/>
<g id="clust1" class="cluster"><title>cluster_0</title>
<polygon fill="none" stroke="red" points="8,-8 8,-220 355,-220 355,-8 8,-8"/>
</g>
<g id="clust2" class="cluster"><title>cluster_1</title>
<polygon fill="none" stroke="blue" points="363,-8 363,-220 714,-220 714,-8 363,-8"/>
</g>
<g id="clust3" class="cluster"><title>cluster_2</title>
<polygon fill="none" stroke="green" points="722,-8 722,-220 854,-220 854,-8 722,-8"/>
</g>
<!-- 1_Project -->
<g id="node1" class="node"><title>1_Project</title>
<polygon fill="none" stroke="red" points="188.172,-249 188.172,-285 243.828,-285 243.828,-249 188.172,-249"/>
<text text-anchor="middle" x="216" y="-261.4" font-family="Times,serif" font-size="14.00">Project</text>
</g>
<!-- .bootstrap -->
<g id="node4" class="node"><title>.bootstrap</title>
<polygon fill="none" stroke="black" points="251.206,-212 248.206,-216 227.206,-216 224.206,-212 180.794,-212 180.794,-176 251.206,-176 251.206,-212"/>
<text text-anchor="middle" x="216" y="-188.4" font-family="Times,serif" font-size="14.00">.bootstrap</text>
</g>
<!-- 1_Project&#45;&gt;.bootstrap -->
<g id="edge1" class="edge"><title>1_Project&#45;&gt;.bootstrap</title>
<path fill="none" stroke="black" d="M216,-248.813C216,-240.789 216,-231.047 216,-222.069"/>
<polygon fill="black" stroke="black" points="219.5,-230 216,-220 212.5,-230 219.5,-230"/>
</g>
<!-- 2_Foo -->
<g id="node2" class="node"><title>2_Foo</title>
<polygon fill="none" stroke="blue" points="545.555,-249 545.555,-285 600.445,-285 600.445,-249 545.555,-249"/>
<text text-anchor="middle" x="573" y="-261.4" font-family="Times,serif" font-size="14.00">Foobie</text>
</g>
<!-- foo:.bootstrap -->
<g id="node5" class="node"><title>foo:.bootstrap</title>
<polygon fill="none" stroke="black" points="608.206,-212 605.206,-216 584.206,-216 581.206,-212 537.794,-212 537.794,-176 608.206,-176 608.206,-212"/>
<text text-anchor="middle" x="573" y="-188.4" font-family="Times,serif" font-size="14.00">.bootstrap</text>
</g>
<!-- 2_Foo&#45;&gt;foo:.bootstrap -->
<g id="edge2" class="edge"><title>2_Foo&#45;&gt;foo:.bootstrap</title>
<path fill="none" stroke="black" d="M573,-248.813C573,-240.789 573,-231.047 573,-222.069"/>
<polygon fill="black" stroke="black" points="576.5,-230 573,-220 569.5,-230 576.5,-230"/>
</g>
<!-- 3_Bar -->
<g id="node3" class="node"><title>3_Bar</title>
<polygon fill="none" stroke="green" points="759.393,-249 759.393,-285 816.607,-285 816.607,-249 759.393,-249"/>
<text text-anchor="middle" x="788" y="-261.4" font-family="Times,serif" font-size="14.00">Noobie</text>
</g>
<!-- bar:.bootstrap -->
<g id="node6" class="node"><title>bar:.bootstrap</title>
<polygon fill="none" stroke="black" points="823.206,-212 820.206,-216 799.206,-216 796.206,-212 752.794,-212 752.794,-176 823.206,-176 823.206,-212"/>
<text text-anchor="middle" x="788" y="-188.4" font-family="Times,serif" font-size="14.00">.bootstrap</text>
</g>
<!-- 3_Bar&#45;&gt;bar:.bootstrap -->
<g id="edge3" class="edge"><title>3_Bar&#45;&gt;bar:.bootstrap</title>
<path fill="none" stroke="black" d="M788,-248.813C788,-240.789 788,-231.047 788,-222.069"/>
<polygon fill="black" stroke="black" points="791.5,-230 788,-220 784.5,-230 791.5,-230"/>
</g>
<!-- repositories -->
<g id="node7" class="node"><title>repositories</title>
<polygon fill="#dddddd" stroke="none" points="26,-113 26,-134 233,-134 233,-113 26,-113"/>
<text text-anchor="start" x="96.8413" y="-117.9" font-family="Times,serif" font-size="14.00">repositories</text>
<text text-anchor="start" x="28.2017" y="-97" font-family="Times,serif" font-size="14.00">https://github.com/mulle&#45;nat/Foobie</text>
<polygon fill="none" stroke="black" points="24.5,-92.5 24.5,-135.5 233.5,-135.5 233.5,-92.5 24.5,-92.5"/>
</g>
<!-- .bootstrap&#45;&gt;repositories -->
<g id="edge4" class="edge"><title>.bootstrap&#45;&gt;repositories</title>
<path fill="none" stroke="black" d="M196.692,-175.689C187.093,-167.083 175.189,-156.411 164.054,-146.427"/>
<polygon fill="black" stroke="black" points="166.287,-143.729 156.505,-139.66 161.614,-148.941 166.287,-143.729"/>
</g>
<!-- Foobie -->
<g id="node8" class="node"><title>Foobie</title>
<polygon fill="none" stroke="black" points="346.376,-132 343.376,-136 322.376,-136 319.376,-132 259.624,-132 259.624,-96 346.376,-96 346.376,-132"/>
<text text-anchor="middle" x="303" y="-108.4" font-family="Times,serif" font-size="14.00">Foobie.build</text>
</g>
<!-- .bootstrap&#45;&gt;Foobie -->
<g id="edge5" class="edge"><title>.bootstrap&#45;&gt;Foobie</title>
<path fill="none" stroke="black" d="M235.308,-175.689C247.36,-164.884 263.045,-150.822 276.281,-138.955"/>
<polygon fill="black" stroke="black" points="278.637,-141.544 283.746,-132.262 273.964,-136.332 278.637,-141.544"/>
</g>
<!-- foo:repositories -->
<g id="node10" class="node"><title>foo:repositories</title>
<polygon fill="#dddddd" stroke="none" points="381,-113 381,-134 590,-134 590,-113 381,-113"/>
<text text-anchor="start" x="452.841" y="-117.9" font-family="Times,serif" font-size="14.00">repositories</text>
<text text-anchor="start" x="383.04" y="-97" font-family="Times,serif" font-size="14.00">https://github.com/mulle&#45;nat/Noobie</text>
<polygon fill="none" stroke="black" points="379.5,-92.5 379.5,-135.5 590.5,-135.5 590.5,-92.5 379.5,-92.5"/>
</g>
<!-- foo:.bootstrap&#45;&gt;foo:repositories -->
<g id="edge7" class="edge"><title>foo:.bootstrap&#45;&gt;foo:repositories</title>
<path fill="none" stroke="black" d="M553.47,-175.689C543.761,-167.083 531.72,-156.411 520.457,-146.427"/>
<polygon fill="black" stroke="black" points="522.626,-143.673 512.821,-139.66 517.983,-148.912 522.626,-143.673"/>
</g>
<!-- foo:settings -->
<g id="node11" class="node"><title>foo:settings</title>
<polygon fill="none" stroke="black" points="705.619,-132 702.619,-136 681.619,-136 678.619,-132 616.381,-132 616.381,-96 705.619,-96 705.619,-132"/>
<text text-anchor="middle" x="661" y="-108.4" font-family="Times,serif" font-size="14.00">Noobie.build</text>
</g>
<!-- foo:.bootstrap&#45;&gt;foo:settings -->
<g id="edge8" class="edge"><title>foo:.bootstrap&#45;&gt;foo:settings</title>
<path fill="none" stroke="black" d="M592.53,-175.689C604.721,-164.884 620.586,-150.822 633.974,-138.955"/>
<polygon fill="black" stroke="black" points="636.363,-141.515 641.525,-132.262 631.719,-136.276 636.363,-141.515"/>
</g>
<!-- bar:Noobie.build -->
<g id="node13" class="node"><title>bar:Noobie.build</title>
<polygon fill="none" stroke="black" points="832.619,-132 829.619,-136 808.619,-136 805.619,-132 743.381,-132 743.381,-96 832.619,-96 832.619,-132"/>
<text text-anchor="middle" x="788" y="-108.4" font-family="Times,serif" font-size="14.00">Noobie.build</text>
</g>
<!-- bar:.bootstrap&#45;&gt;bar:Noobie.build -->
<g id="edge10" class="edge"><title>bar:.bootstrap&#45;&gt;bar:Noobie.build</title>
<path fill="none" stroke="black" d="M788,-175.689C788,-165.894 788,-153.422 788,-142.335"/>
<polygon fill="black" stroke="black" points="791.5,-142.262 788,-132.262 784.5,-142.262 791.5,-142.262"/>
</g>
<!-- build_preferences -->
<g id="node9" class="node"><title>build_preferences</title>
<polygon fill="none" stroke="black" points="341.213,-52 230.787,-52 230.787,-16 347.213,-16 347.213,-46 341.213,-52"/>
<polyline fill="none" stroke="black" points="341.213,-52 341.213,-46 "/>
<polyline fill="none" stroke="black" points="347.213,-46 341.213,-46 "/>
<text text-anchor="middle" x="289" y="-28.4" font-family="Times,serif" font-size="14.00">build_preferences</text>
</g>
<!-- Foobie&#45;&gt;build_preferences -->
<g id="edge6" class="edge"><title>Foobie&#45;&gt;build_preferences</title>
<path fill="none" stroke="black" d="M299.893,-95.6893C298.135,-85.8938 295.896,-73.4218 293.906,-62.335"/>
<polygon fill="black" stroke="black" points="297.31,-61.4867 292.098,-52.2623 290.42,-62.7234 297.31,-61.4867"/>
</g>
<!-- foo:dispense_other_product -->
<g id="node12" class="node"><title>foo:dispense_other_product</title>
<polygon fill="none" stroke="black" points="699.31,-52 556.69,-52 556.69,-16 705.31,-16 705.31,-46 699.31,-52"/>
<polyline fill="none" stroke="black" points="699.31,-52 699.31,-46 "/>
<polyline fill="none" stroke="black" points="705.31,-46 699.31,-46 "/>
<text text-anchor="middle" x="631" y="-28.4" font-family="Times,serif" font-size="14.00">dispense_other_product</text>
</g>
<!-- foo:settings&#45;&gt;foo:dispense_other_product -->
<g id="edge9" class="edge"><title>foo:settings&#45;&gt;foo:dispense_other_product</title>
<path fill="none" stroke="black" d="M654.342,-95.6893C650.497,-85.6919 645.579,-72.9064 641.25,-61.651"/>
<polygon fill="black" stroke="black" points="644.496,-60.3394 637.639,-52.2623 637.963,-62.8522 644.496,-60.3394"/>
</g>
<!-- bar:build_preferences -->
<g id="node14" class="node"><title>bar:build_preferences</title>
<polygon fill="none" stroke="black" points="840.213,-52 729.787,-52 729.787,-16 846.213,-16 846.213,-46 840.213,-52"/>
<polyline fill="none" stroke="black" points="840.213,-52 840.213,-46 "/>
<polyline fill="none" stroke="black" points="846.213,-46 840.213,-46 "/>
<text text-anchor="middle" x="788" y="-28.4" font-family="Times,serif" font-size="14.00">build_preferences</text>
</g>
<!-- bar:Noobie.build&#45;&gt;bar:build_preferences -->
<g id="edge11" class="edge"><title>bar:Noobie.build&#45;&gt;bar:build_preferences</title>
<path fill="none" stroke="black" d="M788,-95.6893C788,-85.8938 788,-73.4218 788,-62.335"/>
<polygon fill="black" stroke="black" points="791.5,-62.2623 788,-52.2623 784.5,-62.2624 791.5,-62.2623"/>
</g>
</g>
</svg>
