<?xml version="1.0" encoding="UTF-8" standalone="no"?>
<!DOCTYPE svg PUBLIC "-//W3C//DTD SVG 1.1//EN"
 "http://www.w3.org/Graphics/SVG/1.1/DTD/svg11.dtd">
<!-- Generated by graphviz version 2.34.0 (20131231.1455)
 -->
<!-- Title: pic Pages: 1 -->
<svg width="751pt" height="298pt"
 viewBox="0.00 0.00 751.00 298.00" xmlns="http://www.w3.org/2000/svg" xmlns:xlink="http://www.w3.org/1999/xlink">
<g id="graph0" class="graph" transform="scale(1 1) rotate(0) translate(4 294)">
<title>pic</title>
<polygon fill="white" stroke="white" points="-4,4 -4,-294 747,-294 747,4 -4,4"/>
<g id="clust1" class="cluster"><title>cluster_0</title>
<polygon fill="none" stroke="red" points="8,-8 8,-224 707,-224 707,-8 8,-8"/>
</g>
<!-- 1_Project -->
<g id="node1" class="node"><title>1_Project</title>
<polygon fill="none" stroke="red" points="540.172,-253 540.172,-289 595.828,-289 595.828,-253 540.172,-253"/>
<text text-anchor="middle" x="568" y="-265.4" font-family="Times,serif" font-size="14.00">Project</text>
</g>
<!-- .bootstrap -->
<g id="node4" class="node"><title>.bootstrap</title>
<polygon fill="none" stroke="black" points="603.206,-216 600.206,-220 579.206,-220 576.206,-216 532.794,-216 532.794,-180 603.206,-180 603.206,-216"/>
<text text-anchor="middle" x="568" y="-192.4" font-family="Times,serif" font-size="14.00">.bootstrap</text>
</g>
<!-- 1_Project&#45;&gt;.bootstrap -->
<g id="edge1" class="edge"><title>1_Project&#45;&gt;.bootstrap</title>
<path fill="none" stroke="black" d="M568,-252.813C568,-244.789 568,-235.047 568,-226.069"/>
<polygon fill="black" stroke="black" points="571.5,-234 568,-224 564.5,-234 571.5,-234"/>
</g>
<!-- 2_Foo -->
<g id="node2" class="node"><title>2_Foo</title>
<polygon fill="none" stroke="gray" points="613.555,-253 613.555,-289 668.445,-289 668.445,-253 613.555,-253"/>
<text text-anchor="middle" x="641" y="-265.4" font-family="Times,serif" font-size="14.00">Foobie</text>
</g>
<!-- 3_Bar -->
<g id="node3" class="node"><title>3_Bar</title>
<polygon fill="none" stroke="gray" points="686.393,-253 686.393,-289 743.607,-289 743.607,-253 686.393,-253"/>
<text text-anchor="middle" x="715" y="-265.4" font-family="Times,serif" font-size="14.00">Noobie</text>
</g>
<!-- repositories -->
<g id="node5" class="node"><title>repositories</title>
<polygon fill="#dddddd" stroke="none" points="378,-115 378,-136 585,-136 585,-115 378,-115"/>
<text text-anchor="start" x="448.841" y="-119.9" font-family="Times,serif" font-size="14.00">repositories</text>
<text text-anchor="start" x="380.202" y="-99" font-family="Times,serif" font-size="14.00">https://github.com/mulle&#45;nat/Foobie</text>
<polygon fill="none" stroke="black" points="376.5,-94.5 376.5,-137.5 585.5,-137.5 585.5,-94.5 376.5,-94.5"/>
</g>
<!-- .bootstrap&#45;&gt;repositories -->
<g id="edge2" class="edge"><title>.bootstrap&#45;&gt;repositories</title>
<path fill="none" stroke="black" d="M549.122,-179.641C539.201,-170.519 526.733,-159.053 515.183,-148.433"/>
<polygon fill="black" stroke="black" points="517.493,-145.802 507.763,-141.609 512.755,-150.954 517.493,-145.802"/>
</g>
<!-- Foobie.build -->
<g id="node10" class="node"><title>Foobie.build</title>
<polygon fill="none" stroke="black" points="698.376,-134 695.376,-138 674.376,-138 671.376,-134 611.624,-134 611.624,-98 698.376,-98 698.376,-134"/>
<text text-anchor="middle" x="655" y="-110.4" font-family="Times,serif" font-size="14.00">Foobie.build</text>
</g>
<!-- .bootstrap&#45;&gt;Foobie.build -->
<g id="edge6" class="edge"><title>.bootstrap&#45;&gt;Foobie.build</title>
<path fill="none" stroke="black" d="M586.878,-179.641C599.16,-168.347 615.347,-153.462 628.86,-141.036"/>
<polygon fill="black" stroke="black" points="631.466,-143.395 636.458,-134.05 626.728,-138.243 631.466,-143.395"/>
</g>
<!-- .bootstrap.auto -->
<g id="node6" class="node"><title>.bootstrap.auto</title>
<polygon fill="none" stroke="black" stroke-width="3" points="268.405,-216 265.405,-220 244.405,-220 241.405,-216 169.595,-216 169.595,-180 268.405,-180 268.405,-216"/>
<text text-anchor="middle" x="219" y="-192.4" font-family="Times,serif" font-size="14.00">.bootstrap.auto</text>
</g>
<!-- repositories.auto -->
<g id="node7" class="node"><title>repositories.auto</title>
<polygon fill="#dddddd" stroke="none" points="28,-115 28,-136 235,-136 235,-115 28,-115"/>
<text text-anchor="start" x="98.8413" y="-119.9" font-family="Times,serif" font-size="14.00">repositories</text>
<text text-anchor="start" x="30.2017" y="-99" font-family="Times,serif" font-size="14.00">https://github.com/mulle&#45;nat/Foobie</text>
<polygon fill="none" stroke="black" stroke-width="3" points="26,-94 26,-138 236,-138 236,-94 26,-94"/>
</g>
<!-- .bootstrap.auto&#45;&gt;repositories.auto -->
<g id="edge3" class="edge"><title>.bootstrap.auto&#45;&gt;repositories.auto</title>
<path fill="none" stroke="black" stroke-width="3" d="M199.905,-179.641C190.541,-171.128 178.932,-160.575 167.93,-150.572"/>
<polygon fill="black" stroke="black" points="170.198,-147.904 160.444,-143.767 165.489,-153.084 170.198,-147.904"/>
</g>
<!-- .auto:Foobie.build -->
<g id="node8" class="node"><title>.auto:Foobie.build</title>
<polygon fill="none" stroke="black" stroke-width="3" points="350.376,-134 347.376,-138 326.376,-138 323.376,-134 263.624,-134 263.624,-98 350.376,-98 350.376,-134"/>
<text text-anchor="middle" x="307" y="-110.4" font-family="Times,serif" font-size="14.00">Foobie.build</text>
</g>
<!-- .bootstrap.auto&#45;&gt;.auto:Foobie.build -->
<g id="edge4" class="edge"><title>.bootstrap.auto&#45;&gt;.auto:Foobie.build</title>
<path fill="none" stroke="black" stroke-width="3" d="M238.095,-179.641C250.518,-168.347 266.891,-153.462 280.56,-141.036"/>
<polygon fill="black" stroke="black" points="283.2,-143.367 288.245,-134.05 278.491,-138.187 283.2,-143.367"/>
</g>
<!-- .auto:build_preferences -->
<g id="node9" class="node"><title>.auto:build_preferences</title>
<polygon fill="none" stroke="black" stroke-width="3" points="359.213,-52 248.787,-52 248.787,-16 365.213,-16 365.213,-46 359.213,-52"/>
<polyline fill="none" stroke="black" stroke-width="3" points="359.213,-52 359.213,-46 "/>
<polyline fill="none" stroke="black" stroke-width="3" points="365.213,-46 359.213,-46 "/>
<text text-anchor="middle" x="307" y="-28.4" font-family="Times,serif" font-size="14.00">build_preferences</text>
</g>
<!-- .auto:Foobie.build&#45;&gt;.auto:build_preferences -->
<g id="edge5" class="edge"><title>.auto:Foobie.build&#45;&gt;.auto:build_preferences</title>
<path fill="none" stroke="black" stroke-width="3" d="M307,-97.6412C307,-87.2971 307,-73.941 307,-62.2206"/>
<polygon fill="black" stroke="black" points="310.5,-62.0501 307,-52.0501 303.5,-62.0501 310.5,-62.0501"/>
</g>
<!-- build_preferences -->
<g id="node11" class="node"><title>build_preferences</title>
<polygon fill="none" stroke="black" points="693.213,-52 582.787,-52 582.787,-16 699.213,-16 699.213,-46 693.213,-52"/>
<polyline fill="none" stroke="black" points="693.213,-52 693.213,-46 "/>
<polyline fill="none" stroke="black" points="699.213,-46 693.213,-46 "/>
<text text-anchor="middle" x="641" y="-28.4" font-family="Times,serif" font-size="14.00">build_preferences</text>
</g>
<!-- Foobie.build&#45;&gt;build_preferences -->
<g id="edge7" class="edge"><title>Foobie.build&#45;&gt;build_preferences</title>
<path fill="none" stroke="black" d="M651.962,-97.6412C650.152,-87.2971 647.815,-73.941 645.764,-62.2206"/>
<polygon fill="black" stroke="black" points="649.155,-61.297 643.984,-52.0501 642.26,-62.5038 649.155,-61.297"/>
</g>
</g>
</svg>
