<?xml version="1.0" encoding="UTF-8" standalone="no"?>
<!DOCTYPE svg PUBLIC "-//W3C//DTD SVG 1.1//EN"
 "http://www.w3.org/Graphics/SVG/1.1/DTD/svg11.dtd">
<!-- Generated by graphviz version 2.34.0 (20131231.1455)
 -->
<!-- Title: pic Pages: 1 -->
<svg width="924pt" height="462pt"
 viewBox="0.00 0.00 924.00 462.00" xmlns="http://www.w3.org/2000/svg" xmlns:xlink="http://www.w3.org/1999/xlink">
<g id="graph0" class="graph" transform="scale(1 1) rotate(0) translate(4 458)">
<title>pic</title>
<polygon fill="white" stroke="white" points="-4,4 -4,-458 920,-458 920,4 -4,4"/>
<g id="clust1" class="cluster"><title>cluster_0</title>
<polygon fill="none" stroke="red" points="8,-8 8,-388 549,-388 549,-8 8,-8"/>
</g>
<g id="clust2" class="cluster"><title>cluster_1</title>
<polygon fill="none" stroke="blue" points="557,-172 557,-388 908,-388 908,-172 557,-172"/>
</g>
<!-- 1_Project -->
<g id="node1" class="node"><title>1_Project</title>
<polygon fill="none" stroke="red" points="379.172,-417 379.172,-453 434.828,-453 434.828,-417 379.172,-417"/>
<text text-anchor="middle" x="407" y="-429.4" font-family="Times,serif" font-size="14.00">Project</text>
</g>
<!-- .bootstrap.auto -->
<g id="node4" class="node"><title>.bootstrap.auto</title>
<polygon fill="none" stroke="black" points="456.405,-380 453.405,-384 432.405,-384 429.405,-380 357.595,-380 357.595,-344 456.405,-344 456.405,-380"/>
<text text-anchor="middle" x="407" y="-356.4" font-family="Times,serif" font-size="14.00">.bootstrap.auto</text>
</g>
<!-- 1_Project&#45;&gt;.bootstrap.auto -->
<g id="edge1" class="edge"><title>1_Project&#45;&gt;.bootstrap.auto</title>
<path fill="none" stroke="black" d="M407,-416.813C407,-408.789 407,-399.047 407,-390.069"/>
<polygon fill="black" stroke="black" points="410.5,-398 407,-388 403.5,-398 410.5,-398"/>
</g>
<!-- 2_Foo -->
<g id="node2" class="node"><title>2_Foo</title>
<polygon fill="none" stroke="blue" points="739.555,-417 739.555,-453 794.445,-453 794.445,-417 739.555,-417"/>
<text text-anchor="middle" x="767" y="-429.4" font-family="Times,serif" font-size="14.00">Foobie</text>
</g>
<!-- foo:.bootstrap -->
<g id="node5" class="node"><title>foo:.bootstrap</title>
<polygon fill="none" stroke="black" points="802.206,-380 799.206,-384 778.206,-384 775.206,-380 731.794,-380 731.794,-344 802.206,-344 802.206,-380"/>
<text text-anchor="middle" x="767" y="-356.4" font-family="Times,serif" font-size="14.00">.bootstrap</text>
</g>
<!-- 2_Foo&#45;&gt;foo:.bootstrap -->
<g id="edge2" class="edge"><title>2_Foo&#45;&gt;foo:.bootstrap</title>
<path fill="none" stroke="black" d="M767,-416.813C767,-408.789 767,-399.047 767,-390.069"/>
<polygon fill="black" stroke="black" points="770.5,-398 767,-388 763.5,-398 770.5,-398"/>
</g>
<!-- 3_Bar -->
<g id="node3" class="node"><title>3_Bar</title>
<polygon fill="none" stroke="gray" points="812.393,-417 812.393,-453 869.607,-453 869.607,-417 812.393,-417"/>
<text text-anchor="middle" x="841" y="-429.4" font-family="Times,serif" font-size="14.00">Noobie</text>
</g>
<!-- repositories.auto -->
<g id="node8" class="node"><title>repositories.auto</title>
<polygon fill="#dddddd" stroke="none" points="220,-279 220,-300 427,-300 427,-279 220,-279"/>
<text text-anchor="start" x="290.841" y="-283.9" font-family="Times,serif" font-size="14.00">repositories</text>
<text text-anchor="start" x="222.202" y="-263" font-family="Times,serif" font-size="14.00">https://github.com/mulle&#45;nat/Foobie</text>
<polygon fill="none" stroke="black" points="218.5,-258.5 218.5,-301.5 427.5,-301.5 427.5,-258.5 218.5,-258.5"/>
</g>
<!-- .bootstrap.auto&#45;&gt;repositories.auto -->
<g id="edge4" class="edge"><title>.bootstrap.auto&#45;&gt;repositories.auto</title>
<path fill="none" stroke="black" d="M388.773,-343.641C379.286,-334.605 367.385,-323.271 356.324,-312.737"/>
<polygon fill="black" stroke="black" points="358.495,-309.971 348.84,-305.609 353.667,-315.04 358.495,-309.971"/>
</g>
<!-- .auto:Foo -->
<g id="node9" class="node"><title>.auto:Foo</title>
<polygon fill="none" stroke="black" points="540.376,-298 537.376,-302 516.376,-302 513.376,-298 453.624,-298 453.624,-262 540.376,-262 540.376,-298"/>
<text text-anchor="middle" x="497" y="-274.4" font-family="Times,serif" font-size="14.00">Foobie.build</text>
</g>
<!-- .bootstrap.auto&#45;&gt;.auto:Foo -->
<g id="edge5" class="edge"><title>.bootstrap.auto&#45;&gt;.auto:Foo</title>
<path fill="none" stroke="black" d="M426.529,-343.641C439.234,-332.347 455.98,-317.462 469.959,-305.036"/>
<polygon fill="black" stroke="black" points="472.67,-307.31 477.819,-298.05 468.019,-302.078 472.67,-307.31"/>
</g>
<!-- foo:repositories -->
<g id="node17" class="node"><title>foo:repositories</title>
<polygon fill="#dddddd" stroke="none" points="575,-279 575,-300 784,-300 784,-279 575,-279"/>
<text text-anchor="start" x="646.841" y="-283.9" font-family="Times,serif" font-size="14.00">repositories</text>
<text text-anchor="start" x="577.04" y="-263" font-family="Times,serif" font-size="14.00">https://github.com/mulle&#45;nat/Noobie</text>
<polygon fill="none" stroke="black" points="573.5,-258.5 573.5,-301.5 784.5,-301.5 784.5,-258.5 573.5,-258.5"/>
</g>
<!-- foo:.bootstrap&#45;&gt;foo:repositories -->
<g id="edge12" class="edge"><title>foo:.bootstrap&#45;&gt;foo:repositories</title>
<path fill="none" stroke="black" d="M747.905,-343.641C737.87,-334.519 725.258,-323.053 713.576,-312.433"/>
<polygon fill="black" stroke="black" points="715.824,-309.746 706.07,-305.609 711.115,-314.926 715.824,-309.746"/>
</g>
<!-- foo:Noobie.build -->
<g id="node18" class="node"><title>foo:Noobie.build</title>
<polygon fill="none" stroke="black" points="899.619,-298 896.619,-302 875.619,-302 872.619,-298 810.381,-298 810.381,-262 899.619,-262 899.619,-298"/>
<text text-anchor="middle" x="855" y="-274.4" font-family="Times,serif" font-size="14.00">Noobie.build</text>
</g>
<!-- foo:.bootstrap&#45;&gt;foo:Noobie.build -->
<g id="edge13" class="edge"><title>foo:.bootstrap&#45;&gt;foo:Noobie.build</title>
<path fill="none" stroke="black" d="M786.095,-343.641C798.518,-332.347 814.891,-317.462 828.56,-305.036"/>
<polygon fill="black" stroke="black" points="831.2,-307.367 836.245,-298.05 826.491,-302.187 831.2,-307.367"/>
</g>
<!-- stashes -->
<g id="node6" class="node"><title>stashes</title>
<polygon fill="none" stroke="black" stroke-width="3" points="195.25,-380 192.25,-384 171.25,-384 168.25,-380 140.75,-380 140.75,-344 195.25,-344 195.25,-380"/>
<text text-anchor="middle" x="168" y="-356.4" font-family="Times,serif" font-size="14.00">stashes</text>
</g>
<!-- stashes#Foo -->
<g id="node7" class="node"><title>stashes#Foo</title>
<polygon fill="none" stroke="black" stroke-width="3" points="192.168,-298 189.168,-302 168.168,-302 165.168,-298 137.832,-298 137.832,-262 192.168,-262 192.168,-298"/>
<text text-anchor="middle" x="165" y="-274.4" font-family="Times,serif" font-size="14.00">Foobie</text>
</g>
<!-- stashes&#45;&gt;stashes#Foo -->
<g id="edge3" class="edge"><title>stashes&#45;&gt;stashes#Foo</title>
<path fill="none" stroke="black" stroke-width="3" d="M167.349,-343.641C166.961,-333.297 166.46,-319.941 166.021,-308.221"/>
<polygon fill="black" stroke="black" points="169.512,-307.912 165.639,-298.05 162.517,-308.174 169.512,-307.912"/>
</g>
<!-- stashes#foo:.bootstrap -->
<g id="node12" class="node"><title>stashes#foo:.bootstrap</title>
<polygon fill="none" stroke="black" stroke-width="3" points="200.206,-216 197.206,-220 176.206,-220 173.206,-216 129.794,-216 129.794,-180 200.206,-180 200.206,-216"/>
<text text-anchor="middle" x="165" y="-192.4" font-family="Times,serif" font-size="14.00">.bootstrap</text>
</g>
<!-- stashes#Foo&#45;&gt;stashes#foo:.bootstrap -->
<g id="edge7" class="edge"><title>stashes#Foo&#45;&gt;stashes#foo:.bootstrap</title>
<path fill="none" stroke="black" stroke-width="3" d="M165,-261.641C165,-251.297 165,-237.941 165,-226.221"/>
<polygon fill="black" stroke="black" points="168.5,-226.05 165,-216.05 161.5,-226.05 168.5,-226.05"/>
</g>
<!-- .auto:build_preferences -->
<g id="node13" class="node"><title>.auto:build_preferences</title>
<polygon fill="none" stroke="black" points="535.213,-216 424.787,-216 424.787,-180 541.213,-180 541.213,-210 535.213,-216"/>
<polyline fill="none" stroke="black" points="535.213,-216 535.213,-210 "/>
<polyline fill="none" stroke="black" points="541.213,-210 535.213,-210 "/>
<text text-anchor="middle" x="483" y="-192.4" font-family="Times,serif" font-size="14.00">build_preferences</text>
</g>
<!-- .auto:Foo&#45;&gt;.auto:build_preferences -->
<g id="edge8" class="edge"><title>.auto:Foo&#45;&gt;.auto:build_preferences</title>
<path fill="none" stroke="black" d="M493.962,-261.641C492.152,-251.297 489.815,-237.941 487.764,-226.221"/>
<polygon fill="black" stroke="black" points="491.155,-225.297 485.984,-216.05 484.26,-226.504 491.155,-225.297"/>
</g>
<!-- .bootstrap.repos -->
<g id="node10" class="node"><title>.bootstrap.repos</title>
<polygon fill="none" stroke="black" stroke-width="3" points="121.57,-380 118.57,-384 97.5702,-384 94.5702,-380 16.4298,-380 16.4298,-344 121.57,-344 121.57,-380"/>
<text text-anchor="middle" x="69" y="-356.4" font-family="Times,serif" font-size="14.00">.bootstrap.repos</text>
</g>
<!-- symlink.Foo -->
<g id="node11" class="node"><title>symlink.Foo</title>
<polygon fill="#dddddd" stroke="none" points="28,-279 28,-300 109,-300 109,-279 28,-279"/>
<text text-anchor="start" x="49.0552" y="-283.9" font-family="Times,serif" font-size="14.00">Foobie</text>
<text text-anchor="start" x="30.3862" y="-263" font-family="Times,serif" font-size="14.00">../stashes/Foo</text>
<polygon fill="none" stroke="black" stroke-width="3" points="26,-258 26,-302 110,-302 110,-258 26,-258"/>
</g>
<!-- .bootstrap.repos&#45;&gt;symlink.Foo -->
<g id="edge6" class="edge"><title>.bootstrap.repos&#45;&gt;symlink.Foo</title>
<path fill="none" stroke="black" stroke-width="3" d="M68.783,-343.641C68.6889,-336.11 68.5748,-326.983 68.4632,-318.053"/>
<polygon fill="black" stroke="black" points="71.9594,-317.723 68.3346,-307.767 64.96,-317.81 71.9594,-317.723"/>
</g>
<!-- stashes#foo:repositories -->
<g id="node14" class="node"><title>stashes#foo:repositories</title>
<polygon fill="#dddddd" stroke="none" points="44,-115 44,-136 253,-136 253,-115 44,-115"/>
<text text-anchor="start" x="115.841" y="-119.9" font-family="Times,serif" font-size="14.00">repositories</text>
<text text-anchor="start" x="46.0396" y="-99" font-family="Times,serif" font-size="14.00">https://github.com/mulle&#45;nat/Noobie</text>
<polygon fill="none" stroke="black" stroke-width="3" points="42,-94 42,-138 254,-138 254,-94 42,-94"/>
</g>
<!-- stashes#foo:.bootstrap&#45;&gt;stashes#foo:repositories -->
<g id="edge9" class="edge"><title>stashes#foo:.bootstrap&#45;&gt;stashes#foo:repositories</title>
<path fill="none" stroke="black" stroke-width="3" d="M161.311,-179.641C159.694,-172.029 157.729,-162.785 155.812,-153.762"/>
<polygon fill="black" stroke="black" points="159.19,-152.822 153.688,-143.767 152.343,-154.277 159.19,-152.822"/>
</g>
<!-- stashes#foo:Noobie.build -->
<g id="node15" class="node"><title>stashes#foo:Noobie.build</title>
<polygon fill="none" stroke="black" stroke-width="3" points="370.619,-134 367.619,-138 346.619,-138 343.619,-134 281.381,-134 281.381,-98 370.619,-98 370.619,-134"/>
<text text-anchor="middle" x="326" y="-110.4" font-family="Times,serif" font-size="14.00">Noobie.build</text>
</g>
<!-- stashes#foo:.bootstrap&#45;&gt;stashes#foo:Noobie.build -->
<g id="edge10" class="edge"><title>stashes#foo:.bootstrap&#45;&gt;stashes#foo:Noobie.build</title>
<path fill="none" stroke="black" stroke-width="3" d="M199.712,-179.847C220.658,-169.487 247.873,-156.007 272,-144 275.541,-142.238 279.211,-140.409 282.896,-138.57"/>
<polygon fill="black" stroke="black" points="284.636,-141.614 292.019,-134.015 281.508,-135.351 284.636,-141.614"/>
</g>
<!-- stashes#foo:dispense_other_product -->
<g id="node16" class="node"><title>stashes#foo:dispense_other_product</title>
<polygon fill="none" stroke="black" stroke-width="3" points="394.31,-52 251.69,-52 251.69,-16 400.31,-16 400.31,-46 394.31,-52"/>
<polyline fill="none" stroke="black" stroke-width="3" points="394.31,-52 394.31,-46 "/>
<polyline fill="none" stroke="black" stroke-width="3" points="400.31,-46 394.31,-46 "/>
<text text-anchor="middle" x="326" y="-28.4" font-family="Times,serif" font-size="14.00">dispense_other_product</text>
</g>
<!-- stashes#foo:Noobie.build&#45;&gt;stashes#foo:dispense_other_product -->
<g id="edge11" class="edge"><title>stashes#foo:Noobie.build&#45;&gt;stashes#foo:dispense_other_product</title>
<path fill="none" stroke="black" stroke-width="3" d="M326,-97.6412C326,-87.2971 326,-73.941 326,-62.2206"/>
<polygon fill="black" stroke="black" points="329.5,-62.0501 326,-52.0501 322.5,-62.0501 329.5,-62.0501"/>
</g>
<!-- foo:dispense_other_product -->
<g id="node19" class="node"><title>foo:dispense_other_product</title>
<polygon fill="none" stroke="black" points="893.31,-216 750.69,-216 750.69,-180 899.31,-180 899.31,-210 893.31,-216"/>
<polyline fill="none" stroke="black" points="893.31,-216 893.31,-210 "/>
<polyline fill="none" stroke="black" points="899.31,-210 893.31,-210 "/>
<text text-anchor="middle" x="825" y="-192.4" font-family="Times,serif" font-size="14.00">dispense_other_product</text>
</g>
<!-- foo:Noobie.build&#45;&gt;foo:dispense_other_product -->
<g id="edge14" class="edge"><title>foo:Noobie.build&#45;&gt;foo:dispense_other_product</title>
<path fill="none" stroke="black" d="M848.49,-261.641C844.532,-251.086 839.398,-237.395 834.939,-225.505"/>
<polygon fill="black" stroke="black" points="838.182,-224.184 831.394,-216.05 831.628,-226.642 838.182,-224.184"/>
</g>
</g>
</svg>
