<?xml version="1.0" encoding="UTF-8" standalone="no"?>
<!DOCTYPE svg PUBLIC "-//W3C//DTD SVG 1.1//EN"
 "http://www.w3.org/Graphics/SVG/1.1/DTD/svg11.dtd">
<!-- Generated by graphviz version 2.34.0 (20131231.1455)
 -->
<!-- Title: pic Pages: 1 -->
<svg width="606pt" height="478pt"
 viewBox="0.00 0.00 606.00 478.00" xmlns="http://www.w3.org/2000/svg" xmlns:xlink="http://www.w3.org/1999/xlink">
<g id="graph0" class="graph" transform="scale(1 1) rotate(0) translate(4 474)">
<title>pic</title>
<polygon fill="white" stroke="white" points="-4,4 -4,-474 602,-474 602,4 -4,4"/>
<g id="clust1" class="cluster"><title>cluster_0</title>
<polygon fill="none" stroke="red" points="8,-8 8,-404 567,-404 567,-8 8,-8"/>
</g>
<!-- 1_Project -->
<g id="node1" class="node"><title>1_Project</title>
<polygon fill="none" stroke="red" points="395.172,-433 395.172,-469 450.828,-469 450.828,-433 395.172,-433"/>
<text text-anchor="middle" x="423" y="-445.4" font-family="Times,serif" font-size="14.00">Project</text>
</g>
<!-- .bootstrap.auto -->
<g id="node4" class="node"><title>.bootstrap.auto</title>
<polygon fill="none" stroke="black" stroke-width="3" points="472.405,-396 469.405,-400 448.405,-400 445.405,-396 373.595,-396 373.595,-360 472.405,-360 472.405,-396"/>
<text text-anchor="middle" x="423" y="-372.4" font-family="Times,serif" font-size="14.00">.bootstrap.auto</text>
</g>
<!-- 1_Project&#45;&gt;.bootstrap.auto -->
<g id="edge1" class="edge"><title>1_Project&#45;&gt;.bootstrap.auto</title>
<path fill="none" stroke="black" d="M423,-432.813C423,-424.789 423,-415.047 423,-406.069"/>
<polygon fill="black" stroke="black" points="426.5,-414 423,-404 419.5,-414 426.5,-414"/>
</g>
<!-- 2_Foo -->
<g id="node2" class="node"><title>2_Foo</title>
<polygon fill="none" stroke="gray" points="468.555,-433 468.555,-469 523.445,-469 523.445,-433 468.555,-433"/>
<text text-anchor="middle" x="496" y="-445.4" font-family="Times,serif" font-size="14.00">Foobie</text>
</g>
<!-- 3_Bar -->
<g id="node3" class="node"><title>3_Bar</title>
<polygon fill="none" stroke="gray" points="541.393,-433 541.393,-469 598.607,-469 598.607,-433 541.393,-433"/>
<text text-anchor="middle" x="570" y="-445.4" font-family="Times,serif" font-size="14.00">Noobie</text>
</g>
<!-- repositories.auto -->
<g id="node8" class="node"><title>repositories.auto</title>
<polygon fill="#dddddd" stroke="none" points="234,-295 234,-316 443,-316 443,-295 234,-295"/>
<text text-anchor="start" x="305.841" y="-299.9" font-family="Times,serif" font-size="14.00">repositories</text>
<text text-anchor="start" x="236.04" y="-279" font-family="Times,serif" font-size="14.00">https://github.com/mulle&#45;nat/Noobie</text>
<text text-anchor="start" x="237.202" y="-259" font-family="Times,serif" font-size="14.00">https://github.com/mulle&#45;nat/Foobie</text>
<polygon fill="none" stroke="black" stroke-width="3" points="232,-254 232,-318 444,-318 444,-254 232,-254"/>
</g>
<!-- .bootstrap.auto&#45;&gt;repositories.auto -->
<g id="edge4" class="edge"><title>.bootstrap.auto&#45;&gt;repositories.auto</title>
<path fill="none" stroke="black" stroke-width="3" d="M406.611,-359.647C398.847,-351.426 389.185,-341.196 379.585,-331.031"/>
<polygon fill="black" stroke="black" points="382.045,-328.538 372.634,-323.671 376.956,-333.345 382.045,-328.538"/>
</g>
<!-- .auto:Foo -->
<g id="node9" class="node"><title>.auto:Foo</title>
<polygon fill="none" stroke="black" points="558.376,-304 555.376,-308 534.376,-308 531.376,-304 471.624,-304 471.624,-268 558.376,-268 558.376,-304"/>
<text text-anchor="middle" x="515" y="-280.4" font-family="Times,serif" font-size="14.00">Foobie.build</text>
</g>
<!-- .bootstrap.auto&#45;&gt;.auto:Foo -->
<g id="edge5" class="edge"><title>.bootstrap.auto&#45;&gt;.auto:Foo</title>
<path fill="none" stroke="black" d="M440.739,-359.647C454.739,-345.951 474.441,-326.677 490.034,-311.423"/>
<polygon fill="black" stroke="black" points="492.615,-313.795 497.316,-304.3 487.72,-308.791 492.615,-313.795"/>
</g>
<!-- stashes -->
<g id="node5" class="node"><title>stashes</title>
<polygon fill="none" stroke="black" points="204.25,-396 201.25,-400 180.25,-400 177.25,-396 149.75,-396 149.75,-360 204.25,-360 204.25,-396"/>
<text text-anchor="middle" x="177" y="-372.4" font-family="Times,serif" font-size="14.00">stashes</text>
</g>
<!-- stashes#Foo -->
<g id="node6" class="node"><title>stashes#Foo</title>
<polygon fill="none" stroke="black" points="204.168,-304 201.168,-308 180.168,-308 177.168,-304 149.832,-304 149.832,-268 204.168,-268 204.168,-304"/>
<text text-anchor="middle" x="177" y="-280.4" font-family="Times,serif" font-size="14.00">Foobie</text>
</g>
<!-- stashes&#45;&gt;stashes#Foo -->
<g id="edge2" class="edge"><title>stashes&#45;&gt;stashes#Foo</title>
<path fill="none" stroke="black" d="M177,-359.647C177,-346.823 177,-329.108 177,-314.381"/>
<polygon fill="black" stroke="black" points="180.5,-314.3 177,-304.3 173.5,-314.3 180.5,-314.3"/>
</g>
<!-- stashes#foo:.bootstrap -->
<g id="node7" class="node"><title>stashes#foo:.bootstrap</title>
<polygon fill="none" stroke="black" points="212.206,-212 209.206,-216 188.206,-216 185.206,-212 141.794,-212 141.794,-176 212.206,-176 212.206,-212"/>
<text text-anchor="middle" x="177" y="-188.4" font-family="Times,serif" font-size="14.00">.bootstrap</text>
</g>
<!-- stashes#Foo&#45;&gt;stashes#foo:.bootstrap -->
<g id="edge3" class="edge"><title>stashes#Foo&#45;&gt;stashes#foo:.bootstrap</title>
<path fill="none" stroke="black" d="M177,-267.647C177,-254.823 177,-237.108 177,-222.381"/>
<polygon fill="black" stroke="black" points="180.5,-222.3 177,-212.3 173.5,-222.3 180.5,-222.3"/>
</g>
<!-- stashes#foo:repositories -->
<g id="node13" class="node"><title>stashes#foo:repositories</title>
<polygon fill="#dddddd" stroke="none" points="49,-113 49,-134 258,-134 258,-113 49,-113"/>
<text text-anchor="start" x="120.841" y="-117.9" font-family="Times,serif" font-size="14.00">repositories</text>
<text text-anchor="start" x="51.0396" y="-97" font-family="Times,serif" font-size="14.00">https://github.com/mulle&#45;nat/Noobie</text>
<polygon fill="none" stroke="black" points="47.5,-92.5 47.5,-135.5 258.5,-135.5 258.5,-92.5 47.5,-92.5"/>
</g>
<!-- stashes#foo:.bootstrap&#45;&gt;stashes#foo:repositories -->
<g id="edge8" class="edge"><title>stashes#foo:.bootstrap&#45;&gt;stashes#foo:repositories</title>
<path fill="none" stroke="black" d="M171.674,-175.689C169.28,-167.911 166.367,-158.444 163.561,-149.324"/>
<polygon fill="black" stroke="black" points="166.874,-148.188 160.588,-139.66 160.183,-150.247 166.874,-148.188"/>
</g>
<!-- stashes#foo:Noobie.build -->
<g id="node14" class="node"><title>stashes#foo:Noobie.build</title>
<polygon fill="none" stroke="black" points="373.619,-132 370.619,-136 349.619,-136 346.619,-132 284.381,-132 284.381,-96 373.619,-96 373.619,-132"/>
<text text-anchor="middle" x="329" y="-108.4" font-family="Times,serif" font-size="14.00">Noobie.build</text>
</g>
<!-- stashes#foo:.bootstrap&#45;&gt;stashes#foo:Noobie.build -->
<g id="edge9" class="edge"><title>stashes#foo:.bootstrap&#45;&gt;stashes#foo:Noobie.build</title>
<path fill="none" stroke="black" d="M210.357,-175.883C232.829,-164.351 262.656,-149.045 286.781,-136.665"/>
<polygon fill="black" stroke="black" points="288.422,-139.757 295.721,-132.078 285.226,-133.529 288.422,-139.757"/>
</g>
<!-- .auto:build_preferences -->
<g id="node12" class="node"><title>.auto:build_preferences</title>
<polygon fill="none" stroke="black" points="553.213,-212 442.787,-212 442.787,-176 559.213,-176 559.213,-206 553.213,-212"/>
<polyline fill="none" stroke="black" points="553.213,-212 553.213,-206 "/>
<polyline fill="none" stroke="black" points="559.213,-206 553.213,-206 "/>
<text text-anchor="middle" x="501" y="-188.4" font-family="Times,serif" font-size="14.00">build_preferences</text>
</g>
<!-- .auto:Foo&#45;&gt;.auto:build_preferences -->
<g id="edge7" class="edge"><title>.auto:Foo&#45;&gt;.auto:build_preferences</title>
<path fill="none" stroke="black" d="M512.301,-267.647C510.306,-254.823 507.55,-237.108 505.259,-222.381"/>
<polygon fill="black" stroke="black" points="508.687,-221.643 503.691,-212.3 501.77,-222.719 508.687,-221.643"/>
</g>
<!-- .bootstrap.repos -->
<g id="node10" class="node"><title>.bootstrap.repos</title>
<polygon fill="none" stroke="black" points="126.57,-396 123.57,-400 102.57,-400 99.5702,-396 21.4298,-396 21.4298,-360 126.57,-360 126.57,-396"/>
<text text-anchor="middle" x="74" y="-372.4" font-family="Times,serif" font-size="14.00">.bootstrap.repos</text>
</g>
<!-- symlink.Foo -->
<g id="node11" class="node"><title>symlink.Foo</title>
<polygon fill="#dddddd" stroke="none" points="25,-285 25,-306 123,-306 123,-285 25,-285"/>
<text text-anchor="start" x="54.5552" y="-289.9" font-family="Times,serif" font-size="14.00">Foobie</text>
<text text-anchor="start" x="27.3345" y="-269" font-family="Times,serif" font-size="14.00">../stashes/Foobie</text>
<polygon fill="none" stroke="black" points="24,-264.5 24,-307.5 124,-307.5 124,-264.5 24,-264.5"/>
</g>
<!-- .bootstrap.repos&#45;&gt;symlink.Foo -->
<g id="edge6" class="edge"><title>.bootstrap.repos&#45;&gt;symlink.Foo</title>
<path fill="none" stroke="black" d="M74,-359.647C74,-348.926 74,-334.786 74,-321.833"/>
<polygon fill="black" stroke="black" points="77.5001,-321.786 74,-311.786 70.5001,-321.786 77.5001,-321.786"/>
</g>
<!-- stashes#foo:dispense_other_product -->
<g id="node15" class="node"><title>stashes#foo:dispense_other_product</title>
<polygon fill="none" stroke="black" points="397.31,-52 254.69,-52 254.69,-16 403.31,-16 403.31,-46 397.31,-52"/>
<polyline fill="none" stroke="black" points="397.31,-52 397.31,-46 "/>
<polyline fill="none" stroke="black" points="403.31,-46 397.31,-46 "/>
<text text-anchor="middle" x="329" y="-28.4" font-family="Times,serif" font-size="14.00">dispense_other_product</text>
</g>
<!-- stashes#foo:Noobie.build&#45;&gt;stashes#foo:dispense_other_product -->
<g id="edge10" class="edge"><title>stashes#foo:Noobie.build&#45;&gt;stashes#foo:dispense_other_product</title>
<path fill="none" stroke="black" d="M329,-95.6893C329,-85.8938 329,-73.4218 329,-62.335"/>
<polygon fill="black" stroke="black" points="332.5,-62.2623 329,-52.2623 325.5,-62.2624 332.5,-62.2623"/>
</g>
</g>
</svg>
