<?xml version="1.0" encoding="UTF-8" standalone="no"?>
<!DOCTYPE svg PUBLIC "-//W3C//DTD SVG 1.1//EN"
 "http://www.w3.org/Graphics/SVG/1.1/DTD/svg11.dtd">
<!-- Generated by graphviz version 2.34.0 (20131231.1455)
 -->
<!-- Title: pic Pages: 1 -->
<svg width="941pt" height="474pt"
 viewBox="0.00 0.00 941.00 474.00" xmlns="http://www.w3.org/2000/svg" xmlns:xlink="http://www.w3.org/1999/xlink">
<g id="graph0" class="graph" transform="scale(1 1) rotate(0) translate(4 470)">
<title>pic</title>
<polygon fill="white" stroke="white" points="-4,4 -4,-470 937,-470 937,4 -4,4"/>
<g id="clust1" class="cluster"><title>cluster_0</title>
<polygon fill="none" stroke="red" points="8,-8 8,-400 778,-400 778,-8 8,-8"/>
</g>
<g id="clust2" class="cluster"><title>cluster_2</title>
<polygon fill="none" stroke="green" points="793,-168 793,-400 925,-400 925,-168 793,-168"/>
</g>
<!-- 1_Project -->
<g id="node1" class="node"><title>1_Project</title>
<polygon fill="none" stroke="red" points="564.172,-429 564.172,-465 619.828,-465 619.828,-429 564.172,-429"/>
<text text-anchor="middle" x="592" y="-441.4" font-family="Times,serif" font-size="14.00">Project</text>
</g>
<!-- .bootstrap.auto -->
<g id="node4" class="node"><title>.bootstrap.auto</title>
<polygon fill="none" stroke="black" points="641.405,-392 638.405,-396 617.405,-396 614.405,-392 542.595,-392 542.595,-356 641.405,-356 641.405,-392"/>
<text text-anchor="middle" x="592" y="-368.4" font-family="Times,serif" font-size="14.00">.bootstrap.auto</text>
</g>
<!-- 1_Project&#45;&gt;.bootstrap.auto -->
<g id="edge1" class="edge"><title>1_Project&#45;&gt;.bootstrap.auto</title>
<path fill="none" stroke="black" d="M592,-428.813C592,-420.789 592,-411.047 592,-402.069"/>
<polygon fill="black" stroke="black" points="595.5,-410 592,-400 588.5,-410 595.5,-410"/>
</g>
<!-- 2_Foo -->
<g id="node2" class="node"><title>2_Foo</title>
<polygon fill="none" stroke="gray" points="717.555,-429 717.555,-465 772.445,-465 772.445,-429 717.555,-429"/>
<text text-anchor="middle" x="745" y="-441.4" font-family="Times,serif" font-size="14.00">Foobie</text>
</g>
<!-- 3_Bar -->
<g id="node3" class="node"><title>3_Bar</title>
<polygon fill="none" stroke="green" points="830.393,-429 830.393,-465 887.607,-465 887.607,-429 830.393,-429"/>
<text text-anchor="middle" x="859" y="-441.4" font-family="Times,serif" font-size="14.00">Noobie</text>
</g>
<!-- bar:.bootstrap -->
<g id="node5" class="node"><title>bar:.bootstrap</title>
<polygon fill="none" stroke="black" points="894.206,-392 891.206,-396 870.206,-396 867.206,-392 823.794,-392 823.794,-356 894.206,-356 894.206,-392"/>
<text text-anchor="middle" x="859" y="-368.4" font-family="Times,serif" font-size="14.00">.bootstrap</text>
</g>
<!-- 3_Bar&#45;&gt;bar:.bootstrap -->
<g id="edge2" class="edge"><title>3_Bar&#45;&gt;bar:.bootstrap</title>
<path fill="none" stroke="black" d="M859,-428.813C859,-420.789 859,-411.047 859,-402.069"/>
<polygon fill="black" stroke="black" points="862.5,-410 859,-400 855.5,-410 862.5,-410"/>
</g>
<!-- repositories.auto -->
<g id="node6" class="node"><title>repositories.auto</title>
<polygon fill="#dddddd" stroke="none" points="447,-293 447,-314 656,-314 656,-293 447,-293"/>
<text text-anchor="start" x="518.841" y="-297.9" font-family="Times,serif" font-size="14.00">repositories</text>
<text text-anchor="start" x="449.04" y="-277" font-family="Times,serif" font-size="14.00">https://github.com/mulle&#45;nat/Noobie</text>
<text text-anchor="start" x="450.202" y="-257" font-family="Times,serif" font-size="14.00">https://github.com/mulle&#45;nat/Foobie</text>
<polygon fill="none" stroke="black" points="445.5,-252.5 445.5,-315.5 656.5,-315.5 656.5,-252.5 445.5,-252.5"/>
</g>
<!-- .bootstrap.auto&#45;&gt;repositories.auto -->
<g id="edge3" class="edge"><title>.bootstrap.auto&#45;&gt;repositories.auto</title>
<path fill="none" stroke="black" d="M583.9,-355.614C580.329,-347.95 575.955,-338.561 571.576,-329.162"/>
<polygon fill="black" stroke="black" points="574.62,-327.41 567.225,-319.823 568.275,-330.366 574.62,-327.41"/>
</g>
<!-- .auto:Foo -->
<g id="node7" class="node"><title>.auto:Foo</title>
<polygon fill="none" stroke="black" points="769.376,-302 766.376,-306 745.376,-306 742.376,-302 682.624,-302 682.624,-266 769.376,-266 769.376,-302"/>
<text text-anchor="middle" x="726" y="-278.4" font-family="Times,serif" font-size="14.00">Foobie.build</text>
</g>
<!-- .bootstrap.auto&#45;&gt;.auto:Foo -->
<g id="edge4" class="edge"><title>.bootstrap.auto&#45;&gt;.auto:Foo</title>
<path fill="none" stroke="black" d="M618.283,-355.842C634.142,-345.48 654.744,-332 673,-320 678.943,-316.093 685.256,-311.933 691.375,-307.896"/>
<polygon fill="black" stroke="black" points="693.719,-310.542 700.136,-302.112 689.862,-304.701 693.719,-310.542"/>
</g>
<!-- bar:settings -->
<g id="node22" class="node"><title>bar:settings</title>
<polygon fill="none" stroke="black" points="903.619,-302 900.619,-306 879.619,-306 876.619,-302 814.381,-302 814.381,-266 903.619,-266 903.619,-302"/>
<text text-anchor="middle" x="859" y="-278.4" font-family="Times,serif" font-size="14.00">Noobie.build</text>
</g>
<!-- bar:.bootstrap&#45;&gt;bar:settings -->
<g id="edge17" class="edge"><title>bar:.bootstrap&#45;&gt;bar:settings</title>
<path fill="none" stroke="black" d="M859,-355.614C859,-343.24 859,-326.369 859,-312.22"/>
<polygon fill="black" stroke="black" points="862.5,-312.05 859,-302.05 855.5,-312.05 862.5,-312.05"/>
</g>
<!-- .auto:build_preferences -->
<g id="node8" class="node"><title>.auto:build_preferences</title>
<polygon fill="none" stroke="black" points="764.213,-212 653.787,-212 653.787,-176 770.213,-176 770.213,-206 764.213,-212"/>
<polyline fill="none" stroke="black" points="764.213,-212 764.213,-206 "/>
<polyline fill="none" stroke="black" points="770.213,-206 764.213,-206 "/>
<text text-anchor="middle" x="712" y="-188.4" font-family="Times,serif" font-size="14.00">build_preferences</text>
</g>
<!-- .auto:Foo&#45;&gt;.auto:build_preferences -->
<g id="edge5" class="edge"><title>.auto:Foo&#45;&gt;.auto:build_preferences</title>
<path fill="none" stroke="black" d="M723.234,-265.614C721.266,-253.24 718.581,-236.369 716.33,-222.22"/>
<polygon fill="black" stroke="black" points="719.74,-221.376 714.713,-212.05 712.827,-222.476 719.74,-221.376"/>
</g>
<!-- stashes -->
<g id="node9" class="node"><title>stashes</title>
<polygon fill="none" stroke="black" stroke-width="3" points="381.25,-392 378.25,-396 357.25,-396 354.25,-392 326.75,-392 326.75,-356 381.25,-356 381.25,-392"/>
<text text-anchor="middle" x="354" y="-368.4" font-family="Times,serif" font-size="14.00">stashes</text>
</g>
<!-- stashes#Foo -->
<g id="node10" class="node"><title>stashes#Foo</title>
<polygon fill="none" stroke="black" points="344.168,-302 341.168,-306 320.168,-306 317.168,-302 289.832,-302 289.832,-266 344.168,-266 344.168,-302"/>
<text text-anchor="middle" x="317" y="-278.4" font-family="Times,serif" font-size="14.00">Foobie</text>
</g>
<!-- stashes&#45;&gt;stashes#Foo -->
<g id="edge6" class="edge"><title>stashes&#45;&gt;stashes#Foo</title>
<path fill="none" stroke="black" d="M346.69,-355.614C341.385,-342.998 334.115,-325.705 328.096,-311.391"/>
<polygon fill="black" stroke="black" points="331.271,-309.912 324.169,-302.05 324.818,-312.625 331.271,-309.912"/>
</g>
<!-- stashes#Bar -->
<g id="node11" class="node"><title>stashes#Bar</title>
<polygon fill="none" stroke="black" stroke-width="3" points="419.41,-302 416.41,-306 395.41,-306 392.41,-302 362.59,-302 362.59,-266 419.41,-266 419.41,-302"/>
<text text-anchor="middle" x="391" y="-278.4" font-family="Times,serif" font-size="14.00">Noobie</text>
</g>
<!-- stashes&#45;&gt;stashes#Bar -->
<g id="edge7" class="edge"><title>stashes&#45;&gt;stashes#Bar</title>
<path fill="none" stroke="black" d="M361.31,-355.614C366.615,-342.998 373.885,-325.705 379.904,-311.391"/>
<polygon fill="black" stroke="black" points="383.182,-312.625 383.831,-302.05 376.729,-309.912 383.182,-312.625"/>
</g>
<!-- stashes#foo:.bootstrap -->
<g id="node12" class="node"><title>stashes#foo:.bootstrap</title>
<polygon fill="none" stroke="black" points="346.206,-212 343.206,-216 322.206,-216 319.206,-212 275.794,-212 275.794,-176 346.206,-176 346.206,-212"/>
<text text-anchor="middle" x="311" y="-188.4" font-family="Times,serif" font-size="14.00">.bootstrap</text>
</g>
<!-- stashes#Foo&#45;&gt;stashes#foo:.bootstrap -->
<g id="edge8" class="edge"><title>stashes#Foo&#45;&gt;stashes#foo:.bootstrap</title>
<path fill="none" stroke="black" d="M315.815,-265.614C314.971,-253.24 313.821,-236.369 312.856,-222.22"/>
<polygon fill="black" stroke="black" points="316.335,-221.789 312.163,-212.05 309.351,-222.265 316.335,-221.789"/>
</g>
<!-- stashes#bar:.bootstrap -->
<g id="node13" class="node"><title>stashes#bar:.bootstrap</title>
<polygon fill="none" stroke="black" stroke-width="3" points="467.206,-212 464.206,-216 443.206,-216 440.206,-212 396.794,-212 396.794,-176 467.206,-176 467.206,-212"/>
<text text-anchor="middle" x="432" y="-188.4" font-family="Times,serif" font-size="14.00">.bootstrap</text>
</g>
<!-- stashes#Bar&#45;&gt;stashes#bar:.bootstrap -->
<g id="edge9" class="edge"><title>stashes#Bar&#45;&gt;stashes#bar:.bootstrap</title>
<path fill="none" stroke="black" d="M399.1,-265.614C404.978,-252.998 413.035,-235.705 419.704,-221.391"/>
<polygon fill="black" stroke="black" points="423.005,-222.593 424.056,-212.05 416.66,-219.637 423.005,-222.593"/>
</g>
<!-- stashes#foo:repositories -->
<g id="node17" class="node"><title>stashes#foo:repositories</title>
<polygon fill="#dddddd" stroke="none" points="31,-113 31,-134 240,-134 240,-113 31,-113"/>
<text text-anchor="start" x="102.841" y="-117.9" font-family="Times,serif" font-size="14.00">repositories</text>
<text text-anchor="start" x="33.0396" y="-97" font-family="Times,serif" font-size="14.00">https://github.com/mulle&#45;nat/Noobie</text>
<polygon fill="none" stroke="black" points="29.5,-92.5 29.5,-135.5 240.5,-135.5 240.5,-92.5 29.5,-92.5"/>
</g>
<!-- stashes#foo:.bootstrap&#45;&gt;stashes#foo:repositories -->
<g id="edge12" class="edge"><title>stashes#foo:.bootstrap&#45;&gt;stashes#foo:repositories</title>
<path fill="none" stroke="black" d="M275.384,-177.216C253.645,-167.581 225.202,-154.976 199.605,-143.632"/>
<polygon fill="black" stroke="black" points="200.882,-140.369 190.321,-139.517 198.046,-146.769 200.882,-140.369"/>
</g>
<!-- stashes#foo:settings -->
<g id="node18" class="node"><title>stashes#foo:settings</title>
<polygon fill="none" stroke="black" points="355.619,-132 352.619,-136 331.619,-136 328.619,-132 266.381,-132 266.381,-96 355.619,-96 355.619,-132"/>
<text text-anchor="middle" x="311" y="-108.4" font-family="Times,serif" font-size="14.00">Noobie.build</text>
</g>
<!-- stashes#foo:.bootstrap&#45;&gt;stashes#foo:settings -->
<g id="edge13" class="edge"><title>stashes#foo:.bootstrap&#45;&gt;stashes#foo:settings</title>
<path fill="none" stroke="black" d="M311,-175.689C311,-165.894 311,-153.422 311,-142.335"/>
<polygon fill="black" stroke="black" points="314.5,-142.262 311,-132.262 307.5,-142.262 314.5,-142.262"/>
</g>
<!-- stashes#bar:settings -->
<g id="node20" class="node"><title>stashes#bar:settings</title>
<polygon fill="none" stroke="black" stroke-width="3" points="484.619,-132 481.619,-136 460.619,-136 457.619,-132 395.381,-132 395.381,-96 484.619,-96 484.619,-132"/>
<text text-anchor="middle" x="440" y="-108.4" font-family="Times,serif" font-size="14.00">Noobie.build</text>
</g>
<!-- stashes#bar:.bootstrap&#45;&gt;stashes#bar:settings -->
<g id="edge15" class="edge"><title>stashes#bar:.bootstrap&#45;&gt;stashes#bar:settings</title>
<path fill="none" stroke="black" stroke-width="3" d="M433.775,-175.689C434.78,-165.894 436.059,-153.422 437.196,-142.335"/>
<polygon fill="black" stroke="black" points="440.691,-142.567 438.23,-132.262 433.727,-141.853 440.691,-142.567"/>
</g>
<!-- .bootstrap.repos -->
<g id="node14" class="node"><title>.bootstrap.repos</title>
<polygon fill="none" stroke="black" stroke-width="3" points="194.57,-392 191.57,-396 170.57,-396 167.57,-392 89.4298,-392 89.4298,-356 194.57,-356 194.57,-392"/>
<text text-anchor="middle" x="142" y="-368.4" font-family="Times,serif" font-size="14.00">.bootstrap.repos</text>
</g>
<!-- symlink.Foo -->
<g id="node15" class="node"><title>symlink.Foo</title>
<polygon fill="#dddddd" stroke="none" points="25,-283 25,-304 123,-304 123,-283 25,-283"/>
<text text-anchor="start" x="54.5552" y="-287.9" font-family="Times,serif" font-size="14.00">Foobie</text>
<text text-anchor="start" x="27.3345" y="-267" font-family="Times,serif" font-size="14.00">../stashes/Foobie</text>
<polygon fill="none" stroke="black" points="24,-262.5 24,-305.5 124,-305.5 124,-262.5 24,-262.5"/>
</g>
<!-- .bootstrap.repos&#45;&gt;symlink.Foo -->
<g id="edge10" class="edge"><title>.bootstrap.repos&#45;&gt;symlink.Foo</title>
<path fill="none" stroke="black" d="M128.565,-355.614C120.247,-344.849 109.297,-330.679 99.3912,-317.859"/>
<polygon fill="black" stroke="black" points="101.954,-315.452 93.0704,-309.679 96.4154,-319.732 101.954,-315.452"/>
</g>
<!-- symlink.Bar -->
<g id="node16" class="node"><title>symlink.Bar</title>
<polygon fill="#dddddd" stroke="none" points="161,-283 161,-304 261,-304 261,-283 161,-283"/>
<text text-anchor="start" x="190.393" y="-287.9" font-family="Times,serif" font-size="14.00">Noobie</text>
<text text-anchor="start" x="163.172" y="-267" font-family="Times,serif" font-size="14.00">../stashes/Noobie</text>
<polygon fill="none" stroke="black" stroke-width="3" points="159.5,-262 159.5,-306 262.5,-306 262.5,-262 159.5,-262"/>
</g>
<!-- .bootstrap.repos&#45;&gt;symlink.Bar -->
<g id="edge11" class="edge"><title>.bootstrap.repos&#45;&gt;symlink.Bar</title>
<path fill="none" stroke="black" stroke-width="3" d="M155.632,-355.614C163.687,-345.342 174.172,-331.969 183.848,-319.629"/>
<polygon fill="black" stroke="black" points="186.64,-321.74 190.056,-311.711 181.132,-317.421 186.64,-321.74"/>
</g>
<!-- stashes#foo:dispense_other_product -->
<g id="node19" class="node"><title>stashes#foo:dispense_other_product</title>
<polygon fill="none" stroke="black" points="368.31,-52 225.69,-52 225.69,-16 374.31,-16 374.31,-46 368.31,-52"/>
<polyline fill="none" stroke="black" points="368.31,-52 368.31,-46 "/>
<polyline fill="none" stroke="black" points="374.31,-46 368.31,-46 "/>
<text text-anchor="middle" x="300" y="-28.4" font-family="Times,serif" font-size="14.00">dispense_other_product</text>
</g>
<!-- stashes#foo:settings&#45;&gt;stashes#foo:dispense_other_product -->
<g id="edge14" class="edge"><title>stashes#foo:settings&#45;&gt;stashes#foo:dispense_other_product</title>
<path fill="none" stroke="black" d="M308.559,-95.6893C307.177,-85.8938 305.418,-73.4218 303.855,-62.335"/>
<polygon fill="black" stroke="black" points="307.297,-61.6756 302.434,-52.2623 300.365,-62.6531 307.297,-61.6756"/>
</g>
<!-- stashes#bar:build_preferences -->
<g id="node21" class="node"><title>stashes#bar:build_preferences</title>
<polygon fill="none" stroke="black" stroke-width="3" points="503.213,-52 392.787,-52 392.787,-16 509.213,-16 509.213,-46 503.213,-52"/>
<polyline fill="none" stroke="black" stroke-width="3" points="503.213,-52 503.213,-46 "/>
<polyline fill="none" stroke="black" stroke-width="3" points="509.213,-46 503.213,-46 "/>
<text text-anchor="middle" x="451" y="-28.4" font-family="Times,serif" font-size="14.00">build_preferences</text>
</g>
<!-- stashes#bar:settings&#45;&gt;stashes#bar:build_preferences -->
<g id="edge16" class="edge"><title>stashes#bar:settings&#45;&gt;stashes#bar:build_preferences</title>
<path fill="none" stroke="black" stroke-width="3" d="M442.441,-95.6893C443.823,-85.8938 445.582,-73.4218 447.145,-62.335"/>
<polygon fill="black" stroke="black" points="450.635,-62.6531 448.566,-52.2623 443.703,-61.6756 450.635,-62.6531"/>
</g>
<!-- bar:build_preferences -->
<g id="node23" class="node"><title>bar:build_preferences</title>
<polygon fill="none" stroke="black" points="911.213,-212 800.787,-212 800.787,-176 917.213,-176 917.213,-206 911.213,-212"/>
<polyline fill="none" stroke="black" points="911.213,-212 911.213,-206 "/>
<polyline fill="none" stroke="black" points="917.213,-206 911.213,-206 "/>
<text text-anchor="middle" x="859" y="-188.4" font-family="Times,serif" font-size="14.00">build_preferences</text>
</g>
<!-- bar:settings&#45;&gt;bar:build_preferences -->
<g id="edge18" class="edge"><title>bar:settings&#45;&gt;bar:build_preferences</title>
<path fill="none" stroke="black" d="M859,-265.614C859,-253.24 859,-236.369 859,-222.22"/>
<polygon fill="black" stroke="black" points="862.5,-222.05 859,-212.05 855.5,-222.05 862.5,-222.05"/>
</g>
</g>
</svg>
