<?xml version="1.0" encoding="UTF-8" standalone="no"?>
<!DOCTYPE svg PUBLIC "-//W3C//DTD SVG 1.1//EN"
 "http://www.w3.org/Graphics/SVG/1.1/DTD/svg11.dtd">
<!-- Generated by graphviz version 2.34.0 (20131231.1455)
 -->
<!-- Title: pic Pages: 1 -->
<svg width="814pt" height="474pt"
 viewBox="0.00 0.00 814.00 474.00" xmlns="http://www.w3.org/2000/svg" xmlns:xlink="http://www.w3.org/1999/xlink">
<g id="graph0" class="graph" transform="scale(1 1) rotate(0) translate(4 470)">
<title>pic</title>
<polygon fill="white" stroke="white" points="-4,4 -4,-470 810,-470 810,4 -4,4"/>
<g id="clust1" class="cluster"><title>cluster_0</title>
<polygon fill="none" stroke="red" points="8,-8 8,-400 774,-400 774,-8 8,-8"/>
</g>
<!-- 1_Project -->
<g id="node1" class="node"><title>1_Project</title>
<polygon fill="none" stroke="red" points="603.172,-429 603.172,-465 658.828,-465 658.828,-429 603.172,-429"/>
<text text-anchor="middle" x="631" y="-441.4" font-family="Times,serif" font-size="14.00">Project</text>
</g>
<!-- .bootstrap.auto -->
<g id="node4" class="node"><title>.bootstrap.auto</title>
<polygon fill="none" stroke="black" points="680.405,-392 677.405,-396 656.405,-396 653.405,-392 581.595,-392 581.595,-356 680.405,-356 680.405,-392"/>
<text text-anchor="middle" x="631" y="-368.4" font-family="Times,serif" font-size="14.00">.bootstrap.auto</text>
</g>
<!-- 1_Project&#45;&gt;.bootstrap.auto -->
<g id="edge1" class="edge"><title>1_Project&#45;&gt;.bootstrap.auto</title>
<path fill="none" stroke="black" d="M631,-428.813C631,-420.789 631,-411.047 631,-402.069"/>
<polygon fill="black" stroke="black" points="634.5,-410 631,-400 627.5,-410 634.5,-410"/>
</g>
<!-- 2_Foo -->
<g id="node2" class="node"><title>2_Foo</title>
<polygon fill="none" stroke="gray" points="676.555,-429 676.555,-465 731.445,-465 731.445,-429 676.555,-429"/>
<text text-anchor="middle" x="704" y="-441.4" font-family="Times,serif" font-size="14.00">Foobie</text>
</g>
<!-- 3_Bar -->
<g id="node3" class="node"><title>3_Bar</title>
<polygon fill="none" stroke="gray" points="749.393,-429 749.393,-465 806.607,-465 806.607,-429 749.393,-429"/>
<text text-anchor="middle" x="778" y="-441.4" font-family="Times,serif" font-size="14.00">Noobie</text>
</g>
<!-- repositories.auto -->
<g id="node10" class="node"><title>repositories.auto</title>
<polygon fill="#dddddd" stroke="none" points="443,-293 443,-314 652,-314 652,-293 443,-293"/>
<text text-anchor="start" x="514.841" y="-297.9" font-family="Times,serif" font-size="14.00">repositories</text>
<text text-anchor="start" x="445.04" y="-277" font-family="Times,serif" font-size="14.00">https://github.com/mulle&#45;nat/Noobie</text>
<text text-anchor="start" x="446.202" y="-257" font-family="Times,serif" font-size="14.00">https://github.com/mulle&#45;nat/Foobie</text>
<polygon fill="none" stroke="black" points="441.5,-252.5 441.5,-315.5 652.5,-315.5 652.5,-252.5 441.5,-252.5"/>
</g>
<!-- .bootstrap.auto&#45;&gt;repositories.auto -->
<g id="edge6" class="edge"><title>.bootstrap.auto&#45;&gt;repositories.auto</title>
<path fill="none" stroke="black" d="M614.404,-355.614C606.556,-347.392 596.811,-337.183 587.193,-327.107"/>
<polygon fill="black" stroke="black" points="589.677,-324.64 580.24,-319.823 584.614,-329.474 589.677,-324.64"/>
</g>
<!-- .auto:Foo -->
<g id="node11" class="node"><title>.auto:Foo</title>
<polygon fill="none" stroke="black" points="765.376,-302 762.376,-306 741.376,-306 738.376,-302 678.624,-302 678.624,-266 765.376,-266 765.376,-302"/>
<text text-anchor="middle" x="722" y="-278.4" font-family="Times,serif" font-size="14.00">Foobie.build</text>
</g>
<!-- .bootstrap.auto&#45;&gt;.auto:Foo -->
<g id="edge7" class="edge"><title>.bootstrap.auto&#45;&gt;.auto:Foo</title>
<path fill="none" stroke="black" d="M648.979,-355.614C662.652,-342.391 681.638,-324.032 696.822,-309.348"/>
<polygon fill="black" stroke="black" points="699.613,-311.518 704.368,-302.05 694.747,-306.486 699.613,-311.518"/>
</g>
<!-- stashes -->
<g id="node5" class="node"><title>stashes</title>
<polygon fill="none" stroke="black" points="377.25,-392 374.25,-396 353.25,-396 350.25,-392 322.75,-392 322.75,-356 377.25,-356 377.25,-392"/>
<text text-anchor="middle" x="350" y="-368.4" font-family="Times,serif" font-size="14.00">stashes</text>
</g>
<!-- stashes#Foo -->
<g id="node6" class="node"><title>stashes#Foo</title>
<polygon fill="none" stroke="black" points="340.168,-302 337.168,-306 316.168,-306 313.168,-302 285.832,-302 285.832,-266 340.168,-266 340.168,-302"/>
<text text-anchor="middle" x="313" y="-278.4" font-family="Times,serif" font-size="14.00">Foobie</text>
</g>
<!-- stashes&#45;&gt;stashes#Foo -->
<g id="edge2" class="edge"><title>stashes&#45;&gt;stashes#Foo</title>
<path fill="none" stroke="black" d="M342.69,-355.614C337.385,-342.998 330.115,-325.705 324.096,-311.391"/>
<polygon fill="black" stroke="black" points="327.271,-309.912 320.169,-302.05 320.818,-312.625 327.271,-309.912"/>
</g>
<!-- stashes#Bar -->
<g id="node7" class="node"><title>stashes#Bar</title>
<polygon fill="none" stroke="black" points="415.41,-302 412.41,-306 391.41,-306 388.41,-302 358.59,-302 358.59,-266 415.41,-266 415.41,-302"/>
<text text-anchor="middle" x="387" y="-278.4" font-family="Times,serif" font-size="14.00">Noobie</text>
</g>
<!-- stashes&#45;&gt;stashes#Bar -->
<g id="edge3" class="edge"><title>stashes&#45;&gt;stashes#Bar</title>
<path fill="none" stroke="black" d="M357.31,-355.614C362.615,-342.998 369.885,-325.705 375.904,-311.391"/>
<polygon fill="black" stroke="black" points="379.182,-312.625 379.831,-302.05 372.729,-309.912 379.182,-312.625"/>
</g>
<!-- stashes#foo:.bootstrap -->
<g id="node8" class="node"><title>stashes#foo:.bootstrap</title>
<polygon fill="none" stroke="black" points="344.206,-212 341.206,-216 320.206,-216 317.206,-212 273.794,-212 273.794,-176 344.206,-176 344.206,-212"/>
<text text-anchor="middle" x="309" y="-188.4" font-family="Times,serif" font-size="14.00">.bootstrap</text>
</g>
<!-- stashes#Foo&#45;&gt;stashes#foo:.bootstrap -->
<g id="edge4" class="edge"><title>stashes#Foo&#45;&gt;stashes#foo:.bootstrap</title>
<path fill="none" stroke="black" d="M312.21,-265.614C311.647,-253.24 310.88,-236.369 310.237,-222.22"/>
<polygon fill="black" stroke="black" points="313.726,-221.881 309.775,-212.05 306.733,-222.199 313.726,-221.881"/>
</g>
<!-- stashes#bar:.bootstrap -->
<g id="node9" class="node"><title>stashes#bar:.bootstrap</title>
<polygon fill="none" stroke="black" points="465.206,-212 462.206,-216 441.206,-216 438.206,-212 394.794,-212 394.794,-176 465.206,-176 465.206,-212"/>
<text text-anchor="middle" x="430" y="-188.4" font-family="Times,serif" font-size="14.00">.bootstrap</text>
</g>
<!-- stashes#Bar&#45;&gt;stashes#bar:.bootstrap -->
<g id="edge5" class="edge"><title>stashes#Bar&#45;&gt;stashes#bar:.bootstrap</title>
<path fill="none" stroke="black" d="M395.495,-265.614C401.66,-252.998 410.11,-235.705 417.105,-221.391"/>
<polygon fill="black" stroke="black" points="420.423,-222.572 421.669,-212.05 414.134,-219.499 420.423,-222.572"/>
</g>
<!-- stashes#foo:repositories -->
<g id="node16" class="node"><title>stashes#foo:repositories</title>
<polygon fill="#dddddd" stroke="none" points="29,-113 29,-134 238,-134 238,-113 29,-113"/>
<text text-anchor="start" x="100.841" y="-117.9" font-family="Times,serif" font-size="14.00">repositories</text>
<text text-anchor="start" x="31.0396" y="-97" font-family="Times,serif" font-size="14.00">https://github.com/mulle&#45;nat/Noobie</text>
<polygon fill="none" stroke="black" points="27.5,-92.5 27.5,-135.5 238.5,-135.5 238.5,-92.5 27.5,-92.5"/>
</g>
<!-- stashes#foo:.bootstrap&#45;&gt;stashes#foo:repositories -->
<g id="edge11" class="edge"><title>stashes#foo:.bootstrap&#45;&gt;stashes#foo:repositories</title>
<path fill="none" stroke="black" d="M273.384,-177.216C251.645,-167.581 223.202,-154.976 197.605,-143.632"/>
<polygon fill="black" stroke="black" points="198.882,-140.369 188.321,-139.517 196.046,-146.769 198.882,-140.369"/>
</g>
<!-- stashes#foo:settings -->
<g id="node17" class="node"><title>stashes#foo:settings</title>
<polygon fill="none" stroke="black" points="353.619,-132 350.619,-136 329.619,-136 326.619,-132 264.381,-132 264.381,-96 353.619,-96 353.619,-132"/>
<text text-anchor="middle" x="309" y="-108.4" font-family="Times,serif" font-size="14.00">Noobie.build</text>
</g>
<!-- stashes#foo:.bootstrap&#45;&gt;stashes#foo:settings -->
<g id="edge12" class="edge"><title>stashes#foo:.bootstrap&#45;&gt;stashes#foo:settings</title>
<path fill="none" stroke="black" d="M309,-175.689C309,-165.894 309,-153.422 309,-142.335"/>
<polygon fill="black" stroke="black" points="312.5,-142.262 309,-132.262 305.5,-142.262 312.5,-142.262"/>
</g>
<!-- stashes#bar:settings -->
<g id="node19" class="node"><title>stashes#bar:settings</title>
<polygon fill="none" stroke="black" points="482.619,-132 479.619,-136 458.619,-136 455.619,-132 393.381,-132 393.381,-96 482.619,-96 482.619,-132"/>
<text text-anchor="middle" x="438" y="-108.4" font-family="Times,serif" font-size="14.00">Noobie.build</text>
</g>
<!-- stashes#bar:.bootstrap&#45;&gt;stashes#bar:settings -->
<g id="edge14" class="edge"><title>stashes#bar:.bootstrap&#45;&gt;stashes#bar:settings</title>
<path fill="none" stroke="black" d="M431.775,-175.689C432.78,-165.894 434.059,-153.422 435.196,-142.335"/>
<polygon fill="black" stroke="black" points="438.691,-142.567 436.23,-132.262 431.727,-141.853 438.691,-142.567"/>
</g>
<!-- .auto:build_preferences -->
<g id="node12" class="node"><title>.auto:build_preferences</title>
<polygon fill="none" stroke="black" points="760.213,-212 649.787,-212 649.787,-176 766.213,-176 766.213,-206 760.213,-212"/>
<polyline fill="none" stroke="black" points="760.213,-212 760.213,-206 "/>
<polyline fill="none" stroke="black" points="766.213,-206 760.213,-206 "/>
<text text-anchor="middle" x="708" y="-188.4" font-family="Times,serif" font-size="14.00">build_preferences</text>
</g>
<!-- .auto:Foo&#45;&gt;.auto:build_preferences -->
<g id="edge8" class="edge"><title>.auto:Foo&#45;&gt;.auto:build_preferences</title>
<path fill="none" stroke="black" d="M719.234,-265.614C717.266,-253.24 714.581,-236.369 712.33,-222.22"/>
<polygon fill="black" stroke="black" points="715.74,-221.376 710.713,-212.05 708.827,-222.476 715.74,-221.376"/>
</g>
<!-- .bootstrap.repos -->
<g id="node13" class="node"><title>.bootstrap.repos</title>
<polygon fill="none" stroke="black" points="193.57,-392 190.57,-396 169.57,-396 166.57,-392 88.4298,-392 88.4298,-356 193.57,-356 193.57,-392"/>
<text text-anchor="middle" x="141" y="-368.4" font-family="Times,serif" font-size="14.00">.bootstrap.repos</text>
</g>
<!-- symlink.Foo -->
<g id="node14" class="node"><title>symlink.Foo</title>
<polygon fill="#dddddd" stroke="none" points="25,-283 25,-304 123,-304 123,-283 25,-283"/>
<text text-anchor="start" x="54.5552" y="-287.9" font-family="Times,serif" font-size="14.00">Foobie</text>
<text text-anchor="start" x="27.3345" y="-267" font-family="Times,serif" font-size="14.00">../stashes/Foobie</text>
<polygon fill="none" stroke="black" points="24,-262.5 24,-305.5 124,-305.5 124,-262.5 24,-262.5"/>
</g>
<!-- .bootstrap.repos&#45;&gt;symlink.Foo -->
<g id="edge9" class="edge"><title>.bootstrap.repos&#45;&gt;symlink.Foo</title>
<path fill="none" stroke="black" d="M127.763,-355.614C119.567,-344.849 108.778,-330.679 99.0178,-317.859"/>
<polygon fill="black" stroke="black" points="101.632,-315.516 92.7899,-309.679 96.0629,-319.756 101.632,-315.516"/>
</g>
<!-- symlink.Bar -->
<g id="node15" class="node"><title>symlink.Bar</title>
<polygon fill="#dddddd" stroke="none" points="159,-283 159,-304 259,-304 259,-283 159,-283"/>
<text text-anchor="start" x="188.393" y="-287.9" font-family="Times,serif" font-size="14.00">Noobie</text>
<text text-anchor="start" x="161.172" y="-267" font-family="Times,serif" font-size="14.00">../stashes/Noobie</text>
<polygon fill="none" stroke="black" points="158,-262.5 158,-305.5 260,-305.5 260,-262.5 158,-262.5"/>
</g>
<!-- .bootstrap.repos&#45;&gt;symlink.Bar -->
<g id="edge10" class="edge"><title>.bootstrap.repos&#45;&gt;symlink.Bar</title>
<path fill="none" stroke="black" d="M154.435,-355.614C162.753,-344.849 173.703,-330.679 183.609,-317.859"/>
<polygon fill="black" stroke="black" points="186.585,-319.732 189.93,-309.679 181.046,-315.452 186.585,-319.732"/>
</g>
<!-- stashes#foo:dispense_other_product -->
<g id="node18" class="node"><title>stashes#foo:dispense_other_product</title>
<polygon fill="none" stroke="black" points="366.31,-52 223.69,-52 223.69,-16 372.31,-16 372.31,-46 366.31,-52"/>
<polyline fill="none" stroke="black" points="366.31,-52 366.31,-46 "/>
<polyline fill="none" stroke="black" points="372.31,-46 366.31,-46 "/>
<text text-anchor="middle" x="298" y="-28.4" font-family="Times,serif" font-size="14.00">dispense_other_product</text>
</g>
<!-- stashes#foo:settings&#45;&gt;stashes#foo:dispense_other_product -->
<g id="edge13" class="edge"><title>stashes#foo:settings&#45;&gt;stashes#foo:dispense_other_product</title>
<path fill="none" stroke="black" d="M306.559,-95.6893C305.177,-85.8938 303.418,-73.4218 301.855,-62.335"/>
<polygon fill="black" stroke="black" points="305.297,-61.6756 300.434,-52.2623 298.365,-62.6531 305.297,-61.6756"/>
</g>
<!-- stashes#bar:build_preferences -->
<g id="node20" class="node"><title>stashes#bar:build_preferences</title>
<polygon fill="none" stroke="black" points="501.213,-52 390.787,-52 390.787,-16 507.213,-16 507.213,-46 501.213,-52"/>
<polyline fill="none" stroke="black" points="501.213,-52 501.213,-46 "/>
<polyline fill="none" stroke="black" points="507.213,-46 501.213,-46 "/>
<text text-anchor="middle" x="449" y="-28.4" font-family="Times,serif" font-size="14.00">build_preferences</text>
</g>
<!-- stashes#bar:settings&#45;&gt;stashes#bar:build_preferences -->
<g id="edge15" class="edge"><title>stashes#bar:settings&#45;&gt;stashes#bar:build_preferences</title>
<path fill="none" stroke="black" d="M440.441,-95.6893C441.823,-85.8938 443.582,-73.4218 445.145,-62.335"/>
<polygon fill="black" stroke="black" points="448.635,-62.6531 446.566,-52.2623 441.703,-61.6756 448.635,-62.6531"/>
</g>
</g>
</svg>
