<?xml version="1.0" encoding="UTF-8" standalone="no"?>
<!DOCTYPE svg PUBLIC "-//W3C//DTD SVG 1.1//EN"
 "http://www.w3.org/Graphics/SVG/1.1/DTD/svg11.dtd">
<!-- Generated by graphviz version 2.34.0 (20131231.1455)
 -->
<!-- Title: pic Pages: 1 -->
<svg width="1007pt" height="478pt"
 viewBox="0.00 0.00 1007.00 478.00" xmlns="http://www.w3.org/2000/svg" xmlns:xlink="http://www.w3.org/1999/xlink">
<g id="graph0" class="graph" transform="scale(1 1) rotate(0) translate(4 474)">
<title>pic</title>
<polygon fill="white" stroke="white" points="-4,4 -4,-474 1003,-474 1003,4 -4,4"/>
<g id="clust1" class="cluster"><title>cluster_0</title>
<polygon fill="none" stroke="red" points="8,-8 8,-404 991,-404 991,-8 8,-8"/>
</g>
<!-- 1_Project -->
<g id="node1" class="node"><title>1_Project</title>
<polygon fill="none" stroke="red" points="747.172,-433 747.172,-469 802.828,-469 802.828,-433 747.172,-433"/>
<text text-anchor="middle" x="775" y="-445.4" font-family="Times,serif" font-size="14.00">Project</text>
</g>
<!-- .bootstrap.auto -->
<g id="node4" class="node"><title>.bootstrap.auto</title>
<polygon fill="none" stroke="black" points="824.405,-396 821.405,-400 800.405,-400 797.405,-396 725.595,-396 725.595,-360 824.405,-360 824.405,-396"/>
<text text-anchor="middle" x="775" y="-372.4" font-family="Times,serif" font-size="14.00">.bootstrap.auto</text>
</g>
<!-- 1_Project&#45;&gt;.bootstrap.auto -->
<g id="edge1" class="edge"><title>1_Project&#45;&gt;.bootstrap.auto</title>
<path fill="none" stroke="black" d="M775,-432.813C775,-424.789 775,-415.047 775,-406.069"/>
<polygon fill="black" stroke="black" points="778.5,-414 775,-404 771.5,-414 778.5,-414"/>
</g>
<!-- 2_Foo -->
<g id="node2" class="node"><title>2_Foo</title>
<polygon fill="none" stroke="gray" points="820.555,-433 820.555,-469 875.445,-469 875.445,-433 820.555,-433"/>
<text text-anchor="middle" x="848" y="-445.4" font-family="Times,serif" font-size="14.00">Foobie</text>
</g>
<!-- 3_Bar -->
<g id="node3" class="node"><title>3_Bar</title>
<polygon fill="none" stroke="gray" points="893.393,-433 893.393,-469 950.607,-469 950.607,-433 893.393,-433"/>
<text text-anchor="middle" x="922" y="-445.4" font-family="Times,serif" font-size="14.00">Noobie</text>
</g>
<!-- repositories.auto -->
<g id="node10" class="node"><title>repositories.auto</title>
<polygon fill="#dddddd" stroke="none" points="443,-295 443,-316 652,-316 652,-295 443,-295"/>
<text text-anchor="start" x="514.841" y="-299.9" font-family="Times,serif" font-size="14.00">repositories</text>
<text text-anchor="start" x="445.04" y="-279" font-family="Times,serif" font-size="14.00">https://github.com/mulle&#45;nat/Noobie</text>
<text text-anchor="start" x="446.202" y="-259" font-family="Times,serif" font-size="14.00">https://github.com/mulle&#45;nat/Foobie</text>
<polygon fill="none" stroke="black" points="441.5,-254.5 441.5,-317.5 652.5,-317.5 652.5,-254.5 441.5,-254.5"/>
</g>
<!-- .bootstrap.auto&#45;&gt;repositories.auto -->
<g id="edge6" class="edge"><title>.bootstrap.auto&#45;&gt;repositories.auto</title>
<path fill="none" stroke="black" d="M731.847,-359.966C707.043,-350.175 674.827,-337.458 644.253,-325.389"/>
<polygon fill="black" stroke="black" points="645.414,-322.085 634.827,-321.669 642.844,-328.596 645.414,-322.085"/>
</g>
<!-- .auto:Foo -->
<g id="node11" class="node"><title>.auto:Foo</title>
<polygon fill="none" stroke="black" points="765.376,-304 762.376,-308 741.376,-308 738.376,-304 678.624,-304 678.624,-268 765.376,-268 765.376,-304"/>
<text text-anchor="middle" x="722" y="-280.4" font-family="Times,serif" font-size="14.00">Foobie.build</text>
</g>
<!-- .bootstrap.auto&#45;&gt;.auto:Foo -->
<g id="edge7" class="edge"><title>.bootstrap.auto&#45;&gt;.auto:Foo</title>
<path fill="none" stroke="black" d="M764.781,-359.647C757.009,-346.449 746.187,-328.071 737.372,-313.103"/>
<polygon fill="black" stroke="black" points="740.278,-311.14 732.188,-304.3 734.246,-314.693 740.278,-311.14"/>
</g>
<!-- .auto:Noobie.build -->
<g id="node12" class="node"><title>.auto:Noobie.build</title>
<polygon fill="none" stroke="black" stroke-width="3" points="872.619,-304 869.619,-308 848.619,-308 845.619,-304 783.381,-304 783.381,-268 872.619,-268 872.619,-304"/>
<text text-anchor="middle" x="828" y="-280.4" font-family="Times,serif" font-size="14.00">Noobie.build</text>
</g>
<!-- .bootstrap.auto&#45;&gt;.auto:Noobie.build -->
<g id="edge8" class="edge"><title>.bootstrap.auto&#45;&gt;.auto:Noobie.build</title>
<path fill="none" stroke="black" stroke-width="3" d="M785.219,-359.647C792.991,-346.449 803.813,-328.071 812.628,-313.103"/>
<polygon fill="black" stroke="black" points="815.754,-314.693 817.812,-304.3 809.722,-311.14 815.754,-314.693"/>
</g>
<!-- build_order -->
<g id="node13" class="node"><title>build_order</title>
<polygon fill="#dddddd" stroke="none" points="902,-295 902,-316 972,-316 972,-295 902,-295"/>
<text text-anchor="start" x="904.341" y="-299.9" font-family="Times,serif" font-size="14.00">build_order</text>
<text text-anchor="start" x="916.393" y="-279" font-family="Times,serif" font-size="14.00">Noobie</text>
<text text-anchor="start" x="917.555" y="-259" font-family="Times,serif" font-size="14.00">Foobie</text>
<polygon fill="none" stroke="black" stroke-width="3" points="900.5,-254 900.5,-318 973.5,-318 973.5,-254 900.5,-254"/>
</g>
<!-- .bootstrap.auto&#45;&gt;build_order -->
<g id="edge9" class="edge"><title>.bootstrap.auto&#45;&gt;build_order</title>
<path fill="none" stroke="black" stroke-width="3" d="M811.875,-359.91C832.522,-350.008 858.551,-336.966 881,-324 881.404,-323.767 881.808,-323.532 882.214,-323.296"/>
<polygon fill="black" stroke="black" points="884.051,-326.275 890.823,-318.127 880.448,-320.274 884.051,-326.275"/>
</g>
<!-- stashes -->
<g id="node5" class="node"><title>stashes</title>
<polygon fill="none" stroke="black" points="377.25,-396 374.25,-400 353.25,-400 350.25,-396 322.75,-396 322.75,-360 377.25,-360 377.25,-396"/>
<text text-anchor="middle" x="350" y="-372.4" font-family="Times,serif" font-size="14.00">stashes</text>
</g>
<!-- stashes#Foo -->
<g id="node6" class="node"><title>stashes#Foo</title>
<polygon fill="none" stroke="black" points="340.168,-304 337.168,-308 316.168,-308 313.168,-304 285.832,-304 285.832,-268 340.168,-268 340.168,-304"/>
<text text-anchor="middle" x="313" y="-280.4" font-family="Times,serif" font-size="14.00">Foobie</text>
</g>
<!-- stashes&#45;&gt;stashes#Foo -->
<g id="edge2" class="edge"><title>stashes&#45;&gt;stashes#Foo</title>
<path fill="none" stroke="black" d="M342.866,-359.647C337.543,-346.698 330.169,-328.763 324.081,-313.953"/>
<polygon fill="black" stroke="black" points="327.152,-312.218 320.112,-304.3 320.677,-314.879 327.152,-312.218"/>
</g>
<!-- stashes#Bar -->
<g id="node7" class="node"><title>stashes#Bar</title>
<polygon fill="none" stroke="black" points="415.41,-304 412.41,-308 391.41,-308 388.41,-304 358.59,-304 358.59,-268 415.41,-268 415.41,-304"/>
<text text-anchor="middle" x="387" y="-280.4" font-family="Times,serif" font-size="14.00">Noobie</text>
</g>
<!-- stashes&#45;&gt;stashes#Bar -->
<g id="edge3" class="edge"><title>stashes&#45;&gt;stashes#Bar</title>
<path fill="none" stroke="black" d="M357.134,-359.647C362.457,-346.698 369.831,-328.763 375.919,-313.953"/>
<polygon fill="black" stroke="black" points="379.323,-314.879 379.888,-304.3 372.848,-312.218 379.323,-314.879"/>
</g>
<!-- stashes#foo:.bootstrap -->
<g id="node8" class="node"><title>stashes#foo:.bootstrap</title>
<polygon fill="none" stroke="black" points="344.206,-212 341.206,-216 320.206,-216 317.206,-212 273.794,-212 273.794,-176 344.206,-176 344.206,-212"/>
<text text-anchor="middle" x="309" y="-188.4" font-family="Times,serif" font-size="14.00">.bootstrap</text>
</g>
<!-- stashes#Foo&#45;&gt;stashes#foo:.bootstrap -->
<g id="edge4" class="edge"><title>stashes#Foo&#45;&gt;stashes#foo:.bootstrap</title>
<path fill="none" stroke="black" d="M312.229,-267.647C311.659,-254.823 310.871,-237.108 310.217,-222.381"/>
<polygon fill="black" stroke="black" points="313.71,-222.134 309.769,-212.3 306.716,-222.445 313.71,-222.134"/>
</g>
<!-- stashes#bar:.bootstrap -->
<g id="node9" class="node"><title>stashes#bar:.bootstrap</title>
<polygon fill="none" stroke="black" points="465.206,-212 462.206,-216 441.206,-216 438.206,-212 394.794,-212 394.794,-176 465.206,-176 465.206,-212"/>
<text text-anchor="middle" x="430" y="-188.4" font-family="Times,serif" font-size="14.00">.bootstrap</text>
</g>
<!-- stashes#Bar&#45;&gt;stashes#bar:.bootstrap -->
<g id="edge5" class="edge"><title>stashes#Bar&#45;&gt;stashes#bar:.bootstrap</title>
<path fill="none" stroke="black" d="M395.291,-267.647C401.537,-254.574 410.212,-236.418 417.326,-221.527"/>
<polygon fill="black" stroke="black" points="420.582,-222.832 421.735,-212.3 414.265,-219.814 420.582,-222.832"/>
</g>
<!-- stashes#foo:repositories -->
<g id="node20" class="node"><title>stashes#foo:repositories</title>
<polygon fill="#dddddd" stroke="none" points="29,-113 29,-134 238,-134 238,-113 29,-113"/>
<text text-anchor="start" x="100.841" y="-117.9" font-family="Times,serif" font-size="14.00">repositories</text>
<text text-anchor="start" x="31.0396" y="-97" font-family="Times,serif" font-size="14.00">https://github.com/mulle&#45;nat/Noobie</text>
<polygon fill="none" stroke="black" points="27.5,-92.5 27.5,-135.5 238.5,-135.5 238.5,-92.5 27.5,-92.5"/>
</g>
<!-- stashes#foo:.bootstrap&#45;&gt;stashes#foo:repositories -->
<g id="edge15" class="edge"><title>stashes#foo:.bootstrap&#45;&gt;stashes#foo:repositories</title>
<path fill="none" stroke="black" d="M273.384,-177.216C251.645,-167.581 223.202,-154.976 197.605,-143.632"/>
<polygon fill="black" stroke="black" points="198.882,-140.369 188.321,-139.517 196.046,-146.769 198.882,-140.369"/>
</g>
<!-- stashes#foo:settings -->
<g id="node21" class="node"><title>stashes#foo:settings</title>
<polygon fill="none" stroke="black" points="353.619,-132 350.619,-136 329.619,-136 326.619,-132 264.381,-132 264.381,-96 353.619,-96 353.619,-132"/>
<text text-anchor="middle" x="309" y="-108.4" font-family="Times,serif" font-size="14.00">Noobie.build</text>
</g>
<!-- stashes#foo:.bootstrap&#45;&gt;stashes#foo:settings -->
<g id="edge16" class="edge"><title>stashes#foo:.bootstrap&#45;&gt;stashes#foo:settings</title>
<path fill="none" stroke="black" d="M309,-175.689C309,-165.894 309,-153.422 309,-142.335"/>
<polygon fill="black" stroke="black" points="312.5,-142.262 309,-132.262 305.5,-142.262 312.5,-142.262"/>
</g>
<!-- stashes#bar:settings -->
<g id="node23" class="node"><title>stashes#bar:settings</title>
<polygon fill="none" stroke="black" points="482.619,-132 479.619,-136 458.619,-136 455.619,-132 393.381,-132 393.381,-96 482.619,-96 482.619,-132"/>
<text text-anchor="middle" x="438" y="-108.4" font-family="Times,serif" font-size="14.00">Noobie.build</text>
</g>
<!-- stashes#bar:.bootstrap&#45;&gt;stashes#bar:settings -->
<g id="edge18" class="edge"><title>stashes#bar:.bootstrap&#45;&gt;stashes#bar:settings</title>
<path fill="none" stroke="black" d="M431.775,-175.689C432.78,-165.894 434.059,-153.422 435.196,-142.335"/>
<polygon fill="black" stroke="black" points="438.691,-142.567 436.23,-132.262 431.727,-141.853 438.691,-142.567"/>
</g>
<!-- .auto:build_preferences -->
<g id="node14" class="node"><title>.auto:build_preferences</title>
<polygon fill="none" stroke="black" points="675.213,-212 564.787,-212 564.787,-176 681.213,-176 681.213,-206 675.213,-212"/>
<polyline fill="none" stroke="black" points="675.213,-212 675.213,-206 "/>
<polyline fill="none" stroke="black" points="681.213,-206 675.213,-206 "/>
<text text-anchor="middle" x="623" y="-188.4" font-family="Times,serif" font-size="14.00">build_preferences</text>
</g>
<!-- .auto:Foo&#45;&gt;.auto:build_preferences -->
<g id="edge10" class="edge"><title>.auto:Foo&#45;&gt;.auto:build_preferences</title>
<path fill="none" stroke="black" d="M702.912,-267.647C687.846,-253.951 666.645,-234.677 649.865,-219.423"/>
<polygon fill="black" stroke="black" points="651.783,-216.437 642.03,-212.3 647.075,-221.616 651.783,-216.437"/>
</g>
<!-- .auto:dispense_other_product -->
<g id="node15" class="node"><title>.auto:dispense_other_product</title>
<polygon fill="none" stroke="black" stroke-width="3" points="842.31,-212 699.69,-212 699.69,-176 848.31,-176 848.31,-206 842.31,-212"/>
<polyline fill="none" stroke="black" stroke-width="3" points="842.31,-212 842.31,-206 "/>
<polyline fill="none" stroke="black" stroke-width="3" points="848.31,-206 842.31,-206 "/>
<text text-anchor="middle" x="774" y="-188.4" font-family="Times,serif" font-size="14.00">dispense_other_product</text>
</g>
<!-- .auto:Noobie.build&#45;&gt;.auto:dispense_other_product -->
<g id="edge11" class="edge"><title>.auto:Noobie.build&#45;&gt;.auto:dispense_other_product</title>
<path fill="none" stroke="black" stroke-width="3" d="M817.588,-267.647C809.67,-254.449 798.643,-236.071 789.662,-221.103"/>
<polygon fill="black" stroke="black" points="792.526,-219.074 784.38,-212.3 786.524,-222.675 792.526,-219.074"/>
</g>
<!-- .auto:Noobie.build_preferences -->
<g id="node16" class="node"><title>.auto:Noobie.build_preferences</title>
<polygon fill="none" stroke="black" stroke-width="3" points="977.213,-212 866.787,-212 866.787,-176 983.213,-176 983.213,-206 977.213,-212"/>
<polyline fill="none" stroke="black" stroke-width="3" points="977.213,-212 977.213,-206 "/>
<polyline fill="none" stroke="black" stroke-width="3" points="983.213,-206 977.213,-206 "/>
<text text-anchor="middle" x="925" y="-188.4" font-family="Times,serif" font-size="14.00">build_preferences</text>
</g>
<!-- .auto:Noobie.build&#45;&gt;.auto:Noobie.build_preferences -->
<g id="edge12" class="edge"><title>.auto:Noobie.build&#45;&gt;.auto:Noobie.build_preferences</title>
<path fill="none" stroke="black" stroke-width="3" d="M846.703,-267.647C861.464,-253.951 882.237,-234.677 898.677,-219.423"/>
<polygon fill="black" stroke="black" points="901.405,-221.667 906.355,-212.3 896.644,-216.536 901.405,-221.667"/>
</g>
<!-- .bootstrap.repos -->
<g id="node17" class="node"><title>.bootstrap.repos</title>
<polygon fill="none" stroke="black" points="193.57,-396 190.57,-400 169.57,-400 166.57,-396 88.4298,-396 88.4298,-360 193.57,-360 193.57,-396"/>
<text text-anchor="middle" x="141" y="-372.4" font-family="Times,serif" font-size="14.00">.bootstrap.repos</text>
</g>
<!-- symlink.Foo -->
<g id="node18" class="node"><title>symlink.Foo</title>
<polygon fill="#dddddd" stroke="none" points="25,-285 25,-306 123,-306 123,-285 25,-285"/>
<text text-anchor="start" x="54.5552" y="-289.9" font-family="Times,serif" font-size="14.00">Foobie</text>
<text text-anchor="start" x="27.3345" y="-269" font-family="Times,serif" font-size="14.00">../stashes/Foobie</text>
<polygon fill="none" stroke="black" points="24,-264.5 24,-307.5 124,-307.5 124,-264.5 24,-264.5"/>
</g>
<!-- .bootstrap.repos&#45;&gt;symlink.Foo -->
<g id="edge13" class="edge"><title>.bootstrap.repos&#45;&gt;symlink.Foo</title>
<path fill="none" stroke="black" d="M128.082,-359.647C119.705,-348.395 108.526,-333.378 98.5058,-319.918"/>
<polygon fill="black" stroke="black" points="101.231,-317.718 92.4521,-311.786 95.6161,-321.898 101.231,-317.718"/>
</g>
<!-- symlink.Bar -->
<g id="node19" class="node"><title>symlink.Bar</title>
<polygon fill="#dddddd" stroke="none" points="159,-285 159,-306 259,-306 259,-285 159,-285"/>
<text text-anchor="start" x="188.393" y="-289.9" font-family="Times,serif" font-size="14.00">Noobie</text>
<text text-anchor="start" x="161.172" y="-269" font-family="Times,serif" font-size="14.00">../stashes/Noobie</text>
<polygon fill="none" stroke="black" points="158,-264.5 158,-307.5 260,-307.5 260,-264.5 158,-264.5"/>
</g>
<!-- .bootstrap.repos&#45;&gt;symlink.Bar -->
<g id="edge14" class="edge"><title>.bootstrap.repos&#45;&gt;symlink.Bar</title>
<path fill="none" stroke="black" d="M154.111,-359.647C162.613,-348.395 173.959,-333.378 184.128,-319.918"/>
<polygon fill="black" stroke="black" points="187.037,-321.875 190.272,-311.786 181.452,-317.655 187.037,-321.875"/>
</g>
<!-- stashes#foo:dispense_other_product -->
<g id="node22" class="node"><title>stashes#foo:dispense_other_product</title>
<polygon fill="none" stroke="black" points="366.31,-52 223.69,-52 223.69,-16 372.31,-16 372.31,-46 366.31,-52"/>
<polyline fill="none" stroke="black" points="366.31,-52 366.31,-46 "/>
<polyline fill="none" stroke="black" points="372.31,-46 366.31,-46 "/>
<text text-anchor="middle" x="298" y="-28.4" font-family="Times,serif" font-size="14.00">dispense_other_product</text>
</g>
<!-- stashes#foo:settings&#45;&gt;stashes#foo:dispense_other_product -->
<g id="edge17" class="edge"><title>stashes#foo:settings&#45;&gt;stashes#foo:dispense_other_product</title>
<path fill="none" stroke="black" d="M306.559,-95.6893C305.177,-85.8938 303.418,-73.4218 301.855,-62.335"/>
<polygon fill="black" stroke="black" points="305.297,-61.6756 300.434,-52.2623 298.365,-62.6531 305.297,-61.6756"/>
</g>
<!-- stashes#bar:build_preferences -->
<g id="node24" class="node"><title>stashes#bar:build_preferences</title>
<polygon fill="none" stroke="black" points="501.213,-52 390.787,-52 390.787,-16 507.213,-16 507.213,-46 501.213,-52"/>
<polyline fill="none" stroke="black" points="501.213,-52 501.213,-46 "/>
<polyline fill="none" stroke="black" points="507.213,-46 501.213,-46 "/>
<text text-anchor="middle" x="449" y="-28.4" font-family="Times,serif" font-size="14.00">build_preferences</text>
</g>
<!-- stashes#bar:settings&#45;&gt;stashes#bar:build_preferences -->
<g id="edge19" class="edge"><title>stashes#bar:settings&#45;&gt;stashes#bar:build_preferences</title>
<path fill="none" stroke="black" d="M440.441,-95.6893C441.823,-85.8938 443.582,-73.4218 445.145,-62.335"/>
<polygon fill="black" stroke="black" points="448.635,-62.6531 446.566,-52.2623 441.703,-61.6756 448.635,-62.6531"/>
</g>
</g>
</svg>
